<svg xmlns="http://www.w3.org/2000/svg" width="46" height="46" viewBox="0 0 46 46" fill="currentColor">
<path d="M17.9813 22.5939L31.8199 36.4326C32.2906 36.9033 32.5184 37.4525 32.5034 38.0801C32.4883 38.7077 32.2448 39.2568 31.7729 39.7275C31.3009 40.1982 30.7517 40.4336 30.1254 40.4336C29.499 40.4336 28.9499 40.1982 28.4779 39.7275L13.9803 25.2769C13.6037 24.9004 13.3213 24.4767 13.133 24.006C12.9447 23.5353 12.8506 23.0646 12.8506 22.5939C12.8506 22.1232 12.9447 21.6525 13.133 21.1818C13.3213 20.7111 13.6037 20.2875 13.9803 19.9109L28.4779 5.41326C28.9486 4.94255 29.5059 4.71473 30.1499 4.7298C30.7938 4.74486 31.3505 4.98837 31.8199 5.46033C32.2894 5.93229 32.5247 6.48144 32.526 7.10779C32.5272 7.73414 32.2919 8.28329 31.8199 8.75525L17.9813 22.5939Z" fill="black"/>
</svg>