<svg xmlns="http://www.w3.org/2000/svg" width="35" height="35" viewBox="0 0 35 35" fill="currentColor">
<path d="M21.1862 17.7892L10.8072 28.1682C10.4542 28.5212 10.2833 28.9331 10.2946 29.4038C10.3059 29.8745 10.4885 30.2864 10.8425 30.6394C11.1964 30.9924 11.6083 31.1689 12.0781 31.1689C12.5478 31.1689 12.9597 30.9924 13.3137 30.6394L24.1869 19.8014C24.4693 19.519 24.6812 19.2013 24.8224 18.8483C24.9636 18.4952 25.0342 18.1422 25.0342 17.7892C25.0342 17.4362 24.9636 17.0831 24.8224 16.7301C24.6812 16.3771 24.4693 16.0594 24.1869 15.7769L13.3137 4.90369C12.9606 4.55066 12.5427 4.37979 12.0597 4.39109C11.5768 4.40239 11.1593 4.58502 10.8072 4.93899C10.4551 5.29296 10.2786 5.70482 10.2776 6.17458C10.2767 6.64435 10.4532 7.05621 10.8072 7.41018L21.1862 17.7892Z" fill="black"/>
</svg>