<svg xmlns="http://www.w3.org/2000/svg" width="46" height="46" viewBox="0 0 46 46" fill="currentColor">
<path d="M30.3457 4.74294C30.729 4.74475 31.0737 4.87755 31.3457 5.14919C31.6177 5.4212 31.7523 5.76758 31.7559 6.15114V8.94411H34.6152C35.5986 8.94415 36.4446 9.27934 37.1191 9.95388C37.7933 10.6282 38.128 11.473 38.127 12.4558V36.4988C38.1268 37.4816 37.7921 38.3263 37.1191 39.0008C36.5294 39.5918 35.8075 39.9218 34.9756 39.9939L34.6133 40.0105H10.5742C9.59005 40.0105 8.74397 39.6744 8.07031 39.0008C7.48129 38.4115 7.15131 37.6912 7.07715 36.8611L7.06055 36.4988V12.4539C7.06074 11.4708 7.39559 10.6252 8.07031 9.95192C8.74454 9.27925 9.58983 8.94574 10.5723 8.94411H13.4336V6.22829C13.4336 5.82173 13.573 5.45719 13.8604 5.1697C14.1474 4.88269 14.5111 4.74306 14.917 4.74294C15.3231 4.74294 15.6886 4.88164 15.9766 5.16774C16.2656 5.4551 16.4046 5.82097 16.4033 6.22829V8.94411H28.9316V6.157C28.9317 5.77176 29.0658 5.42522 29.3379 5.15114C29.6115 4.87587 29.9588 4.74113 30.3457 4.74294ZM10.5742 39.5398H34.6133L34.7764 39.532C34.7226 39.5342 34.6682 39.5389 34.6133 39.5388H10.5742C10.4703 39.5388 10.3683 39.5335 10.2686 39.5252L10.5742 39.5398ZM9.96582 39.4861C10.0542 39.5018 10.1444 39.5137 10.2363 39.5222C10.1444 39.5137 10.0543 39.5018 9.96582 39.4861ZM35.0117 39.5154C35.0721 39.5088 35.1316 39.5007 35.1904 39.491C35.1316 39.5007 35.0721 39.5088 35.0117 39.5154ZM9.69043 39.4236C9.75444 39.4412 9.81971 39.455 9.88574 39.4685C9.8197 39.455 9.75445 39.4412 9.69043 39.4236ZM35.3115 39.4675C35.3616 39.4572 35.411 39.446 35.46 39.4334C35.411 39.4461 35.3616 39.4572 35.3115 39.4675ZM35.5889 39.3992C35.5964 39.3969 35.6038 39.3938 35.6113 39.3914C35.6038 39.3938 35.5964 39.3969 35.5889 39.3992ZM9.47461 39.3562C9.47858 39.3577 9.48234 39.3597 9.48633 39.3611C9.48234 39.3597 9.47859 39.3577 9.47461 39.3562ZM35.9785 39.2459C35.9976 39.2367 36.0163 39.2271 36.0352 39.2175C36.0163 39.2271 35.9976 39.2367 35.9785 39.2459ZM8.69727 38.9246C8.74369 38.9606 8.78989 38.9962 8.83789 39.0291C8.78988 38.9962 8.74369 38.9606 8.69727 38.9246ZM8.40234 38.6687C8.4689 38.7353 8.53805 38.7973 8.6084 38.8562C8.53823 38.7974 8.46972 38.7351 8.40332 38.6687C8.33991 38.6053 8.2811 38.5393 8.22461 38.4724C8.28095 38.5391 8.33913 38.6055 8.40234 38.6687ZM36.7861 38.6687L36.9668 38.4724C36.9712 38.4673 36.9742 38.461 36.9785 38.4558C36.9181 38.5285 36.8547 38.6 36.7861 38.6687ZM37.0449 38.3699C37.0774 38.3279 37.1097 38.2862 37.1396 38.2429C37.1098 38.2863 37.0774 38.3279 37.0449 38.3699ZM37.2588 38.0574C37.2658 38.0454 37.2725 38.0333 37.2793 38.0213C37.2725 38.0333 37.2658 38.0454 37.2588 38.0574ZM9.88477 36.4988C9.88491 36.6402 9.9394 36.7907 10.1094 36.9617C10.2785 37.1317 10.4288 37.1868 10.5703 37.1863L10.5723 37.656H10.5742V37.1863H34.6152C34.7569 37.1863 34.9087 37.1302 35.0801 36.9597C35.2491 36.7914 35.3032 36.6419 35.3027 36.4988V20.4578H9.88477V36.4988ZM10.4648 37.6511C10.4948 37.6542 10.5251 37.6547 10.5557 37.655L10.3594 37.6345L10.4648 37.6511ZM37.4707 37.6062C37.475 37.5945 37.4793 37.5828 37.4834 37.5711C37.4793 37.5828 37.475 37.5945 37.4707 37.6062ZM35.6172 37.0369C35.5626 37.1256 35.4944 37.2119 35.4111 37.2947L35.2256 37.4529C35.1804 37.4851 35.1336 37.5123 35.0869 37.5369C35.1993 37.4779 35.3083 37.398 35.4121 37.2947C35.4952 37.212 35.5627 37.1255 35.6172 37.0369ZM9.65918 37.1629C9.69437 37.2073 9.73261 37.2517 9.77539 37.2947C9.86562 37.3854 9.95954 37.4588 10.0566 37.5154L9.95996 37.4529L9.77637 37.2947C9.73345 37.2516 9.69455 37.2075 9.65918 37.1629ZM37.6025 37.1111C37.6198 37.0151 37.6348 36.9173 37.6436 36.8172L37.6562 36.4988V36.4978C37.6562 36.7108 37.6376 36.9154 37.6025 37.1111ZM9.41406 36.4998C9.41424 36.616 9.43534 36.728 9.47461 36.8367C9.45941 36.7948 9.44585 36.7527 9.43652 36.7097L9.41406 36.4998ZM35.7734 36.4968C35.7736 36.533 35.7722 36.5689 35.7686 36.6043C35.7722 36.5687 35.7736 36.5322 35.7734 36.4959V36.4968ZM15.0605 22.7742C15.5824 22.7725 16.0398 22.9726 16.4121 23.3465C16.7831 23.7191 16.9822 24.1747 16.9824 24.6941C16.9824 25.2137 16.7836 25.67 16.4121 26.0418C16.04 26.4139 15.5831 26.614 15.0625 26.614C14.5419 26.614 14.085 26.4139 13.7129 26.0418C13.341 25.6697 13.1426 25.2126 13.1426 24.6922C13.1428 24.172 13.3406 23.7154 13.7129 23.3445C14.0847 22.9743 14.5414 22.776 15.0605 22.7742ZM22.5918 22.7742C23.1136 22.7725 23.5711 22.9726 23.9434 23.3465C24.3144 23.7191 24.5135 24.1747 24.5137 24.6941C24.5137 25.2137 24.3149 25.67 23.9434 26.0418C23.5712 26.4139 23.1144 26.614 22.5938 26.614C22.0731 26.614 21.6163 26.4139 21.2441 26.0418C20.8723 25.6697 20.6738 25.2126 20.6738 24.6922C20.674 24.172 20.8718 23.7154 21.2441 23.3445C21.616 22.9743 22.0726 22.776 22.5918 22.7742ZM30.123 22.7742C30.6449 22.7725 31.1023 22.9726 31.4746 23.3465C31.8456 23.7191 32.0447 24.1747 32.0449 24.6941C32.0449 25.2137 31.8461 25.67 31.4746 26.0418C31.1025 26.4139 30.6456 26.614 30.125 26.614C29.6044 26.614 29.1475 26.4139 28.7754 26.0418C28.4035 25.6697 28.2051 25.2126 28.2051 24.6922C28.2053 24.172 28.4031 23.7154 28.7754 23.3445C29.1472 22.9743 29.6039 22.776 30.123 22.7742ZM15.3184 26.1189C15.2355 26.1337 15.1505 26.1424 15.0625 26.1424C15.0556 26.1424 15.0488 26.1415 15.042 26.1414L15.0625 26.1433C15.1505 26.1433 15.2355 26.1338 15.3184 26.1189ZM22.8496 26.1189C22.7668 26.1337 22.6817 26.1424 22.5938 26.1424C22.5869 26.1424 22.5801 26.1415 22.5732 26.1414L22.5938 26.1433C22.6817 26.1433 22.7668 26.1338 22.8496 26.1189ZM30.3809 26.1189C30.298 26.1337 30.213 26.1424 30.125 26.1424C30.1181 26.1424 30.1113 26.1415 30.1045 26.1414L30.125 26.1433C30.213 26.1433 30.298 26.1338 30.3809 26.1189ZM14.6602 26.0847C14.6994 26.0964 14.7388 26.1079 14.7793 26.116C14.7388 26.1079 14.6994 26.0964 14.6602 26.0847ZM22.1914 26.0847C22.2306 26.0964 22.2701 26.1079 22.3105 26.116C22.2701 26.1079 22.2307 26.0964 22.1914 26.0847ZM29.7227 26.0847C29.7619 26.0964 29.8013 26.1079 29.8418 26.116C29.8013 26.1079 29.7619 26.0964 29.7227 26.0847ZM15.5879 26.0418C15.5159 26.0711 15.4418 26.0937 15.3652 26.1101C15.4417 26.0936 15.5159 26.0712 15.5879 26.0418ZM23.1191 26.0418C23.0471 26.0711 22.973 26.0937 22.8965 26.1101C22.973 26.0936 23.0471 26.0712 23.1191 26.0418ZM30.6504 26.0418C30.5784 26.0711 30.5043 26.0937 30.4277 26.1101C30.5042 26.0936 30.5784 26.0712 30.6504 26.0418ZM14.5498 26.0466C14.5715 26.0552 14.5932 26.0637 14.6152 26.0711C14.5931 26.0637 14.5715 26.0552 14.5498 26.0466ZM22.0811 26.0466C22.1027 26.0552 22.1244 26.0637 22.1465 26.0711C22.1244 26.0637 22.1027 26.0552 22.0811 26.0466ZM29.6123 26.0466C29.634 26.0552 29.6557 26.0637 29.6777 26.0711C29.6556 26.0637 29.634 26.0552 29.6123 26.0466ZM14.2852 25.907C14.3539 25.9534 14.4246 25.9935 14.498 26.0261C14.4245 25.9935 14.3539 25.9534 14.2852 25.907ZM21.8164 25.907C21.8851 25.9534 21.9558 25.9935 22.0293 26.0261C21.9558 25.9935 21.8851 25.9534 21.8164 25.907ZM29.3477 25.907C29.4164 25.9534 29.4871 25.9935 29.5605 26.0261C29.487 25.9935 29.4164 25.9534 29.3477 25.907ZM15.6406 26.0183C15.6618 26.0086 15.6824 25.9979 15.7031 25.9871C15.6824 25.9979 15.6618 26.0086 15.6406 26.0183ZM23.1719 26.0183C23.193 26.0086 23.2136 25.9979 23.2344 25.9871C23.2136 25.9979 23.193 26.0086 23.1719 26.0183ZM30.7031 26.0183C30.7243 26.0086 30.7449 25.9979 30.7656 25.9871C30.7449 25.9979 30.7243 26.0086 30.7031 26.0183ZM15.749 25.9627C15.7701 25.9506 15.7909 25.9379 15.8115 25.9246C15.7908 25.9378 15.7701 25.9506 15.749 25.9627ZM23.2803 25.9627C23.3014 25.9506 23.3221 25.9379 23.3428 25.9246C23.3221 25.9378 23.3014 25.9506 23.2803 25.9627ZM30.8115 25.9627C30.8326 25.9506 30.8534 25.9379 30.874 25.9246C30.8533 25.9378 30.8326 25.9506 30.8115 25.9627ZM14.1982 25.8435C14.2141 25.8559 14.23 25.868 14.2461 25.8797C14.23 25.868 14.2141 25.8559 14.1982 25.8435ZM21.7295 25.8435C21.7453 25.8559 21.7612 25.868 21.7773 25.8797C21.7612 25.868 21.7453 25.8559 21.7295 25.8435ZM29.2607 25.8435C29.2766 25.8559 29.2925 25.868 29.3086 25.8797C29.2925 25.868 29.2766 25.8559 29.2607 25.8435ZM13.8711 25.5037C13.8841 25.5219 13.8981 25.5395 13.9121 25.5574C13.8981 25.5395 13.8841 25.5219 13.8711 25.5037ZM21.4023 25.5037C21.4154 25.5219 21.4293 25.5395 21.4434 25.5574C21.4294 25.5395 21.4154 25.5219 21.4023 25.5037ZM28.9336 25.5037C28.9466 25.5219 28.9606 25.5395 28.9746 25.5574C28.9606 25.5395 28.9466 25.5219 28.9336 25.5037ZM13.7256 25.2498C13.7593 25.3267 13.8009 25.4007 13.8496 25.4724C13.801 25.4007 13.7592 25.3268 13.7256 25.2498ZM21.2568 25.2498C21.2905 25.3267 21.3322 25.4007 21.3809 25.4724C21.3323 25.4007 21.2904 25.3268 21.2568 25.2498ZM28.7881 25.2498C28.8218 25.3267 28.8634 25.4007 28.9121 25.4724C28.8635 25.4007 28.8217 25.3268 28.7881 25.2498ZM13.6631 25.0769C13.6767 25.1255 13.6938 25.1728 13.7129 25.2195C13.6808 25.1408 13.6563 25.0594 13.6396 24.9754L13.6631 25.0769ZM21.1943 25.0769C21.208 25.1255 21.2251 25.1728 21.2441 25.2195C21.2121 25.1408 21.1876 25.0594 21.1709 24.9754L21.1943 25.0769ZM28.7256 25.0769C28.7392 25.1255 28.7563 25.1728 28.7754 25.2195C28.7433 25.1408 28.7188 25.0594 28.7021 24.9754L28.7256 25.0769ZM16.4971 24.4978C16.4954 24.4857 16.4941 24.4737 16.4922 24.4617C16.4941 24.4737 16.4954 24.4857 16.4971 24.4978ZM24.0283 24.4978C24.0267 24.4857 24.0254 24.4737 24.0234 24.4617C24.0254 24.4737 24.0267 24.4857 24.0283 24.4978ZM31.5596 24.4978C31.5579 24.4857 31.5566 24.4737 31.5547 24.4617C31.5566 24.4737 31.5579 24.4857 31.5596 24.4978ZM16.4111 24.1697C16.4403 24.2412 16.4631 24.3146 16.4795 24.3904C16.4631 24.3146 16.4402 24.2412 16.4111 24.1697ZM23.9424 24.1697C23.9715 24.2412 23.9943 24.3146 24.0107 24.3904C23.9944 24.3146 23.9714 24.2412 23.9424 24.1697ZM31.4736 24.1697C31.5028 24.2412 31.5256 24.3146 31.542 24.3904C31.5257 24.3146 31.5027 24.2412 31.4736 24.1697ZM16.3877 24.117C16.378 24.0958 16.3673 24.0752 16.3564 24.0545C16.3673 24.0752 16.378 24.0958 16.3877 24.117ZM23.9189 24.117C23.9093 24.0958 23.8985 24.0752 23.8877 24.0545C23.8985 24.0752 23.9093 24.0958 23.9189 24.117ZM31.4502 24.117C31.4405 24.0958 31.4298 24.0752 31.4189 24.0545C31.4298 24.0752 31.4405 24.0958 31.4502 24.117ZM14.0459 23.6775C13.9377 23.7852 13.8497 23.9001 13.7822 24.0222C13.8498 23.9004 13.9379 23.786 14.0459 23.6785C14.082 23.6426 14.1186 23.6084 14.1562 23.5769L14.0459 23.6775ZM21.5771 23.6775C21.469 23.7852 21.381 23.9001 21.3135 24.0222C21.3811 23.9004 21.4691 23.786 21.5771 23.6785C21.6132 23.6426 21.6499 23.6084 21.6875 23.5769L21.5771 23.6775ZM29.1084 23.6775C29.0002 23.7852 28.9122 23.9001 28.8447 24.0222C28.9123 23.9004 29.0004 23.786 29.1084 23.6785C29.1445 23.6426 29.1811 23.6084 29.2188 23.5769L29.1084 23.6775ZM16.0791 23.6785C16.0819 23.6813 16.0842 23.6845 16.0869 23.6873L16.0791 23.6775C16.0461 23.6444 16.0118 23.614 15.9775 23.5847C16.0119 23.6141 16.046 23.6453 16.0791 23.6785ZM23.6104 23.6785C23.6131 23.6813 23.6154 23.6845 23.6182 23.6873L23.6104 23.6775C23.5774 23.6444 23.5431 23.614 23.5088 23.5847C23.5432 23.6141 23.5773 23.6453 23.6104 23.6785ZM31.1416 23.6785C31.1444 23.6813 31.1467 23.6845 31.1494 23.6873L31.1416 23.6775C31.1086 23.6444 31.0743 23.614 31.04 23.5847C31.0744 23.6141 31.1085 23.6453 31.1416 23.6785ZM15.9531 23.5642C15.9222 23.5388 15.8913 23.5143 15.8594 23.492C15.8913 23.5143 15.9222 23.5389 15.9531 23.5642ZM23.4844 23.5642C23.4535 23.5388 23.4226 23.5143 23.3906 23.492C23.4226 23.5143 23.4535 23.5389 23.4844 23.5642ZM31.0156 23.5642C30.9847 23.5388 30.9538 23.5143 30.9219 23.492C30.9538 23.5143 30.9847 23.5389 31.0156 23.5642ZM15.6123 23.3543C15.6943 23.3895 15.7735 23.4328 15.8496 23.4851C15.7735 23.4328 15.6943 23.3895 15.6123 23.3543ZM23.1436 23.3543C23.2255 23.3895 23.3048 23.4328 23.3809 23.4851C23.3047 23.4328 23.2255 23.3895 23.1436 23.3543ZM30.6748 23.3543C30.7568 23.3895 30.836 23.4328 30.9121 23.4851C30.836 23.4328 30.7568 23.3895 30.6748 23.3543ZM15.4785 23.3045C15.435 23.2911 15.3907 23.2801 15.3457 23.2713L15.3428 23.2703C15.3888 23.2793 15.4341 23.2908 15.4785 23.3045ZM23.0098 23.3045C22.9663 23.2911 22.922 23.2801 22.877 23.2713L22.874 23.2703C22.9201 23.2793 22.9653 23.2908 23.0098 23.3045ZM30.541 23.3045C30.4975 23.2911 30.4532 23.2801 30.4082 23.2713L30.4053 23.2703C30.4513 23.2793 30.4966 23.2908 30.541 23.3045ZM9.41406 18.1023L35.7734 18.1033V18.1023H9.41406ZM10.5742 11.7683C10.4307 11.7683 10.2784 11.8229 10.1074 11.9929C9.93843 12.1613 9.88432 12.3108 9.88477 12.4539V17.6316H35.3027V12.4539C35.3025 12.3125 35.2481 12.1619 35.0781 11.991C34.9094 11.8214 34.7586 11.7678 34.6152 11.7683H10.5742ZM37.6562 12.4568V12.4558C37.6564 12.3549 37.6513 12.256 37.6436 12.159C37.6514 12.2562 37.6564 12.3556 37.6562 12.4568ZM7.54395 12.158C7.53607 12.2547 7.53127 12.3533 7.53125 12.4539C7.53127 12.3533 7.53608 12.2547 7.54395 12.158ZM9.5166 12.0125C9.47555 12.0969 9.4469 12.1837 9.43066 12.2732C9.44685 12.1836 9.4756 12.0969 9.5166 12.0125ZM37.6318 12.0525C37.6248 11.9898 37.6169 11.928 37.6064 11.867C37.6169 11.928 37.6248 11.9898 37.6318 12.0525ZM7.58105 11.867C7.57135 11.9235 7.5644 11.9809 7.55762 12.0388C7.56439 11.9808 7.57137 11.9235 7.58105 11.867ZM9.77637 11.658H9.77539H9.77637ZM35.2256 11.4998C35.2889 11.545 35.3509 11.5975 35.4111 11.658C35.4627 11.7098 35.5082 11.7632 35.5488 11.8172C35.5084 11.7634 35.4635 11.7097 35.4121 11.658C35.3517 11.5973 35.2891 11.5452 35.2256 11.4998ZM7.64648 11.574C7.62929 11.6365 7.61485 11.7 7.60156 11.7644C7.61483 11.7 7.62931 11.6365 7.64648 11.574ZM37.582 11.7449C37.5713 11.6942 37.5601 11.644 37.5469 11.5945C37.5601 11.644 37.5713 11.6942 37.582 11.7449ZM10.5742 11.2966C10.5018 11.2966 10.4307 11.3051 10.3613 11.3201L10.5742 11.2976H34.6133C34.7225 11.2972 34.8285 11.3128 34.9307 11.3465C34.8285 11.3127 34.7225 11.2962 34.6133 11.2966H10.5742ZM37.2881 10.948C37.2836 10.9399 37.279 10.9317 37.2744 10.9236C37.279 10.9317 37.2836 10.9399 37.2881 10.948ZM8.15527 10.5662C8.11209 10.621 8.06995 10.6761 8.03125 10.7332C8.06994 10.6761 8.11209 10.6211 8.15527 10.5662ZM8.61426 10.0935C8.54183 10.1538 8.47081 10.2176 8.40234 10.2859L8.3457 10.3484C8.36513 10.328 8.38319 10.306 8.40332 10.2859C8.47164 10.2177 8.542 10.1537 8.61426 10.0935ZM36.7861 10.2859C36.7174 10.2172 36.646 10.1532 36.5732 10.0925C36.646 10.1532 36.7174 10.2171 36.7861 10.2859ZM36.5029 10.0379C36.4536 9.99915 36.4046 9.96066 36.3535 9.92556C36.4046 9.96066 36.4536 9.99914 36.5029 10.0379ZM8.83398 9.92751C8.78548 9.96083 8.73831 9.99641 8.69141 10.033C8.73832 9.99641 8.78547 9.96082 8.83398 9.92751ZM9.03613 9.80056C9.02881 9.80474 9.02096 9.80803 9.01367 9.81227C9.02097 9.80803 9.0288 9.80473 9.03613 9.80056ZM36.1748 9.8113C36.1675 9.80705 36.1597 9.80376 36.1523 9.79958C36.1597 9.80376 36.1675 9.80705 36.1748 9.8113ZM9.60547 9.55544C9.54537 9.57402 9.48602 9.59371 9.42773 9.61598C9.48603 9.59374 9.54536 9.57399 9.60547 9.55544ZM9.90039 9.48122C9.82662 9.49606 9.7539 9.51209 9.68262 9.532C9.7539 9.51212 9.82661 9.49603 9.90039 9.48122ZM35.4951 9.52809C35.4346 9.51149 35.3729 9.49807 35.3105 9.48513C35.3729 9.49806 35.4346 9.5115 35.4951 9.52809ZM9.98828 9.46266C9.98047 9.464 9.97263 9.46517 9.96484 9.46657C10.0598 9.44957 10.1568 9.43628 10.2559 9.42751L9.98828 9.46266ZM31.2451 5.86989C31.2623 5.92885 31.2741 5.99073 31.2803 6.05544C31.2741 5.99077 31.2624 5.92888 31.2451 5.86989ZM13.9189 6.03981C13.916 6.05844 13.9141 6.07735 13.9121 6.09645C13.9142 6.07736 13.916 6.05843 13.9189 6.03981ZM15.9229 6.08278C15.9217 6.07293 15.9203 6.0632 15.9189 6.05348C15.9203 6.06321 15.9217 6.07293 15.9229 6.08278ZM14.0088 5.75661C14.0008 5.77267 13.9934 5.78889 13.9863 5.80544C13.9934 5.78891 14.0008 5.77266 14.0088 5.75661ZM15.8447 5.79079C15.841 5.78254 15.8369 5.77451 15.833 5.76638C15.8369 5.77451 15.841 5.78253 15.8447 5.79079ZM31.0186 5.48806C31.0829 5.55333 31.1358 5.62447 31.1768 5.70192C31.1357 5.62441 31.0827 5.5533 31.0186 5.48806ZM29.8145 5.36403C29.8396 5.3472 29.8651 5.33117 29.8916 5.31716C29.8383 5.34521 29.7879 5.37926 29.7402 5.41872L29.8145 5.36403ZM30.9209 5.40212C30.911 5.39454 30.9007 5.38775 30.8906 5.38063C30.9007 5.38776 30.9111 5.39453 30.9209 5.40212ZM37.541 37.3787C37.563 37.2985 37.5821 37.2169 37.5977 37.1336C37.5821 37.2169 37.563 37.2985 37.541 37.3787ZM15.5928 23.3465C15.5565 23.3315 15.5198 23.318 15.4824 23.3064C15.5198 23.318 15.5565 23.3316 15.5928 23.3465ZM23.124 23.3465C23.0877 23.3315 23.0511 23.318 23.0137 23.3064C23.0511 23.318 23.0878 23.3316 23.124 23.3465ZM30.6553 23.3465C30.619 23.3315 30.5823 23.318 30.5449 23.3064C30.5823 23.318 30.619 23.3316 30.6553 23.3465Z" fill="#767676"/>
</svg>