<svg xmlns="http://www.w3.org/2000/svg" width="31" height="31" viewBox="0 0 31 31" fill="currentColor">
<path d="M20.999 2.71095C21.3105 2.71271 21.596 2.82162 21.8203 3.04591C22.0447 3.27028 22.1542 3.55581 22.1572 3.8672V5.79103H24.1279C24.8803 5.79103 25.5332 6.049 26.0527 6.56837C26.5074 7.02304 26.7627 7.57972 26.8184 8.21583L26.8291 8.49318V26.125C26.8288 26.8767 26.571 27.5284 26.0527 28.0479C25.5335 28.5682 24.8801 28.8253 24.126 28.8242H6.49902C5.74612 28.8242 5.09227 28.5669 4.57324 28.0479C4.11955 27.594 3.8657 27.0383 3.80859 26.4024L3.7959 26.125V8.4922C3.79594 7.73984 4.05345 7.08712 4.57324 6.56837C5.09268 6.05006 5.74521 5.79218 6.49707 5.79103H8.46973V3.92677C8.46973 3.59808 8.58302 3.29689 8.81934 3.06056C9.05524 2.8247 9.35522 2.71095 9.68359 2.71095C10.0116 2.71104 10.3116 2.82412 10.5479 3.05861C10.7855 3.29487 10.8995 3.59719 10.8984 3.92677V5.79103H19.835V3.87306C19.8351 3.55968 19.945 3.27363 20.1689 3.04787C20.3947 2.82076 20.6837 2.70948 20.999 2.71095ZM5.84375 28.2676C5.97768 28.3049 6.11757 28.331 6.26367 28.3438L6.38086 28.3486C6.19207 28.3407 6.01318 28.3146 5.84375 28.2676ZM5.6582 28.2061C5.69984 28.2219 5.74224 28.2357 5.78516 28.249C5.74223 28.2358 5.69986 28.2219 5.6582 28.2061ZM5.47656 28.126C5.5088 28.142 5.54114 28.1576 5.57422 28.1719C5.54112 28.1576 5.50882 28.142 5.47656 28.126ZM5.30566 28.0313C5.33439 28.0491 5.36312 28.0667 5.39258 28.083C5.36309 28.0667 5.33442 28.0491 5.30566 28.0313ZM5.15039 27.9248C5.17187 27.941 5.19292 27.9574 5.21484 27.9727C5.19289 27.9575 5.17189 27.9409 5.15039 27.9248ZM25.7949 27.6338C25.8162 27.6105 25.8374 27.5874 25.8574 27.5635C25.8374 27.5874 25.8161 27.6104 25.7949 27.6338ZM25.9111 27.4951C25.9358 27.4632 25.9598 27.4313 25.9824 27.3985C25.9599 27.4314 25.9357 27.4632 25.9111 27.4951ZM26.0322 27.3213C26.0512 27.291 26.0696 27.2606 26.0869 27.2295C26.0697 27.2606 26.0511 27.291 26.0322 27.3213ZM26.1299 27.1465C26.1472 27.1118 26.1634 27.0767 26.1787 27.041C26.1635 27.0767 26.1471 27.1118 26.1299 27.1465ZM24.1279 26.9727L24.207 26.9688C24.2179 26.9676 24.2285 26.9646 24.2393 26.9629C24.2027 26.9684 24.1656 26.9727 24.1279 26.9727ZM6.11816 26.125C6.11841 26.1896 6.14138 26.2707 6.24707 26.377C6.35159 26.4817 6.43099 26.5022 6.49512 26.502L6.49707 26.9727H6.49902V26.502H24.1279C24.1925 26.502 24.2734 26.4807 24.3799 26.375C24.4847 26.2707 24.507 26.1907 24.5068 26.125V14.4873H6.11816V26.125ZM6.35742 26.959C6.40285 26.9676 6.4489 26.9729 6.49609 26.9727H6.49707L6.35742 26.959ZM24.4648 26.8906C24.3954 26.9258 24.3238 26.9487 24.25 26.961C24.3238 26.9485 24.3954 26.926 24.4648 26.8906ZM26.2139 26.9561C26.2333 26.9046 26.2511 26.8523 26.2666 26.7988C26.2512 26.8523 26.2332 26.9045 26.2139 26.9561ZM24.4756 26.8848C24.5094 26.8669 24.5434 26.8476 24.5762 26.8242L24.5771 26.8233C24.5442 26.8468 24.5097 26.8669 24.4756 26.8848ZM26.3184 26.5742C26.3312 26.5031 26.3432 26.4307 26.3496 26.3565L26.3584 26.125V26.124C26.3584 26.2805 26.3442 26.4304 26.3184 26.5742ZM5.64746 26.125C5.64759 26.212 5.66339 26.2957 5.69336 26.377C5.68149 26.3448 5.67125 26.3124 5.66406 26.2793L5.64746 26.125ZM9.78809 15.9346C10.206 15.9333 10.5739 16.0942 10.8691 16.3906C11.163 16.686 11.3232 17.0527 11.3232 17.4688C11.3231 17.8849 11.1619 18.2512 10.8672 18.5459C10.5723 18.8405 10.2063 18.9999 9.79004 19C9.37331 19 9.00603 18.8409 8.71094 18.5459C8.41588 18.2509 8.25693 17.8835 8.25684 17.4668C8.25691 17.05 8.41718 16.6831 8.71289 16.3887C9.00772 16.0955 9.37281 15.9359 9.78809 15.9346ZM15.3115 15.9346C15.7292 15.9334 16.0955 16.0944 16.3906 16.3906C16.6848 16.6861 16.8467 17.0525 16.8467 17.4688C16.8465 17.8849 16.6853 18.2512 16.3906 18.5459C16.0956 18.8407 15.7282 19 15.3115 19C14.8953 18.9998 14.5292 18.8405 14.2344 18.5459C13.9393 18.2509 13.7784 17.8835 13.7783 17.4668C13.7784 17.0501 13.9389 16.6831 14.2344 16.3887C14.5293 16.0952 14.896 15.9359 15.3115 15.9346ZM20.833 15.9346C21.251 15.9332 21.6188 16.0942 21.9141 16.3906C22.2082 16.6861 22.3682 17.0525 22.3682 17.4688C22.368 17.8849 22.2087 18.2512 21.9141 18.5459C21.619 18.8409 21.2517 19 20.835 19C20.4186 18.9999 20.0527 18.8404 19.7578 18.5459C19.4628 18.2509 19.3019 17.8835 19.3018 17.4668C19.3018 17.05 19.4621 16.6831 19.7578 16.3887C20.0525 16.0954 20.4179 15.9361 20.833 15.9346ZM15.457 18.5186C15.4652 18.5175 15.4733 18.516 15.4814 18.5147C15.4733 18.516 15.4652 18.5175 15.457 18.5186ZM20.9785 18.5186C20.988 18.5173 20.9974 18.5162 21.0068 18.5147C20.9974 18.5162 20.988 18.5173 20.9785 18.5186ZM9.58203 18.5108L9.59668 18.5117C9.58052 18.5088 9.56472 18.5047 9.54883 18.501C9.56002 18.5036 9.57071 18.5085 9.58203 18.5108ZM15.085 18.5039C15.0938 18.5059 15.1024 18.5091 15.1113 18.5108C15.1024 18.509 15.0938 18.5059 15.085 18.5039ZM9.40918 18.458C9.42653 18.465 9.44422 18.4706 9.46191 18.4766C9.44423 18.4707 9.42651 18.465 9.40918 18.458ZM10.2285 18.4317C10.2339 18.4291 10.2388 18.4255 10.2441 18.4229C10.2388 18.4255 10.2339 18.4291 10.2285 18.4317ZM21.2744 18.4317C21.2801 18.429 21.2854 18.4257 21.291 18.4229C21.2854 18.4257 21.2801 18.429 21.2744 18.4317ZM15.7529 18.4307C15.7562 18.4291 15.7594 18.4274 15.7627 18.4258C15.7594 18.4274 15.7562 18.4291 15.7529 18.4307ZM9.27734 18.3936C9.28961 18.4007 9.30199 18.4075 9.31445 18.4141C9.30199 18.4075 9.28961 18.4007 9.27734 18.3936ZM14.4922 18.1319C14.5154 18.1595 14.5409 18.1864 14.5674 18.2129C14.6199 18.2653 14.6744 18.3113 14.7314 18.3506C14.6743 18.3111 14.619 18.2645 14.5664 18.2119C14.5402 18.1857 14.5152 18.1592 14.4922 18.1319ZM9.14746 18.3037C9.16102 18.3145 9.17465 18.3249 9.18848 18.335C9.17466 18.3249 9.16101 18.3145 9.14746 18.3037ZM20.0898 18.2129C20.1162 18.2392 20.1434 18.2641 20.1709 18.2871C20.1432 18.2639 20.1164 18.2385 20.0898 18.2119C20.0833 18.2054 20.0776 18.198 20.0713 18.1914C20.0778 18.1982 20.0831 18.2062 20.0898 18.2129ZM9.04395 18.2129C9.05034 18.2193 9.05799 18.2243 9.06445 18.2305C9.0579 18.2242 9.05043 18.2184 9.04395 18.2119C9.03509 18.2031 9.02704 18.1936 9.01855 18.1846C9.02714 18.1937 9.03499 18.2039 9.04395 18.2129ZM10.5352 18.2119C10.532 18.2151 10.5276 18.2176 10.5244 18.2207L10.5352 18.2129C10.5417 18.2063 10.5464 18.198 10.5527 18.1914C10.5465 18.1979 10.5415 18.2055 10.5352 18.2119ZM16.0576 18.2119C16.0543 18.2152 16.0502 18.2175 16.0469 18.2207L16.0576 18.2129C16.0666 18.2039 16.0744 18.1937 16.083 18.1846C16.0745 18.1936 16.0665 18.2031 16.0576 18.2119ZM21.5811 18.2119C21.5779 18.2151 21.5735 18.2176 21.5703 18.2207L21.5811 18.2129C21.59 18.2039 21.5979 18.1937 21.6064 18.1846C21.598 18.1936 21.5899 18.2031 21.5811 18.2119ZM8.91895 18.0654C8.93067 18.0817 8.94326 18.0974 8.95605 18.1133C8.94326 18.0974 8.93067 18.0817 8.91895 18.0654ZM21.668 18.1133C21.6808 18.0974 21.6933 18.0817 21.7051 18.0654C21.6933 18.0817 21.6808 18.0974 21.668 18.1133ZM10.6279 18.1055C10.6362 18.095 10.6445 18.0848 10.6523 18.0742C10.6445 18.0848 10.6362 18.0951 10.6279 18.1055ZM19.9717 18.0742C19.9795 18.0848 19.9878 18.095 19.9961 18.1055C19.9878 18.0951 19.9795 18.0848 19.9717 18.0742ZM16.1523 18.1045C16.1603 18.0944 16.1682 18.0845 16.1758 18.0742C16.1682 18.0845 16.1603 18.0944 16.1523 18.1045ZM8.83789 17.9336C8.84717 17.9516 8.85772 17.9688 8.86816 17.9863C8.85772 17.9688 8.84717 17.9515 8.83789 17.9336ZM14.373 17.959C14.34 17.8992 14.3138 17.8369 14.2939 17.7725C14.3138 17.8369 14.34 17.8992 14.373 17.959ZM21.8262 17.8467C21.8337 17.828 21.8404 17.8092 21.8467 17.7901C21.8404 17.8091 21.8337 17.828 21.8262 17.8467ZM16.3037 17.8447C16.3099 17.8292 16.3159 17.8137 16.3213 17.7979C16.3159 17.8137 16.3099 17.8292 16.3037 17.8447ZM8.78125 17.7998C8.78562 17.8126 8.79002 17.8253 8.79492 17.8379C8.79003 17.8253 8.78561 17.8126 8.78125 17.7998ZM10.7842 17.8369C10.7889 17.8247 10.7926 17.8122 10.7969 17.7998C10.7926 17.8122 10.7889 17.8247 10.7842 17.8369ZM19.8291 17.8067C19.8322 17.8155 19.8355 17.8243 19.8389 17.833C19.8355 17.8243 19.8322 17.8155 19.8291 17.8067ZM16.3662 17.335C16.364 17.3175 16.3614 17.3004 16.3584 17.2832C16.3614 17.3004 16.3641 17.3176 16.3662 17.335ZM14.2656 17.2793C14.2624 17.2974 14.2601 17.3156 14.2578 17.334C14.2601 17.3156 14.2624 17.2974 14.2656 17.2793ZM19.7871 17.2891C19.7848 17.3027 19.783 17.3163 19.7812 17.3301C19.783 17.3163 19.7848 17.3027 19.7871 17.2891ZM14.3086 17.1211C14.2992 17.1475 14.2903 17.174 14.2832 17.2012C14.2903 17.174 14.2992 17.1475 14.3086 17.1211ZM16.3193 17.1319C16.3272 17.1547 16.3336 17.1778 16.3398 17.2012C16.3336 17.1778 16.3272 17.1547 16.3193 17.1319ZM14.3633 16.9942C14.3535 17.0128 14.3445 17.0317 14.3359 17.0508C14.3445 17.0317 14.3535 17.0128 14.3633 16.9942ZM19.8857 16.9961C19.8777 17.0114 19.8694 17.0264 19.8623 17.042C19.8695 17.0264 19.8777 17.0114 19.8857 16.9961ZM16.2822 17.041C16.277 17.0297 16.2723 17.0181 16.2666 17.0069C16.2723 17.0181 16.277 17.0297 16.2822 17.041ZM21.8018 17.0322C21.7985 17.0253 21.7945 17.0186 21.791 17.0117C21.7945 17.0186 21.7985 17.0253 21.8018 17.0322ZM9.29785 16.5293C9.20793 16.5786 9.12333 16.6427 9.04395 16.7217C8.99114 16.7743 8.94479 16.8294 8.90527 16.8867C8.94484 16.8297 8.99127 16.7751 9.04395 16.7227C9.12343 16.6435 9.20799 16.5789 9.29785 16.5293ZM10.5352 16.7227C10.6139 16.8017 10.6781 16.8856 10.7275 16.9746C10.678 16.8853 10.614 16.8009 10.5352 16.7217V16.7227ZM14.4268 16.8877C14.4204 16.8969 14.4152 16.9067 14.4092 16.916C14.418 16.9023 14.4269 16.8885 14.4365 16.875L14.4268 16.8877ZM16.1875 16.877C16.1951 16.8877 16.2028 16.8983 16.21 16.9092C16.2057 16.9027 16.2027 16.8951 16.1982 16.8887L16.1875 16.877ZM20.1709 16.6475C20.1433 16.6705 20.1163 16.6954 20.0898 16.7217L20.0791 16.7334C20.0826 16.7298 20.0862 16.7263 20.0898 16.7227C20.1429 16.6699 20.1982 16.6236 20.2559 16.584L20.1709 16.6475ZM16.0576 16.7227V16.7217V16.7227ZM21.5811 16.7227C21.5838 16.7255 21.5861 16.7287 21.5889 16.7315L21.5811 16.7217C21.573 16.7136 21.5638 16.707 21.5557 16.6992C21.5639 16.7071 21.5729 16.7145 21.5811 16.7227ZM14.6475 16.6475L14.6484 16.6485L14.6475 16.6475ZM21.4824 16.6338C21.4654 16.6201 21.4481 16.6072 21.4307 16.5947C21.4481 16.6072 21.4654 16.6201 21.4824 16.6338ZM15.957 16.6328C15.9417 16.6205 15.9268 16.608 15.9111 16.5967C15.9268 16.608 15.9417 16.6205 15.957 16.6328ZM10.4307 16.6299C10.4168 16.6188 10.4029 16.608 10.3887 16.5977C10.4029 16.608 10.4168 16.6188 10.4307 16.6299ZM10.2559 16.5156C10.2738 16.5249 10.2911 16.5355 10.3086 16.5459C10.2911 16.5355 10.2738 16.5249 10.2559 16.5156ZM15.7793 16.5156C15.7972 16.5249 15.8145 16.5355 15.832 16.5459C15.8145 16.5355 15.7972 16.5249 15.7793 16.5156ZM21.3125 16.5205C21.3253 16.5273 21.338 16.5346 21.3506 16.542C21.338 16.5346 21.3253 16.5273 21.3125 16.5205ZM21.21 16.4736C21.1948 16.4677 21.1795 16.4622 21.1641 16.457C21.1795 16.4622 21.1948 16.4677 21.21 16.4736ZM10.1602 16.4727C10.1476 16.4678 10.1349 16.4633 10.1221 16.459C10.1349 16.4633 10.1476 16.4678 10.1602 16.4727ZM15.6836 16.4727C15.671 16.4678 15.6583 16.4634 15.6455 16.459C15.6583 16.4634 15.671 16.4678 15.6836 16.4727ZM15.1201 16.4229C15.0816 16.4299 15.0438 16.4389 15.0068 16.4502L15.1055 16.4258C15.1103 16.4248 15.1152 16.4238 15.1201 16.4229ZM6.49902 8.1133C6.43287 8.1133 6.35138 8.13659 6.24512 8.2422C6.14019 8.34665 6.11788 8.42644 6.11816 8.4922V12.1641H24.5068V8.4922C24.5068 8.42751 24.4841 8.34697 24.3779 8.24025C24.274 8.13589 24.1955 8.11321 24.1299 8.1133H6.49902ZM26.333 8.13771C26.3487 8.2524 26.3586 8.37072 26.3584 8.49318C26.3586 8.37072 26.3487 8.25242 26.333 8.13771ZM4.27539 8.27638C4.27178 8.32138 4.27084 8.36697 4.26953 8.4131C4.27084 8.36697 4.27177 8.32138 4.27539 8.27638ZM4.30566 8.04396C4.29788 8.08761 4.29252 8.13195 4.28711 8.17677C4.29254 8.13196 4.29785 8.0876 4.30566 8.04396ZM4.34961 7.84962C4.33653 7.89768 4.32537 7.94651 4.31543 7.99611C4.3254 7.94652 4.3365 7.89767 4.34961 7.84962ZM6.21973 7.69728C6.15627 7.72309 6.09498 7.75856 6.03516 7.80275C6.09505 7.75861 6.1562 7.72305 6.21973 7.69728ZM4.41797 7.64064C4.39951 7.68828 4.38323 7.73683 4.36816 7.78615C4.38326 7.73686 4.39947 7.68826 4.41797 7.64064ZM6.49805 7.64259C6.40805 7.64259 6.32104 7.65878 6.2373 7.69044C6.2719 7.67739 6.30714 7.66687 6.34277 7.65919L6.49902 7.64259H6.49805ZM24.126 7.64259C24.1568 7.64246 24.1876 7.64388 24.2178 7.64748C24.1879 7.64394 24.1576 7.64246 24.127 7.64259H24.126ZM4.50391 7.45021C4.47863 7.49979 4.4548 7.54999 4.43359 7.60158C4.45483 7.55002 4.4786 7.49976 4.50391 7.45021ZM4.62598 7.2383C4.58876 7.29389 4.55585 7.35172 4.52441 7.41017C4.55587 7.35176 4.58875 7.29386 4.62598 7.2383ZM25.3809 6.62208V6.62111V6.62208ZM5.22266 6.63771C5.18904 6.66078 5.1566 6.68576 5.12402 6.71095C5.1566 6.68576 5.18903 6.66077 5.22266 6.63771ZM5.39648 6.53126C5.36328 6.54957 5.33111 6.56968 5.29883 6.58986C5.33112 6.56968 5.36327 6.54957 5.39648 6.53126ZM5.58105 6.44142C5.5427 6.45784 5.50501 6.47547 5.46777 6.49416C5.50502 6.47548 5.54269 6.45783 5.58105 6.44142ZM5.7627 6.37404C5.72945 6.38476 5.69654 6.39594 5.66406 6.40822C5.69655 6.39595 5.72944 6.38475 5.7627 6.37404ZM5.98535 6.31544C5.94088 6.32476 5.89674 6.33387 5.85352 6.34572C5.89674 6.33387 5.94088 6.32476 5.98535 6.31544ZM21.6855 3.87208V6.26173H21.6865V3.87111C21.6861 3.82634 21.681 3.78349 21.6738 3.7422C21.6809 3.78379 21.6851 3.82701 21.6855 3.87208ZM6.24316 6.27443C6.17953 6.28061 6.117 6.28896 6.05566 6.29982C6.117 6.28896 6.17952 6.28061 6.24316 6.27443ZM10.4268 3.92287C10.4268 3.87577 10.423 3.83068 10.416 3.78712C10.4229 3.83065 10.4268 3.87577 10.4268 3.92287ZM8.9502 3.79494C8.94636 3.82034 8.94586 3.84646 8.94434 3.87306C8.94584 3.84645 8.94639 3.82035 8.9502 3.79494ZM10.4072 3.74708C10.3995 3.71132 10.3906 3.6768 10.3779 3.64357C10.3905 3.67683 10.3996 3.71128 10.4072 3.74708ZM8.9834 3.6631C8.9753 3.6866 8.96864 3.71064 8.96289 3.73537C8.9686 3.71062 8.97533 3.68662 8.9834 3.6631ZM21.6641 3.70021C21.658 3.67434 21.6505 3.64945 21.6416 3.62501C21.6504 3.64948 21.658 3.67431 21.6641 3.70021ZM9.05957 3.5049C9.03626 3.53998 9.01749 3.57756 9.00098 3.61623C9.02556 3.5585 9.05977 3.5068 9.09961 3.45705L9.05957 3.5049ZM10.3662 3.61427C10.362 3.60448 10.3582 3.59454 10.3535 3.58498C10.3582 3.59455 10.362 3.60446 10.3662 3.61427ZM21.6279 3.58693C21.6157 3.55875 21.601 3.53204 21.585 3.50587C21.601 3.53207 21.6158 3.5587 21.6279 3.58693ZM20.502 3.37892C20.4691 3.41202 20.4406 3.44721 20.416 3.48439L20.5029 3.37892C20.5358 3.34587 20.5705 3.31675 20.6074 3.29201L20.502 3.37892ZM10.2158 3.39259C10.184 3.36107 10.1497 3.33408 10.1143 3.30958C10.1497 3.33406 10.184 3.36103 10.2158 3.39259ZM10.083 3.29005C10.0547 3.27262 10.0256 3.25733 9.99512 3.24416C10.0256 3.25731 10.0547 3.27262 10.083 3.29005ZM9.83691 3.19533C9.88083 3.20325 9.9226 3.21546 9.96289 3.23048C9.92225 3.2153 9.8802 3.20228 9.83594 3.19435L9.68359 3.18166L9.83691 3.19533ZM24.3613 6.27248V6.2715V6.27248ZM26.2705 26.7822C26.2885 26.7184 26.304 26.6535 26.3164 26.5869C26.3041 26.6535 26.2884 26.7184 26.2705 26.7822ZM4.75586 7.06544L4.64062 7.21681C4.63571 7.22396 4.63079 7.2311 4.62598 7.2383C4.66575 7.17892 4.70949 7.12157 4.75586 7.06544Z" fill="#868789"/>
</svg>