<svg xmlns="http://www.w3.org/2000/svg" width="14" height="14" viewBox="0 0 14 14" fill="currentColor">
<path d="M12.5369 7C12.5369 5.53146 11.9542 4.12266 10.9158 3.08424C9.87734 2.04583 8.46854 1.46305 7 1.46305C5.53146 1.46305 4.12266 2.04583 3.08424 3.08424C2.04583 4.12266 1.46305 5.53146 1.46305 7C1.46305 7.72715 1.60615 8.44728 1.88442 9.11908C2.16269 9.79083 2.5701 10.4016 3.08424 10.9158C3.59839 11.4299 4.20917 11.8373 4.88092 12.1156C5.55272 12.3938 6.27285 12.5369 7 12.5369C7.72715 12.5369 8.44728 12.3938 9.11908 12.1156C9.79083 11.8373 10.4016 11.4299 10.9158 10.9158C11.4299 10.4016 11.8373 9.79083 12.1156 9.11908C12.3938 8.44728 12.5369 7.72715 12.5369 7ZM14 7C14 7.91923 13.8192 8.82995 13.4674 9.6792C13.1157 10.5284 12.5992 11.2994 11.9493 11.9493C11.2994 12.5992 10.5284 13.1157 9.6792 13.4674C8.82995 13.8192 7.91923 14 7 14C6.08077 14 5.17005 13.8192 4.3208 13.4674C3.47165 13.1157 2.70065 12.5992 2.05072 11.9493C1.4008 11.2994 0.884346 10.5284 0.532575 9.6792C0.180803 8.82995 -1.36975e-08 7.91923 0 7C7.42503e-08 5.14354 0.738005 3.36344 2.05072 2.05072C3.36344 0.738005 5.14354 4.94733e-08 7 0C8.85646 0 10.6366 0.738005 11.9493 2.05072C13.262 3.36344 14 5.14354 14 7Z" fill="black"/>
<path d="M6.26846 3.51751C6.26846 3.11361 6.59609 2.78598 6.99999 2.78598C7.40389 2.78598 7.73152 3.11361 7.73152 3.51751V6.69663L9.60675 8.57187L9.70062 8.68716C9.88786 8.97094 9.85644 9.35657 9.60675 9.60641C9.32115 9.89201 8.85781 9.89201 8.57221 9.60641L6.48272 7.51692C6.34567 7.37979 6.26846 7.19353 6.26846 6.99965V3.51751Z" fill="black"/>
</svg>