<svg xmlns="http://www.w3.org/2000/svg" width="34" height="35" viewBox="0 0 34 35" fill="currentColor">
<path d="M5.2752 31.0234H28.6162C31.003 31.0234 32.4909 28.4352 31.2975 26.3738L19.627 6.21006C18.4336 4.14873 15.4578 4.14873 14.2644 6.21006L2.59393 26.3738C1.40053 28.4352 2.8884 31.0234 5.2752 31.0234ZM16.9457 20.1744C16.0933 20.1744 15.3958 19.4769 15.3958 18.6245V13.6419C15.3958 12.7895 16.0933 12.0921 16.9457 12.0921C17.7981 12.0921 18.4956 12.7895 18.4956 13.6419V18.6245C18.4956 19.4769 17.7981 20.1744 16.9457 20.1744ZM18.4956 24.824C18.4956 25.6799 17.8017 26.3738 16.9457 26.3738C16.0897 26.3738 15.3958 25.6799 15.3958 24.824C15.3958 23.968 16.0897 23.2741 16.9457 23.2741C17.8017 23.2741 18.4956 23.968 18.4956 24.824Z" fill="#868789"/>
</svg>