<svg xmlns="http://www.w3.org/2000/svg" width="39" height="38" viewBox="0 0 39 38" fill="currentColor">
<g clip-path="url(#clip0_1_7656)">
<mask id="mask0_1_7656" style="mask-type:alpha" maskUnits="userSpaceOnUse" x="0" y="0" width="39" height="38">
<rect x="0.65625" y="0.1875" width="37.6562" height="37.6562" fill="#D9D9D9"/>
</mask>
<g mask="url(#mask0_1_7656)">
<path d="M19.484 26.8604C19.9286 26.8604 20.3012 26.71 20.602 26.4093C20.9027 26.1086 21.0531 25.7359 21.0531 25.2914C21.0531 24.8468 20.9027 24.4742 20.602 24.1735C20.3012 23.8727 19.9286 23.7224 19.484 23.7224C19.0395 23.7224 18.6669 23.8727 18.3661 24.1735C18.0654 24.4742 17.915 24.8468 17.915 25.2914C17.915 25.7359 18.0654 26.1086 18.3661 26.4093C18.6669 26.71 19.0395 26.8604 19.484 26.8604ZM17.915 19.0153C17.915 19.8819 18.6175 20.5843 19.484 20.5843C20.3506 20.5843 21.0531 19.8819 21.0531 19.0153V12.7393C21.0531 11.8727 20.3506 11.1703 19.484 11.1703C18.6175 11.1703 17.915 11.8727 17.915 12.7393V19.0153ZM19.484 34.7054C17.3136 34.7054 15.2739 34.2936 13.3649 33.4698C11.4559 32.6461 9.79541 31.5282 8.3833 30.1161C6.97119 28.704 5.85327 27.0434 5.02954 25.1345C4.20581 23.2255 3.79395 21.1858 3.79395 19.0153C3.79395 16.8449 4.20581 14.8052 5.02954 12.8962C5.85327 10.9872 6.97119 9.32669 8.3833 7.91458C9.79541 6.50247 11.4559 5.38455 13.3649 4.56082C15.2739 3.73709 17.3136 3.32523 19.484 3.32523C21.6545 3.32523 23.6942 3.73709 25.6032 4.56082C27.5122 5.38455 29.1727 6.50247 30.5848 7.91458C31.9969 9.32669 33.1148 10.9872 33.9386 12.8962C34.7623 14.8052 35.1742 16.8449 35.1742 19.0153C35.1742 21.1858 34.7623 23.2255 33.9386 25.1345C33.1148 27.0434 31.9969 28.704 30.5848 30.1161C29.1727 31.5282 27.5122 32.6461 25.6032 33.4698C23.6942 34.2936 21.6545 34.7054 19.484 34.7054Z" fill="#FF6666"/>
</g>
</g>
<defs>
<clipPath id="clip0_1_7656">
<rect width="37.6562" height="37.6562" fill="white" transform="translate(0.65625 0.1875)"/>
</clipPath>
</defs>
</svg>