<svg xmlns="http://www.w3.org/2000/svg" width="46" height="46" viewBox="0 0 46 46" fill="currentColor">
<path d="M22.5938 3.76562C32.9922 3.76562 41.4219 12.1953 41.4219 22.5938C41.4219 32.9922 32.9922 41.4219 22.5938 41.4219C12.1953 41.4219 3.76562 32.9922 3.76562 22.5938C3.76562 12.1953 12.1953 3.76562 22.5938 3.76562ZM31.4561 13.7314C30.7208 12.9962 29.5292 12.9962 28.7939 13.7314L22.5938 19.9316L16.3936 13.7314C15.6583 12.9962 14.4667 12.9962 13.7314 13.7314C12.9962 14.4667 12.9962 15.6583 13.7314 16.3936L19.9316 22.5938L13.7314 28.7939C12.9962 29.5292 12.9962 30.7208 13.7314 31.4561C14.4667 32.1913 15.6583 32.1913 16.3936 31.4561L22.5938 25.2559L28.7939 31.4561L28.9365 31.5859C29.676 32.189 30.7668 32.1454 31.4561 31.4561C32.1454 30.7668 32.189 29.676 31.5859 28.9365L31.4561 28.7939L25.2559 22.5938L31.4561 16.3936C32.1913 15.6583 32.1913 14.4667 31.4561 13.7314Z" fill="#B4B4B4"/>
</svg>