<svg width="512" height="512" viewBox="0 0 512 512" fill="none" xmlns="http://www.w3.org/2000/svg">
<path d="M367.364 25.1998C376.611 22.6862 384.317 32.5525 379.638 40.9156L353.18 88.2086C411.405 121.855 450.584 184.785 450.584 256.867L450.581 258.126C449.982 352.606 382.073 431.115 292.396 448.113L145.187 487.568C135.949 490.044 128.28 480.19 132.949 471.843L158.81 425.605C100.849 392.174 61.7255 329.737 61.272 258.126L61.2681 256.867C61.2681 162.296 128.707 83.4769 218.118 65.8775C218.59 65.6803 219.089 65.5087 219.615 65.3658L367.364 25.1998ZM255.926 102.762C170.817 102.762 101.822 171.757 101.822 256.867C101.822 341.976 170.817 410.971 255.926 410.971C341.036 410.971 410.031 341.976 410.031 256.867C410.031 171.757 341.036 102.762 255.926 102.762Z" fill="#1263FF"/>
<path d="M314.862 167.159C356.383 167.159 387.071 207.566 387.071 253.357C387.071 299.148 356.383 339.554 314.862 339.554C290.488 339.554 269.848 325.63 256.958 304.867C244.092 325.945 223.299 340.126 198.702 340.126C157.18 340.126 126.494 299.72 126.494 253.929C126.494 208.138 157.18 167.732 198.702 167.732C223.075 167.732 243.715 181.655 256.606 202.417C269.471 181.339 290.265 167.16 314.862 167.159ZM198.702 186.163C183.282 186.164 168.568 194.779 158.442 209.054C163.791 206.037 169.748 204.351 176.029 204.351C194.913 204.351 210.869 219.608 216.159 240.547L190.105 252.569V252.613L217.645 262.273C214.978 287.496 197.405 306.993 176.029 306.993C171.464 306.993 167.07 306.103 162.957 304.459C172.704 315.322 185.441 321.694 198.702 321.694C219.085 321.693 238.234 306.638 247.184 283.357C244.242 273.91 242.654 263.773 242.654 253.357C242.654 243.176 244.172 233.261 246.988 223.997C237.956 201.003 218.938 186.164 198.702 186.163ZM314.862 185.591C298.932 185.591 283.756 194.787 273.613 209.917C279.329 206.359 285.801 204.351 292.659 204.351C311.543 204.351 327.499 219.608 332.789 240.547L306.735 252.569V252.613L334.275 262.273C331.608 287.496 314.035 306.993 292.659 306.993C288.124 306.993 283.759 306.116 279.668 304.492C289.342 314.986 301.85 321.121 314.862 321.121C342.92 321.121 368.639 292.597 368.639 253.357C368.639 214.117 342.92 185.591 314.862 185.591Z" fill="#1263FF"/>
</svg>
