<svg width="92" height="26" viewBox="0 0 92 26" fill="none" xmlns="http://www.w3.org/2000/svg">
<g clip-path="url(#clip0_1050_626)">
<path d="M16.5615 0.520536C17.0617 0.385639 17.4784 0.918081 17.2256 1.36917L15.79 3.92776C18.9388 5.74649 21.0644 9.14283 21.0644 13.0264C21.0642 18.1342 17.3915 22.3998 12.543 23.3389L4.54101 25.4785C4.0411 25.6117 3.62621 25.0806 3.8789 24.6299L5.28125 22.1279C2.12819 20.3104 0.000158034 16.913 0 13.0264C0 7.92107 3.6692 3.65627 8.51464 2.71389C8.53313 2.70679 8.54667 2.69394 8.56738 2.6885L16.5615 0.520536ZM46.5283 2.96487C47.1696 2.96503 47.644 3.55973 47.5 4.18264L43.8037 20.1553L46.5498 19.461C49.1973 18.5951 51.0809 18.0424 53.5507 16.9375C53.9735 16.7373 55.7194 16.0374 55.8388 15.5332L55.9033 15.252C56.0072 14.8002 56.4101 14.4786 56.875 14.4785H61.1308L61.1318 14.4776C61.5473 14.4777 61.7084 15.0166 61.3613 15.2442C60.8532 15.4946 60.8043 16.2145 61.2812 16.5108C61.2861 16.5135 61.29 16.5139 61.2949 16.5166C61.2949 16.5166 61.3005 16.5204 61.3027 16.5215C62.8181 17.4468 64.3263 18.1987 65.9013 18.9385C66.4816 19.2108 66.6632 19.9483 66.2705 20.4541C65.5253 21.413 64.5042 22.7277 64.4902 22.7471V22.7451C62.2259 21.7722 60.3486 20.4127 58.249 19.3389C57.9991 19.2113 57.7062 19.2014 57.4443 19.3018C54.7642 20.3276 51.1881 21.3422 48.4599 22.3086C48.3517 22.3467 48.2383 22.3662 48.123 22.3662H43.0566C42.9691 22.3662 42.8871 22.3562 42.8105 22.3389C42.71 22.3727 42.6028 22.3926 42.4922 22.3926H40.4824C39.8409 22.3926 39.3664 21.797 39.5107 21.1738L43.5459 3.73538C43.6505 3.28429 44.0533 2.96487 44.5175 2.96487H46.5283ZM85.1874 13.8555C85.8288 13.8558 86.3035 14.4522 86.1591 15.0752L85.3925 18.3867C85.288 18.8379 84.8841 19.1572 84.4199 19.1572H72.374C72.2209 19.1573 72.0871 19.2632 72.0527 19.4121C72.0049 19.6182 72.162 19.8158 72.374 19.8164H91.0009C91.9183 19.8168 92.3487 20.9484 91.662 21.5557L91.0273 22.1162C90.8446 22.2772 90.6095 22.3672 90.3661 22.3672H68.2929C67.6516 22.367 67.1781 21.7714 67.3222 21.1485L68.1083 17.749C68.2128 17.2978 68.6162 16.9776 69.08 16.9776H81.1396C81.2878 16.9776 81.4172 16.8761 81.4511 16.7315C81.4973 16.5314 81.3451 16.3408 81.1396 16.3408H69.6913C69.05 16.3405 68.5757 15.7437 68.7206 15.1201L68.8359 14.627C68.9403 14.1762 69.3432 13.8565 69.8076 13.8565L85.1874 13.8555ZM41.6923 3.02151C42.3339 3.02151 42.8084 3.6171 42.664 4.24026L38.6855 21.4365C38.5809 21.8877 38.1781 22.207 37.7138 22.207H34.4902L34.4873 22.2061L36.3027 14.3604C36.3835 14.0103 36.1164 13.6761 35.7568 13.6758C35.7398 13.6758 35.722 13.6756 35.705 13.6778L35.7158 13.6416C34.7395 13.3808 34.1268 12.2966 34.4287 11.1709C34.7153 10.1048 35.694 9.48089 36.6259 9.63967C36.7134 9.69686 36.8184 9.73049 36.9326 9.73049C37.1933 9.73036 37.4199 9.55147 37.4785 9.29787L38.7519 3.79104C38.8565 3.34004 39.2585 3.02064 39.7226 3.02053L41.6923 3.02151ZM10.5312 4.70803C5.93426 4.7082 2.19336 8.43956 2.19336 13.0264C2.19359 17.613 5.9344 21.3436 10.5312 21.3438C15.1288 21.3438 18.8689 17.6131 18.8691 13.0264C18.8691 8.43946 15.1284 4.70803 10.5312 4.70803ZM36.5566 3.40335C37.1367 3.4707 37.546 4.03039 37.4111 4.61526L36.459 8.73342C35.149 8.66794 33.9349 9.59394 33.5722 10.9434C33.1916 12.3616 33.8599 13.8434 35.1474 14.3809L33.8642 19.9238C33.7598 20.3751 33.3569 20.6953 32.8926 20.6953H25.9638C25.3223 20.6953 24.8478 20.0997 24.9922 19.4766L28.3379 5.01956C28.3865 4.80849 28.3178 4.5867 28.1572 4.44045C27.7514 4.07103 28.0133 3.39651 28.5625 3.39651H36.4394L36.5566 3.40335ZM13.7207 8.18362C15.875 8.18362 17.6277 10.2704 17.6279 12.836C17.6279 15.4017 15.8751 17.4893 13.7207 17.4893C12.4382 17.4892 11.3015 16.7454 10.5889 15.6045C9.87784 16.7635 8.73111 17.5205 7.43652 17.5205C5.28208 17.5205 3.52929 15.4324 3.52929 12.8672C3.52942 10.3021 5.28216 8.21487 7.43652 8.21487C8.71907 8.21491 9.85569 8.95866 10.5684 10.0996C11.2794 8.94122 12.4261 8.18369 13.7207 8.18362ZM32.2314 7.09963C31.9962 7.09963 31.7923 7.26119 31.7392 7.48928L29.6836 16.3604C29.6103 16.6757 29.8509 16.9775 30.1758 16.9776C30.4109 16.9776 30.6149 16.815 30.6679 16.5869L32.7226 7.71682C32.7959 7.40147 32.5562 7.09972 32.2314 7.09963ZM7.43554 9.20998C6.53937 9.2101 5.73743 9.72337 5.20312 10.5274C5.51248 10.3344 5.86222 10.2228 6.23437 10.2227C7.25607 10.2227 8.12019 11.0467 8.40624 12.1768L6.99706 12.8252V12.8281L8.48632 13.3496C8.34181 14.7109 7.39108 15.7637 6.23437 15.7637C5.98893 15.7636 5.75264 15.7138 5.53125 15.626C6.04202 16.1841 6.70713 16.5253 7.43554 16.5254C8.59115 16.5253 9.58836 15.6718 10.0576 14.4414C9.90235 13.9401 9.81347 13.3879 9.81347 12.8369C9.81347 12.2858 9.89907 11.7583 10.0478 11.2666C9.57469 10.051 8.58242 9.20998 7.43554 9.20998ZM13.7207 9.17971C12.7964 9.17978 11.9727 9.72632 11.4394 10.5742C11.7665 10.3516 12.1435 10.2227 12.5449 10.2227C13.5666 10.2227 14.4307 11.0467 14.7168 12.1768L13.3066 12.8252V12.8281L14.7969 13.3496C14.6524 14.7109 13.7016 15.7637 12.5449 15.7637C12.3004 15.7637 12.0657 15.7153 11.8447 15.6279C12.3517 16.1676 13.0059 16.4951 13.7207 16.4951C15.3254 16.4951 16.6308 14.8537 16.6308 12.8369C16.6308 10.8201 15.3249 9.17971 13.7207 9.17971ZM54.6865 6.31936L54.4892 6.34377C53.5108 6.50453 52.6785 7.17395 52.4375 8.21975C52.1593 9.42752 52.8972 10.1317 54.0673 10.1319C55.2377 10.1319 56.3049 9.42773 56.5839 8.21975C56.8076 7.249 56.3716 6.60283 55.5878 6.38674L56.6103 2.69143C59.6495 2.89292 61.6535 4.98185 60.9042 8.21975C60.1148 11.6289 56.8617 13.7627 53.5517 13.7627H52.8974C49.5879 13.7627 47.3247 11.629 48.1132 8.21975C48.9019 4.8105 52.1553 2.67595 55.4599 2.67581H55.6953L54.6865 6.31936ZM66.829 2.95901C67.4774 2.95928 67.9532 3.56749 67.7958 4.19534L65.5839 13.0098C65.4729 13.4523 65.0734 13.7627 64.6162 13.7627H62.3466C61.6979 13.7627 61.2218 13.1545 61.3798 12.5264L63.5917 3.71194C63.7029 3.26953 64.1023 2.95901 64.5595 2.95901H66.829ZM78.3876 8.54885C79.6783 8.54303 80.6532 9.47607 80.6581 10.5449L81.5536 10.5352L86.9745 10.5342C87.6159 10.5343 88.0913 11.1304 87.9462 11.7539L87.7958 12.4024C87.6914 12.853 87.2879 13.1728 86.8242 13.1729H69.0927C69.0902 13.1728 69.0885 13.1705 69.0888 13.168L69.5224 11.3047C69.6274 10.854 70.0303 10.5352 70.4941 10.5352H72.8647H75.2353V10.5371H76.1132C76.1083 9.46816 77.0974 8.55485 78.3876 8.54885ZM75.4306 2.92678C75.6066 2.96604 75.7295 3.13418 75.7079 3.31643L75.6933 3.39944C75.6698 3.60831 75.8333 3.79667 76.0497 3.7969H79.4228L78.9111 6.30666H75.3085C75.1339 6.30689 74.9824 6.42688 74.9423 6.5967C74.8877 6.83173 75.0665 7.05734 75.3085 7.05764H83.4501C83.6251 7.05764 83.7779 6.93781 83.8173 6.7676C83.872 6.53242 83.6924 6.30666 83.4501 6.30666H79.8144L80.3271 3.7969H84.0595C84.3083 3.7969 84.5264 3.63763 84.6025 3.4053L84.6288 3.3096C84.705 3.07803 84.9228 2.91811 85.1708 2.91799H87.7245C88.3653 2.91817 88.8394 3.51281 88.6952 4.13577L87.5878 8.92385C87.4834 9.37512 87.081 9.69533 86.6161 9.69533H81.499C81.4707 9.69537 81.4436 9.69827 81.4169 9.70315C81.016 8.49503 79.778 7.65558 78.3827 7.66213C76.9914 7.66873 75.7615 8.49653 75.3671 9.69533H71.2314C70.5898 9.69533 70.1154 9.09971 70.2597 8.47658L71.3661 3.6885C71.4707 3.2373 71.8745 2.91799 72.3388 2.91799H75.3515L75.4306 2.92678Z" fill="white"/>
</g>
<defs>
<clipPath id="clip0_1050_626">
<rect width="92" height="25" fill="white" transform="translate(0 0.5)"/>
</clipPath>
</defs>
</svg>
