<svg viewBox="0 0 103 103" fill="none" xmlns="http://www.w3.org/2000/svg">
<g clip-path="url(#clip0_2013_558)">
<rect width="103" height="103" rx="51.5" fill="#1263FF"/>
<path d="M89.1658 44.3845C88.9926 42.6756 87.0986 28.3037 72.3763 25.075C67.8364 24.0788 63.891 24.2993 60.5638 25.138C55.2206 22.6101 50.0546 21.0627 46.0226 21.6376C36.6671 22.9763 47.5504 33.4776 47.5504 33.4776C48.4521 33.4067 49.3459 33.3556 50.2358 33.3162C47.4362 33.9265 44.7351 34.8124 42.1678 35.9386C41.7347 35.3519 41.0378 34.966 40.2503 34.966H29.8986C28.5795 34.966 27.5085 36.037 27.5085 37.3561C27.5085 38.6751 28.5795 39.7461 29.8986 39.7461H35.3048C33.1746 41.1991 31.1822 42.841 29.3513 44.6444C29.1938 44.6365 29.0363 44.6286 28.8748 44.6286C22.882 44.6286 17.8892 49.8734 16.8025 56.8112C16.5071 57.8468 16.3457 58.9572 16.3457 60.1148C16.3457 61.8788 16.7198 63.5326 17.3734 64.9737C17.4521 65.2257 17.5348 65.4737 17.6254 65.7179C16.9442 68.7497 16.582 71.9037 16.582 75.1442C16.582 98.7889 35.7497 117.957 59.3944 117.957C83.0391 117.957 102.207 98.7889 102.207 75.1442C102.207 63.0719 97.2101 52.1689 89.1698 44.3884L89.1658 44.3845Z" fill="white"/>
<path d="M12.763 75.1439C12.763 72.0157 13.0738 68.9597 13.662 66.0038C12.9301 64.2018 12.5269 62.2041 12.5269 60.1145C12.5269 58.6915 12.716 57.3137 13.0644 56.0109C14.2048 49.1859 18.7149 43.0647 25.1122 41.3106C24.287 40.313 23.7671 39.0534 23.6972 37.6753L23.6895 37.3562L23.6972 37.0363C23.8637 33.7563 26.5776 31.1469 29.8988 31.1469H40.2509C40.401 31.1469 40.5496 31.1533 40.6969 31.1638C40.4322 30.7598 40.1767 30.3413 39.9394 29.9142C39.092 28.3886 37.9344 25.8076 38.6113 23.1197C39.4556 19.7668 42.4428 18.2912 45.4819 17.8563H45.4834C50.3146 17.1675 55.8604 18.8287 60.9896 21.1301C64.5656 20.4199 68.65 20.3476 73.1943 21.3447C81.8456 23.242 86.8192 28.493 89.5673 33.4471C91.5902 37.0941 92.4286 40.5995 92.768 42.5834C100.968 50.9819 106.026 62.4739 106.026 75.1439C106.026 100.898 85.1487 121.776 59.3946 121.776C33.6406 121.776 12.763 100.898 12.763 75.1439ZM20.165 60.1145C20.165 61.339 20.4249 62.4547 20.8517 63.396C20.9164 63.5385 20.9727 63.6849 21.0194 63.8343C21.0844 64.0422 21.145 64.2245 21.2063 64.3896C21.4632 65.0822 21.5143 65.8345 21.3524 66.5552C20.7321 69.316 20.4019 72.1891 20.4019 75.1439C20.4019 96.6792 37.8593 114.137 59.3946 114.137C80.9299 114.137 98.3874 96.6792 98.3874 75.1439C98.3873 64.1482 93.8415 54.2235 86.5142 47.133C86.4992 47.1185 86.4843 47.1039 86.4696 47.0892L86.4657 47.0853C85.8436 46.4632 85.4547 45.6451 85.366 44.7698C85.3048 44.1666 84.8687 40.7242 82.8874 37.1524C80.9647 33.6862 77.6295 30.1375 71.5586 28.806H71.5578C67.6092 27.9395 64.2639 28.1442 61.498 28.8413C60.6392 29.0578 59.7315 28.9693 58.9309 28.5906C53.7011 26.1164 49.4143 25.0116 46.5632 25.4176L46.5639 25.4183C46.4491 25.4348 46.3463 25.4514 46.2548 25.4683C46.3365 25.663 46.4517 25.9075 46.617 26.2051C47.2066 27.2664 48.08 28.391 48.8787 29.3097C48.9515 29.3933 49.0248 29.4725 49.0941 29.5504C49.4203 29.5326 49.7445 29.5147 50.0669 29.5004C52.0484 29.4127 53.7677 30.8567 54.0236 32.8234C54.2795 34.79 52.9874 36.6253 51.0498 37.0478C48.5022 37.6032 46.042 38.4101 43.7023 39.4364C42.3113 40.0466 40.7187 39.767 39.6218 38.7851H39.0012C39.4058 40.3392 38.7938 41.9899 37.4569 42.9018C35.5174 44.2247 33.7012 45.7206 32.0313 47.3653C31.2696 48.1155 30.2283 48.5122 29.1605 48.4589C28.9891 48.4503 28.9258 48.4481 28.8752 48.4481C25.3234 48.4481 21.4674 51.7096 20.5757 57.4021C20.5515 57.5561 20.5184 57.7089 20.4757 57.8589C20.2772 58.5549 20.165 59.3126 20.165 60.1145Z" fill="white"/>
<path d="M59.3906 117.957C83.0352 117.957 102.203 98.7891 102.203 75.1445C102.203 51.4998 83.0352 32.332 59.3906 32.332C35.7459 32.332 16.5781 51.4998 16.5781 75.1445C16.5781 98.7891 35.7459 117.957 59.3906 117.957Z" fill="white"/>
<mask id="mask0_2013_558" style="mask-type:luminance" maskUnits="userSpaceOnUse" x="16" y="32" width="87" height="86">
<path d="M59.3906 117.956C83.0352 117.956 102.203 98.7883 102.203 75.1437C102.203 51.499 83.0352 32.3312 59.3906 32.3312C35.7459 32.3312 16.5781 51.499 16.5781 75.1437C16.5781 98.7883 35.7459 117.956 59.3906 117.956Z" fill="white"/>
</mask>
<g mask="url(#mask0_2013_558)">
<path d="M27.3986 47.2653C33.5225 65.6409 33.5225 84.0255 27.3986 102.401L25.9497 101.918C31.9691 83.8561 31.9691 65.8103 25.9497 47.7483L27.3986 47.2653Z" fill="black"/>
<path d="M79.2391 36.9848C70.9907 50.041 67.2489 62.8489 67.4281 75.4292C67.6074 88.0132 71.7109 100.427 79.2445 112.69L77.9425 113.49C70.297 101.045 66.0848 88.365 65.9008 75.4507C65.7168 62.533 69.5645 49.4377 77.9479 36.168L79.2391 36.9848Z" fill="black"/>
<path d="M102.131 75.8801C97.634 92.6713 80.6494 117.715 41.3876 113.653C58.0481 122.086 101.048 120.362 102.131 75.8801Z" fill="black"/>
</g>
<path d="M101.439 75.1446C101.439 51.9219 82.6134 33.0958 59.3907 33.0957C36.168 33.0957 17.3418 51.9219 17.3418 75.1446C17.3419 98.3673 36.168 117.193 59.3907 117.193C82.6134 117.193 101.439 98.3673 101.439 75.1446ZM102.967 75.1446C102.967 99.211 83.4571 118.721 59.3907 118.721C35.3243 118.721 15.8146 99.2111 15.8145 75.1446C15.8145 51.0781 35.3242 31.5684 59.3907 31.5684C83.4572 31.5685 102.967 51.0782 102.967 75.1446Z" fill="black"/>
<path d="M47.5508 33.4786C63.3205 32.262 77.3143 35.6443 89.182 44.5548C89.182 44.5548 88.0362 28.5135 72.3767 25.076C56.1818 21.5205 47.5508 33.4786 47.5508 33.4786Z" fill="#1263FF"/>
<path d="M53.4931 27.2917C57.8107 24.6642 64.2171 22.5027 72.5408 24.3301C80.6476 26.1098 85.0133 31.169 87.3333 35.7596C88.4901 38.0486 89.1414 40.2235 89.5036 41.8259C89.6849 42.628 89.7944 43.2899 89.8589 43.7538C89.8911 43.9857 89.9119 44.1685 89.925 44.2952C89.9316 44.3586 89.9359 44.4085 89.9389 44.4429C89.9403 44.46 89.9419 44.4733 89.9427 44.4829C89.9431 44.4877 89.9433 44.4915 89.9435 44.4944V44.4998C89.9391 44.5006 89.8838 44.5043 89.1821 44.5544L89.9442 44.5006L90.0634 46.1717L88.723 45.1658C77.0283 36.3851 63.2267 33.0351 47.6092 34.24L45.9673 34.3669L46.9317 33.0318L47.5507 33.4787C46.9596 33.052 46.9326 33.0323 46.9317 33.0311L46.9324 33.0295C46.933 33.0288 46.934 33.0283 46.9347 33.0272C46.9364 33.0249 46.9389 33.0217 46.9417 33.018C46.9471 33.0106 46.9543 33.0001 46.964 32.9872C46.9834 32.9613 47.0114 32.9242 47.0478 32.8773C47.1204 32.7835 47.2269 32.6494 47.3669 32.482C47.6473 32.1467 48.0629 31.6763 48.6113 31.1262C49.7072 30.0268 51.3397 28.6023 53.4931 27.2917ZM72.2132 25.8221C64.3419 24.094 58.3342 26.1341 54.2876 28.5968C52.2593 29.8312 50.7217 31.1735 49.6933 32.2051C49.557 32.3419 49.4293 32.4727 49.3111 32.5973C63.8535 31.7943 76.9096 34.9626 88.1601 42.8694C88.1175 42.6505 88.0699 42.4138 88.0132 42.1627C87.6712 40.6499 87.0568 38.5995 85.9698 36.4487C83.8021 32.1595 79.7652 27.4799 72.2132 25.8221Z" fill="black"/>
<path d="M89.1818 44.5546C89.1818 44.5546 60.4105 19.583 46.0228 21.6384C36.6673 22.9771 47.5506 33.4785 47.5506 33.4785C63.2455 31.8641 77.0543 35.7465 89.1818 44.5546Z" fill="#002560"/>
<path d="M45.9146 20.8821C49.7285 20.3373 54.3876 21.5853 59.1406 23.6514C63.9191 25.7287 68.9065 28.6847 73.421 31.6902C77.9389 34.698 82.0024 37.7685 84.9351 40.0859C86.4019 41.2449 87.5874 42.2166 88.4066 42.899C88.8159 43.24 89.134 43.5087 89.3502 43.6927C89.4583 43.7847 89.5412 43.8562 89.597 43.9042C89.6248 43.928 89.6458 43.9464 89.6601 43.9588C89.6671 43.9648 89.6725 43.9694 89.6762 43.9726C89.6781 43.9742 89.6799 43.9756 89.6809 43.9765L89.6816 43.9772C89.6819 43.9775 89.6825 43.9779 89.1818 44.5548L89.6824 43.978C89.9912 44.2461 90.0345 44.7099 89.7801 45.0301C89.5256 45.3503 89.0636 45.4127 88.7326 45.1723C76.7568 36.4744 63.1356 32.6431 47.6288 34.2381C47.405 34.2611 47.1825 34.1843 47.0205 34.0281L47.5504 33.4783C47.0282 34.0195 47.0201 34.0282 47.0197 34.0281L47.019 34.0274C47.0185 34.0269 47.0182 34.0258 47.0174 34.0251C47.0158 34.0234 47.0135 34.021 47.0105 34.0181C47.0046 34.0124 46.996 34.0042 46.9851 33.9935C46.9634 33.9722 46.9315 33.9414 46.8913 33.9012C46.8107 33.8208 46.6948 33.7032 46.5514 33.5544C46.2648 33.2571 45.8672 32.832 45.4201 32.3178C44.5309 31.295 43.4237 29.8944 42.6108 28.431C41.8208 27.0089 41.2026 25.3425 41.5741 23.8668C41.9793 22.258 43.4357 21.2368 45.9146 20.8821ZM58.5315 25.0526C53.8435 23.0147 49.5106 21.912 46.1307 22.3948C43.9322 22.7095 43.2408 23.5031 43.0553 24.2397C42.8364 25.1094 43.1846 26.3192 43.9459 27.6897C44.6843 29.019 45.7139 30.3276 46.5729 31.3157C46.9998 31.8067 47.3791 32.2125 47.6511 32.4947C47.7195 32.5656 47.782 32.6277 47.8357 32.6823C59.4526 31.5474 70.0572 33.3993 79.7164 38.0087C77.5672 36.4075 75.1447 34.6727 72.5743 32.9615C68.0975 29.9811 63.1941 27.0795 58.5315 25.0526Z" fill="black"/>
<path d="M63.0957 35.1917H52.748C51.428 35.1917 50.3579 36.2609 50.3579 37.5798C50.3579 38.8987 51.428 39.9679 52.748 39.9679H63.0957C64.4157 39.9679 65.4858 38.8987 65.4858 37.5798C65.4858 36.2609 64.4157 35.1917 63.0957 35.1917Z" fill="#1263FF"/>
<path d="M64.7221 37.5796C64.722 36.6832 63.9942 35.9554 63.0956 35.9554H52.7481C51.8494 35.9554 51.1217 36.6832 51.1216 37.5796C51.1216 38.476 51.8494 39.2038 52.7481 39.2038H63.0956C63.9943 39.2038 64.7221 38.476 64.7221 37.5796ZM66.2494 37.5796C66.2494 39.321 64.8368 40.7319 63.0956 40.7319H52.7481C51.0068 40.7319 49.5942 39.321 49.5942 37.5796C49.5944 35.8383 51.0069 34.428 52.7481 34.428H63.0956C64.8368 34.428 66.2493 35.8383 66.2494 37.5796Z" fill="black"/>
<path d="M40.25 34.9672H29.9023C28.5823 34.9672 27.5122 36.0363 27.5122 37.3553C27.5122 38.6742 28.5823 39.7433 29.9023 39.7433H40.25C41.57 39.7433 42.6401 38.6742 42.6401 37.3553C42.6401 36.0363 41.57 34.9672 40.25 34.9672Z" fill="#1263FF"/>
<path d="M41.8764 37.355C41.8763 36.4587 41.1485 35.7308 40.2499 35.7308H29.9024C29.0037 35.7308 28.276 36.4587 28.2759 37.355C28.2759 38.2515 29.0037 38.9792 29.9024 38.9792H40.2499C41.1486 38.9792 41.8764 38.2515 41.8764 37.355ZM43.4037 37.355C43.4037 39.0964 41.9911 40.5073 40.2499 40.5073H29.9024C28.1611 40.5073 26.7485 39.0964 26.7485 37.355C26.7487 35.6138 28.1612 34.2035 29.9024 34.2035H40.2499C41.9911 34.2035 43.4036 35.6138 43.4037 37.355Z" fill="black"/>
<path d="M28.8788 74.6887C35.6702 74.6887 41.1757 67.9598 41.1757 59.6593C41.1757 51.3587 35.6702 44.6298 28.8788 44.6298C22.0875 44.6298 16.582 51.3587 16.582 59.6593C16.582 67.9598 22.0875 74.6887 28.8788 74.6887Z" fill="white"/>
<path d="M51.6494 74.6887C58.4407 74.6887 63.9462 67.9598 63.9462 59.6593C63.9462 51.3587 58.4407 44.6298 51.6494 44.6298C44.858 44.6298 39.3525 51.3587 39.3525 59.6593C39.3525 67.9598 44.858 74.6887 51.6494 74.6887Z" fill="white"/>
<path d="M40.4116 59.6592C40.4116 51.6302 35.1122 45.3936 28.879 45.3935C22.6457 45.3935 17.3457 51.6301 17.3457 59.6592C17.3457 67.6883 22.6457 73.925 28.879 73.925C35.1122 73.9248 40.4116 67.6883 40.4116 59.6592ZM41.9397 59.6592C41.9397 68.2311 36.2283 75.4522 28.879 75.4523C21.5296 75.4523 15.8184 68.2312 15.8184 59.6592C15.8184 51.0873 21.5296 43.8661 28.879 43.8661C36.2283 43.8663 41.9397 51.0874 41.9397 59.6592Z" fill="black"/>
<path d="M27.288 59.5096L32.3753 57.1589C31.3437 53.0679 28.2252 50.0911 24.5397 50.0911C20.0115 50.0911 16.3418 54.5759 16.3418 60.1121C16.3418 65.6482 20.0115 70.133 24.5397 70.133C28.7095 70.133 32.1469 66.3254 32.6627 61.3996L27.2841 59.5096H27.288Z" fill="black"/>
<path d="M63.1821 59.6592C63.1821 51.6302 57.8827 45.3936 51.6495 45.3935C45.4162 45.3935 40.1162 51.6301 40.1162 59.6592C40.1162 67.6883 45.4162 73.925 51.6495 73.925C57.8827 73.9248 63.1821 67.6883 63.1821 59.6592ZM64.7102 59.6592C64.7102 68.2311 58.9988 75.4522 51.6495 75.4523C44.3001 75.4523 38.5889 68.2312 38.5889 59.6592C38.5889 51.0873 44.3001 43.8661 51.6495 43.8661C58.9988 43.8663 64.7102 51.0874 64.7102 59.6592Z" fill="black"/>
<path d="M50.0629 59.5096L55.1502 57.1589C54.1186 53.0679 51.0001 50.0911 47.3146 50.0911C42.7864 50.0911 39.1167 54.5759 39.1167 60.1121C39.1167 65.6482 42.7864 70.133 47.3146 70.133C51.4844 70.133 54.9218 66.3254 55.4376 61.3996L50.059 59.5096H50.0629Z" fill="black"/>
<path d="M41.3293 58.1118C40.5576 50.7211 35.3955 45.0078 29.1349 45.0078C22.8742 45.0078 17.7161 50.7211 16.9404 58.1118H41.3254H41.3293Z" fill="#1263FF"/>
<path d="M29.1353 44.2441C35.9068 44.2443 41.2904 50.385 42.089 58.0323L42.1775 58.876H16.0923L16.1807 58.0323C16.9833 50.3855 22.3632 44.2441 29.1353 44.2441ZM29.1353 45.7715C23.6151 45.7715 18.8446 50.6443 17.8103 57.3479H40.4602C39.4292 50.6448 34.6556 45.7716 29.1353 45.7715Z" fill="black"/>
<path d="M63.4816 58.1118C62.7099 50.7211 57.5478 45.0078 51.2872 45.0078C45.0266 45.0078 39.8685 50.7211 39.0928 58.1118H63.4777H63.4816Z" fill="#1263FF"/>
<path d="M51.2871 44.2441C58.0587 44.2443 63.4423 50.385 64.2409 58.0323L64.3293 58.876H38.2441L38.3326 58.0323C39.1351 50.3855 44.5151 44.2441 51.2871 44.2441ZM51.2871 45.7715C45.767 45.7715 40.9964 50.6443 39.9622 57.3479H62.612C61.5811 50.6448 56.8075 45.7716 51.2871 45.7715Z" fill="black"/>
<path d="M87.3193 55.4376C87.3193 55.4376 84.6812 61.1509 84.6812 63.348C84.6812 65.5451 88.6383 68.1832 90.3945 63.789C90.3945 63.789 90.3945 60.7138 87.3193 55.4376Z" fill="#00C3FF"/>
<path d="M87.2828 54.6746C87.5673 54.6611 87.8362 54.8069 87.9796 55.053C89.5498 57.7472 90.3448 59.8974 90.7474 61.393C90.9485 62.1405 91.0518 62.7237 91.1042 63.128C91.1304 63.3299 91.144 63.4871 91.1511 63.5978C91.1546 63.6532 91.1562 63.6974 91.1573 63.7293C91.1577 63.7451 91.1579 63.7579 91.158 63.7678V63.7886L90.3944 63.7893H91.158C91.158 63.8863 91.1394 63.9823 91.1034 64.0723C90.6197 65.2826 89.9446 66.1087 89.1262 66.554C88.2991 67.0041 87.42 67.0138 86.6476 66.7678C85.8868 66.5256 85.2164 66.0343 84.735 65.4451C84.2576 64.8607 83.9175 64.1185 83.9175 63.3479C83.9175 62.6822 84.1104 61.8238 84.3604 60.97C84.6162 60.0968 84.9542 59.1547 85.2879 58.293C85.6224 57.4294 85.9561 56.6367 86.2062 56.0604C86.3312 55.7722 86.4358 55.5376 86.5092 55.3745C86.5458 55.2929 86.5747 55.2288 86.5945 55.1853C86.6044 55.1635 86.6123 55.1467 86.6176 55.1353C86.6202 55.1296 86.6224 55.1252 86.6237 55.1222C86.6244 55.1208 86.6249 55.1192 86.6253 55.1184V55.1176H86.626C86.7454 54.8591 86.9984 54.6882 87.2828 54.6746ZM85.4448 63.3479C85.4448 63.6758 85.5992 64.0875 85.9185 64.4784C86.234 64.8644 86.6633 65.1694 87.1113 65.312C87.5476 65.4509 87.9869 65.4344 88.3956 65.2121C88.7913 64.9967 89.2398 64.5424 89.6215 63.6555C89.6157 63.5776 89.6076 63.4666 89.5892 63.3241C89.5455 62.9868 89.4555 62.4713 89.2723 61.7906C88.9719 60.6742 88.4185 59.1108 87.3989 57.1602C87.1919 57.6484 86.9509 58.2281 86.7122 58.8444C86.3864 59.6855 86.0652 60.584 85.8262 61.3999C85.5817 62.2351 85.4448 62.915 85.4448 63.3479Z" fill="black"/>
<path d="M79.4086 65.1078C79.4086 65.1078 76.7705 70.8212 76.7705 73.0183C76.7705 75.2154 80.7277 77.8535 82.4838 73.4593C82.4838 73.4593 82.4838 70.3841 79.4086 65.1078Z" fill="#00C3FF"/>
<path d="M79.3722 64.345C79.6566 64.3314 79.9255 64.4773 80.0689 64.7234C81.6392 67.4176 82.4342 69.5678 82.8367 71.0633C83.0379 71.8108 83.1412 72.3941 83.1935 72.7983C83.2197 73.0002 83.2334 73.1574 83.2405 73.2682C83.244 73.3236 83.2456 73.3678 83.2466 73.3997C83.2471 73.4154 83.2472 73.4282 83.2474 73.4381V73.4589L82.4837 73.4597H83.2474C83.2473 73.5567 83.2288 73.6526 83.1928 73.7427C82.7091 74.953 82.034 75.779 81.2156 76.2244C80.3885 76.6745 79.5094 76.6841 78.7369 76.4382C77.9762 76.196 77.3065 75.7045 76.8251 75.1154C76.3476 74.531 76.0068 73.7889 76.0068 73.0183C76.0068 72.3526 76.1998 71.4942 76.4498 70.6404C76.7055 69.7672 77.0435 68.8251 77.3773 67.9633C77.7117 67.0997 78.0455 66.307 78.2955 65.7308C78.4206 65.4426 78.5252 65.2079 78.5985 65.0448C78.6352 64.9632 78.664 64.8992 78.6839 64.8556C78.6938 64.8339 78.7017 64.8171 78.7069 64.8056C78.7095 64.8 78.7117 64.7956 78.7131 64.7926C78.7138 64.7911 78.7143 64.7895 78.7146 64.7887V64.788H78.7154C78.8348 64.5294 79.0877 64.3586 79.3722 64.345ZM77.5342 73.0183C77.5342 73.3462 77.6885 73.7579 78.0079 74.1487C78.3233 74.5348 78.7527 74.8397 79.2007 74.9824C79.6369 75.1213 80.0763 75.1048 80.485 74.8824C80.8806 74.6671 81.3292 74.2128 81.7108 73.3259C81.7051 73.2479 81.697 73.1369 81.6785 72.9944C81.6348 72.6572 81.5449 72.1416 81.3617 71.4609C81.0612 70.3446 80.5078 68.7811 79.4883 66.8305C79.2813 67.3187 79.0402 67.8984 78.8015 68.5147C78.4758 69.3558 78.1545 70.2544 77.9156 71.0703C77.671 71.9055 77.5342 72.5854 77.5342 73.0183Z" fill="black"/>
</g>
<defs>
<clipPath id="clip0_2013_558">
<rect width="103" height="103" rx="51.5" fill="white"/>
</clipPath>
</defs>
</svg>
