<svg width="18" height="18" viewBox="0 0 18 18" fill="none" xmlns="http://www.w3.org/2000/svg">
<path d="M7.16249 9.00001L12.675 14.5125C12.8625 14.7 12.9532 14.9188 12.9472 15.1688C12.9412 15.4188 12.8442 15.6375 12.6562 15.825C12.4682 16.0125 12.2495 16.1063 12 16.1063C11.7505 16.1063 11.5317 16.0125 11.3437 15.825L5.56874 10.0688C5.41874 9.91876 5.30624 9.75001 5.23124 9.56251C5.15624 9.37501 5.11874 9.18751 5.11874 9.00001C5.11874 8.81251 5.15624 8.62501 5.23124 8.43751C5.30624 8.25001 5.41874 8.08126 5.56874 7.93126L11.3437 2.15626C11.5312 1.96876 11.7532 1.87801 12.0097 1.88401C12.2662 1.89001 12.488 1.98701 12.675 2.17501C12.862 2.36301 12.9557 2.58176 12.9562 2.83126C12.9567 3.08076 12.863 3.29951 12.675 3.48751L7.16249 9.00001Z" fill="currentColor"/>
</svg>
