<svg viewBox="0 0 14 14" fill="none" xmlns="http://www.w3.org/2000/svg">
<path d="M8.42922 6.99997L4.14172 11.2875C3.99588 11.4333 3.9253 11.6034 3.92997 11.7979C3.93463 11.9923 4.01008 12.1625 4.1563 12.3083C4.30252 12.4541 4.47266 12.5271 4.66672 12.5271C4.86077 12.5271 5.03091 12.4541 5.17713 12.3083L9.6688 7.83122C9.78547 7.71455 9.87297 7.5833 9.9313 7.43747C9.98963 7.29164 10.0188 7.1458 10.0188 6.99997C10.0188 6.85414 9.98963 6.7083 9.9313 6.56247C9.87297 6.41664 9.78547 6.28539 9.6688 6.16872L5.17713 1.67705C5.0313 1.53122 4.85863 1.46064 4.65913 1.4653C4.45963 1.46997 4.28716 1.54542 4.14172 1.69164C3.99627 1.83786 3.92335 2.008 3.92297 2.20205C3.92258 2.39611 3.99549 2.56625 4.14172 2.71247L8.42922 6.99997Z" fill="currentColor"/>
</svg>
