<svg xmlns="http://www.w3.org/2000/svg" viewBox="0 0 24 24" fill="none">
  <path d="M16.5303 1.57518C16.7785 1.57654 17.0058 1.6631 17.1846 1.84178C17.3633 2.02052 17.4507 2.24799 17.4531 2.49607V4.0283H19.0234C19.6228 4.02834 20.1427 4.23456 20.5566 4.64842C20.9189 5.01067 21.1217 5.45409 21.166 5.96092L21.1748 6.18162V20.2285C21.1746 20.8274 20.9696 21.3469 20.5566 21.7607C20.143 22.1751 19.6222 22.3798 19.0215 22.3789H4.97852C4.37869 22.3789 3.85784 22.1742 3.44434 21.7607C3.08278 21.3991 2.88047 20.9559 2.83496 20.4492L2.8252 20.2285V6.18065C2.82523 5.58134 3.03034 5.06167 3.44434 4.64842C3.85808 4.23557 4.37771 4.02929 4.97656 4.0283H6.54883V2.54295C6.5489 2.2812 6.63895 2.0417 6.82715 1.8535C7.01509 1.66559 7.25402 1.57518 7.51562 1.57518C7.77695 1.57524 8.01588 1.66477 8.2041 1.85154C8.39351 2.03972 8.48417 2.28042 8.4834 2.54295V4.0283H15.6025V2.50096C15.6026 2.25115 15.6905 2.02266 15.8691 1.84275C16.049 1.66182 16.2791 1.574 16.5303 1.57518ZM4.62109 21.9736C4.67651 21.9835 4.73321 21.991 4.79102 21.9961L4.88477 22C4.7941 21.9962 4.70616 21.9887 4.62109 21.9736ZM4.45703 21.9355C4.49737 21.9468 4.53836 21.9564 4.58008 21.9648C4.53836 21.9564 4.49738 21.9467 4.45703 21.9355ZM4.30859 21.8867C4.34159 21.8993 4.37517 21.9103 4.40918 21.9209C4.37516 21.9104 4.3416 21.8992 4.30859 21.8867ZM4.16797 21.8242C4.1915 21.8358 4.21516 21.8469 4.23926 21.8574C4.21515 21.847 4.19152 21.8358 4.16797 21.8242ZM4.02051 21.7422C4.04569 21.758 4.07078 21.7737 4.09668 21.7881C4.07076 21.7737 4.04571 21.758 4.02051 21.7422ZM3.90723 21.664C3.9246 21.677 3.94124 21.6909 3.95898 21.7031C3.94122 21.6909 3.92462 21.677 3.90723 21.664ZM20.4482 21.3144C20.4663 21.2908 20.4843 21.2674 20.501 21.2431C20.4843 21.2674 20.4663 21.2908 20.4482 21.3144ZM20.54 21.1816C20.556 21.1562 20.5715 21.1307 20.5859 21.1045C20.5715 21.1307 20.5559 21.1561 20.54 21.1816ZM20.6162 21.0459C20.6321 21.0141 20.6473 20.982 20.6611 20.9492C20.6473 20.982 20.6321 21.0141 20.6162 21.0459ZM4.6748 20.2285C4.67501 20.2799 4.69342 20.3442 4.77734 20.4287C4.86071 20.5123 4.92446 20.5285 4.97559 20.5283L4.97656 20.9033L4.85254 20.8916L4.97656 20.9043H19.0234C19.0319 20.9043 19.0404 20.9017 19.0488 20.9013C19.0404 20.9017 19.032 20.9033 19.0234 20.9033H4.97852V20.5283H19.0234C19.0748 20.5283 19.1389 20.5117 19.2236 20.4277C19.3071 20.3446 19.3253 20.2808 19.3252 20.2285V10.957H4.6748V20.2285ZM20.6826 20.8965C20.6964 20.8603 20.7084 20.8235 20.7197 20.7861C20.7084 20.8235 20.6964 20.8603 20.6826 20.8965ZM20.7314 20.7451C20.7436 20.7012 20.7548 20.6568 20.7637 20.6113C20.7548 20.6568 20.7436 20.7012 20.7314 20.7451ZM19.4893 20.6924V20.6933V20.6924ZM20.7998 20.2275C20.7998 20.3499 20.7894 20.4674 20.7695 20.5801C20.7792 20.5255 20.788 20.47 20.793 20.4131L20.7998 20.2285V20.2275ZM7.59863 12.1103C7.93164 12.1093 8.22473 12.2374 8.45996 12.4736C8.69407 12.7089 8.82227 13.0005 8.82227 13.332C8.82218 13.6636 8.69378 13.9556 8.45898 14.1904C8.22405 14.4251 7.93227 14.5516 7.60059 14.5517C7.26851 14.5517 6.97536 14.4255 6.74023 14.1904C6.50514 13.9553 6.37891 13.6621 6.37891 13.3301C6.37904 12.9981 6.50667 12.7062 6.74219 12.4717C6.97701 12.2381 7.26788 12.1115 7.59863 12.1103ZM11.999 12.1103C12.3318 12.1094 12.6242 12.2375 12.8594 12.4736C13.0936 12.709 13.2227 13.0004 13.2227 13.332C13.2226 13.6636 13.0942 13.9556 12.8594 14.1904C12.6243 14.4254 12.331 14.5517 11.999 14.5517C11.6675 14.5515 11.3755 14.4251 11.1406 14.1904C10.9055 13.9553 10.7773 13.6621 10.7773 13.3301C10.7775 12.9982 10.9053 12.7061 11.1406 12.4717C11.3755 12.2378 11.668 12.1115 11.999 12.1103ZM16.3984 12.1103C16.7315 12.1093 17.0245 12.2374 17.2598 12.4736C17.494 12.709 17.6211 13.0005 17.6211 13.332C17.621 13.6636 17.4946 13.9556 17.2598 14.1904C17.0246 14.4255 16.7315 14.5517 16.3994 14.5517C16.0678 14.5516 15.7759 14.4251 15.541 14.1904C15.3059 13.9553 15.1777 13.6621 15.1777 13.3301C15.1779 12.9981 15.3055 12.7061 15.541 12.4717C15.7759 12.2378 16.0675 12.1115 16.3984 12.1103ZM7.2959 14.1191C7.31143 14.1254 7.32689 14.1315 7.34277 14.1367C7.3269 14.1315 7.31142 14.1254 7.2959 14.1191ZM16.7422 14.1025C16.7504 14.0987 16.7585 14.0949 16.7666 14.0908C16.7585 14.0949 16.7504 14.0987 16.7422 14.1025ZM12.3447 14.1015C12.3513 14.0985 12.3577 14.0951 12.3643 14.0918C12.3577 14.0951 12.3513 14.0984 12.3447 14.1015ZM7.09277 14.001C7.10065 14.0072 7.10822 14.0136 7.11621 14.0195C7.10823 14.0136 7.10064 14.0072 7.09277 14.001ZM6.91016 13.8135C6.91602 13.8215 6.92252 13.829 6.92871 13.8369C6.92252 13.829 6.91602 13.8214 6.91016 13.8135ZM17.0703 13.8369C17.0765 13.829 17.083 13.8215 17.0889 13.8135C17.083 13.8214 17.0765 13.829 17.0703 13.8369ZM8.27246 13.834C8.27632 13.829 8.28045 13.8243 8.28418 13.8193C8.28044 13.8243 8.27633 13.829 8.27246 13.834ZM12.6729 13.834C12.6767 13.829 12.6808 13.8243 12.6846 13.8193C12.6808 13.8243 12.6767 13.829 12.6729 13.834ZM15.7148 13.8193C15.7186 13.8243 15.7227 13.829 15.7266 13.834C15.7227 13.829 15.7186 13.8243 15.7148 13.8193ZM6.79297 13.5869C6.79817 13.6028 6.80433 13.6182 6.81055 13.6338C6.80433 13.6183 6.79816 13.6028 6.79297 13.5869ZM17.1895 13.6318C17.1942 13.6198 17.199 13.6079 17.2031 13.5957C17.199 13.6079 17.1942 13.6198 17.1895 13.6318ZM8.39258 13.624C8.3958 13.6156 8.39844 13.6071 8.40137 13.5986C8.39843 13.6071 8.39581 13.6156 8.39258 13.624ZM12.793 13.624C12.7962 13.6156 12.7988 13.6071 12.8018 13.5986C12.7988 13.6071 12.7962 13.6156 12.793 13.624ZM15.5977 13.5986C15.6006 13.6071 15.6032 13.6156 15.6064 13.624C15.6032 13.6156 15.6006 13.6071 15.5977 13.5986ZM11.1523 13.3301L11.1533 13.331L11.1523 13.3301ZM12.8467 13.332H12.8477H12.8467ZM11.166 13.1816C11.163 13.1987 11.1611 13.216 11.1592 13.2334C11.1611 13.216 11.163 13.1987 11.166 13.1816ZM12.8398 13.2334C12.8379 13.2166 12.8359 13.2 12.833 13.1836C12.8359 13.2 12.8379 13.2166 12.8398 13.2334ZM15.5654 13.1846C15.5632 13.1975 15.5612 13.2105 15.5596 13.2236C15.5612 13.2105 15.5632 13.1975 15.5654 13.1846ZM12.7734 12.9931C12.768 12.9814 12.7629 12.9695 12.7568 12.958C12.7629 12.9695 12.768 12.9814 12.7734 12.9931ZM11.2441 12.9531C11.2373 12.966 11.2307 12.979 11.2246 12.9922C11.2307 12.979 11.2373 12.966 11.2441 12.9531ZM15.6445 12.9531C15.6377 12.966 15.6311 12.979 15.625 12.9922C15.6311 12.979 15.6377 12.966 15.6445 12.9531ZM17.1719 12.9892C17.1681 12.9811 17.1643 12.9729 17.1602 12.9648C17.1643 12.9729 17.1681 12.9811 17.1719 12.9892ZM7.07031 12.6777V12.6787V12.6777ZM8.10645 12.6601C8.09801 12.6535 8.08962 12.6469 8.08105 12.6406C8.08962 12.6469 8.09801 12.6535 8.10645 12.6601ZM12.5059 12.6601C12.498 12.6539 12.4904 12.6475 12.4824 12.6416C12.4904 12.6475 12.498 12.6539 12.5059 12.6601ZM16.9062 12.6601C16.8984 12.6539 16.8908 12.6475 16.8828 12.6416C16.8908 12.6475 16.8984 12.6539 16.9062 12.6601ZM16.7012 12.541C16.6892 12.5362 16.6772 12.5315 16.665 12.5273C16.6772 12.5315 16.6892 12.5362 16.7012 12.541ZM7.89551 12.539C7.88608 12.5354 7.87675 12.5316 7.86719 12.5283C7.87675 12.5316 7.88608 12.5354 7.89551 12.539ZM12.2969 12.539C12.2865 12.535 12.2762 12.5309 12.2656 12.5273C12.2762 12.5309 12.2865 12.535 12.2969 12.539ZM4.97852 5.87889C4.92581 5.87889 4.86102 5.89729 4.77637 5.98143C4.69267 6.0647 4.67458 6.12823 4.6748 6.18065V9.10545H19.3252V6.18065C19.3252 6.12909 19.3073 6.06452 19.2227 5.97947C19.1399 5.89639 19.0766 5.87882 19.0244 5.87889H4.97852ZM3.20703 6.00389C3.20227 6.06157 3.2002 6.12063 3.2002 6.18065C3.2002 6.12058 3.20225 6.0616 3.20703 6.00389ZM3.22754 5.84471C3.22293 5.87237 3.22022 5.90045 3.2168 5.92869C3.22023 5.90045 3.22292 5.87236 3.22754 5.84471ZM3.26465 5.67479C3.25705 5.7031 3.25038 5.73174 3.24414 5.76072C3.25039 5.73175 3.25703 5.70309 3.26465 5.67479ZM3.31641 5.51365C3.30364 5.54733 3.2919 5.58147 3.28125 5.61619C3.29193 5.58148 3.30361 5.54732 3.31641 5.51365ZM19.0215 5.50389C19.0744 5.50366 19.1256 5.51283 19.1758 5.52635C19.1259 5.5129 19.0742 5.50366 19.0215 5.50389ZM3.40234 5.3242C3.42832 5.27553 3.45632 5.22782 3.4873 5.18162C3.45633 5.22785 3.42829 5.2755 3.40234 5.3242ZM3.96777 4.6992C3.93846 4.71913 3.91016 4.74073 3.88184 4.76268C3.91016 4.74073 3.93845 4.71913 3.96777 4.6992ZM19.875 4.6035V4.60252V4.6035ZM4.0918 4.62303C4.06761 4.63655 4.04408 4.65122 4.02051 4.666C4.04408 4.65122 4.0676 4.63655 4.0918 4.62303ZM4.25488 4.54295C4.22371 4.5561 4.19334 4.5709 4.16309 4.58592C4.19335 4.5709 4.2237 4.5561 4.25488 4.54295ZM4.41211 4.48631C4.37433 4.49797 4.33733 4.51121 4.30078 4.52537C4.33734 4.51122 4.37432 4.49796 4.41211 4.48631ZM4.57031 4.44627C4.53267 4.45414 4.4955 4.4625 4.45898 4.47264C4.49551 4.4625 4.53267 4.45413 4.57031 4.44627ZM17.0781 4.4033V4.40428H19.0234C19.0865 4.40428 19.1485 4.40584 19.209 4.41111C19.1484 4.40581 19.0866 4.40331 19.0234 4.4033H17.0781ZM4.97852 4.4033L4.79199 4.41209C4.73484 4.41715 4.67886 4.4248 4.62402 4.43455C4.73697 4.41447 4.8548 4.40446 4.97754 4.40428L4.97852 4.4033ZM8.1084 4.4033V4.40428L15.9775 4.4033H8.1084ZM8.1084 2.54295L8.10254 2.45018C8.10166 2.4435 8.09873 2.43722 8.09766 2.43065C8.10343 2.46664 8.10857 2.50389 8.1084 2.54295ZM16.4141 1.95897C16.3064 1.97828 16.2132 2.02758 16.1348 2.10643C16.1087 2.13267 16.0859 2.16094 16.0664 2.19041C16.0269 2.24969 16.0005 2.31551 15.9873 2.38768V2.38865C16.0069 2.28045 16.0561 2.18669 16.1348 2.1074C16.2133 2.02836 16.3064 1.97844 16.4141 1.95897ZM17.0684 2.40135C17.0735 2.43273 17.0778 2.46516 17.0781 2.499C17.0778 2.46513 17.0735 2.43272 17.0684 2.40135ZM8.09277 2.4033C8.08694 2.37562 8.07982 2.34902 8.07031 2.32322C8.07974 2.34904 8.08703 2.37559 8.09277 2.4033ZM6.95898 2.33006C6.9523 2.34907 6.94713 2.36862 6.94238 2.38865C6.9471 2.3686 6.95232 2.34909 6.95898 2.33006ZM17.0596 2.36033C17.055 2.34153 17.0493 2.32349 17.043 2.30565C17.0493 2.32351 17.0551 2.34151 17.0596 2.36033ZM6.97754 2.28221C6.97547 2.28671 6.97363 2.29131 6.97168 2.29588C6.98475 2.26521 7.00008 2.23583 7.01855 2.20799L6.97754 2.28221ZM16.9199 2.10643L16.9189 2.1074C16.9679 2.1564 17.005 2.21159 17.0312 2.27244C17.0188 2.24391 17.0046 2.21636 16.9873 2.19041L16.9199 2.10643ZM7.94043 2.11815C7.9142 2.0921 7.8858 2.06983 7.85645 2.04979C7.8857 2.06977 7.91425 2.09213 7.94043 2.11815ZM7.83594 2.03807C7.81291 2.02373 7.78949 2.01076 7.76465 1.99998C7.78949 2.01075 7.81291 2.02374 7.83594 2.03807ZM7.63672 1.95994C7.67148 1.96615 7.70441 1.97648 7.73633 1.98826C7.7045 1.97649 7.67133 1.96614 7.63672 1.95994ZM3.58984 5.04393L3.49805 5.16502C3.49431 5.17046 3.49097 5.17615 3.4873 5.18162C3.51892 5.13448 3.55302 5.0885 3.58984 5.04393ZM3.39062 5.34861C3.37191 5.38519 3.35382 5.42199 3.33789 5.45994C3.35385 5.42202 3.37189 5.38517 3.39062 5.34861Z" fill="currentColor"/>
</svg>