<svg viewBox="0 0 16 16" fill="none" xmlns="http://www.w3.org/2000/svg">
<path fill-rule="evenodd" clip-rule="evenodd" d="M4.86513 1.31878C4.91459 1.22937 4.98711 1.15485 5.07515 1.10299C5.16319 1.05113 5.26353 1.02383 5.36571 1.02393H10.6343C10.7365 1.02383 10.8368 1.05113 10.9248 1.10299C11.0129 1.15485 11.0854 1.22937 11.1348 1.31878L12.2948 3.42164L12.688 3.45478L12.7634 3.4605C13.4252 3.51852 14.0482 3.79748 14.5323 4.25249C15.0163 4.70751 15.3332 5.31213 15.432 5.96907C15.5783 6.95535 15.7143 8.00336 15.7143 9.08221C15.7143 10.1611 15.5771 11.2091 15.432 12.1965C15.333 12.8532 15.016 13.4576 14.532 13.9124C14.0479 14.3672 13.425 14.646 12.7634 14.7039C11.1988 14.8388 9.60456 14.9759 7.99999 14.9759C6.39542 14.9759 4.80113 14.8388 3.23656 14.7039C2.57494 14.646 1.95204 14.3672 1.46802 13.9124C0.984006 13.4576 0.667003 12.8532 0.567991 12.1965C0.421706 11.2091 0.285706 10.1622 0.285706 9.08221C0.285706 8.00221 0.422848 6.9565 0.567991 5.96907C0.666769 5.31213 0.983669 4.70751 1.46771 4.25249C1.95174 3.79748 2.57477 3.51852 3.23656 3.4605L3.32799 3.45364L3.70513 3.4205L4.86513 1.31878ZM10.9863 8.74507C10.9863 10.6571 9.91199 11.7314 7.99999 11.7314C6.08913 11.7314 5.01371 10.6571 5.01371 8.74507C5.01371 6.83421 6.08799 5.75878 7.99999 5.75878C9.91085 5.75878 10.9863 6.83307 10.9863 8.74507Z" fill="#1A1A1A"/>
</svg>
