<svg  viewBox="0 0 242 110" fill="none" xmlns="http://www.w3.org/2000/svg">
<path d="M242 0H156C144.954 0 136 8.95431 136 20C136 31.0457 144.954 40 156 40H222C233.046 40 242 31.0457 242 20V0Z" fill="#1263FF"/>
<path d="M166.579 14.4054V18.0649H168.354V19.1478H166.579V23.4068H165.279V14.4054H166.579ZM157.138 18.297C157.128 16.5083 158.55 15.2514 160.401 15.2514C162.248 15.2514 163.65 16.5083 163.66 18.297C163.65 20.0808 162.248 21.3474 160.401 21.3474C158.55 21.3474 157.128 20.0808 157.138 18.297ZM158.41 18.297C158.4 19.433 159.28 20.2113 160.401 20.2113C161.532 20.2113 162.388 19.433 162.398 18.297C162.388 17.1512 161.532 16.3826 160.401 16.3826C159.28 16.3826 158.4 17.1512 158.41 18.297ZM158.816 26.4088V22.4689H160.106V25.3453H167.102V26.4088H158.816ZM171.089 15.1209V20.0663C173.062 20.0663 174.483 19.9744 176.093 19.6457L176.247 20.7093C174.497 21.0573 172.95 21.1492 170.732 21.1395H169.774V15.1209H171.089ZM171.022 24.3349C171.012 22.8605 172.588 21.9903 175.16 21.9903C177.727 21.9903 179.298 22.8605 179.303 24.3349C179.298 25.8046 177.727 26.6506 175.16 26.6602C172.588 26.6506 171.012 25.8046 171.022 24.3349ZM172.307 24.3349C172.298 25.1519 173.366 25.6257 175.16 25.6257C176.948 25.6257 178.012 25.1519 178.017 24.3349C178.012 23.4986 176.948 23.02 175.16 23.0104C173.366 23.02 172.298 23.4986 172.307 24.3349ZM174.628 18.9109V17.9102H177.968V16.7693H174.628V15.7541H177.968V14.4102H179.264V21.8791H177.968V18.9109H174.628ZM190.696 14.4102V19.375H192.659V20.453H190.696V26.6602H189.411V14.4102H190.696ZM181.086 17.3881V16.3294H184.107V14.5698H185.403V16.3294H188.342V17.3881H181.086ZM181.714 21.1443C181.71 19.4717 182.995 18.2921 184.765 18.2921C186.515 18.2921 187.801 19.4717 187.806 21.1443C187.801 22.8218 186.515 23.9869 184.765 23.9917C182.995 23.9869 181.71 22.8218 181.714 21.1443ZM182.957 21.1443C182.947 22.203 183.716 22.9137 184.765 22.9088C185.799 22.9137 186.558 22.203 186.568 21.1443C186.558 20.0905 185.799 19.3653 184.765 19.3653C183.716 19.3653 182.947 20.0905 182.957 21.1443ZM196.985 17.7555C196.985 19.7182 197.802 21.8018 199.446 22.8025L198.716 23.808C197.57 23.1167 196.797 21.8888 196.376 20.4724C195.927 22.0242 195.085 23.3488 193.896 24.0739L193.084 23.107C194.82 22.0725 195.728 19.9019 195.728 17.8135V15.5269H196.985V17.7555ZM198.112 19.7956V18.7175H200.021V14.6471H201.244V26.0559H200.021V19.7956H198.112ZM202.54 26.6602V14.4102H203.787V26.6602H202.54ZM216.563 24.0594V25.1326H205.353V24.0594H208.036V20.8543C207.026 20.3032 206.412 19.4233 206.412 18.326C206.412 16.3971 208.302 15.1305 210.927 15.1209C213.561 15.1305 215.456 16.3971 215.456 18.326C215.456 19.4088 214.862 20.2742 213.876 20.8301V24.0594H216.563ZM207.673 18.326C207.673 19.636 209.008 20.4917 210.927 20.4917C212.836 20.4917 214.19 19.636 214.19 18.326C214.19 17.0014 212.836 16.1602 210.927 16.1699C209.008 16.1602 207.673 17.0014 207.673 18.326ZM209.312 24.0594H212.566V21.328C212.063 21.4441 211.512 21.5069 210.927 21.5069C210.347 21.5069 209.805 21.4441 209.312 21.3329V24.0594ZM219.71 15.5994L219.584 22.6478H218.236L218.11 15.5994H219.71ZM217.946 24.625C217.936 24.0932 218.381 23.6581 218.917 23.6581C219.439 23.6581 219.884 24.0932 219.884 24.625C219.884 25.1568 219.439 25.5919 218.917 25.5919C218.381 25.5919 217.936 25.1568 217.946 24.625Z" fill="white"/>
<path d="M242 44H95C83.9543 44 75 52.9543 75 64V90C75 101.046 83.9543 110 95 110H222C233.046 110 242 101.046 242 90V44Z" fill="#1263FF"/>
<path d="M101.993 61.9302V62.9358H92.02V61.9302H96.3902V60.7555H97.6809V61.9302H101.993ZM91.4544 68.8481V67.8087H96.3902V66.9095C94.2196 66.8177 93.0014 66.2134 93.0062 65.1499C93.0014 63.9896 94.4613 63.3564 97.0283 63.3612C99.5953 63.3564 101.055 63.9896 101.055 65.1499C101.055 66.2134 99.8419 66.8177 97.6809 66.9095V67.8087H102.622V68.8481H91.4544ZM92.6581 70.7383V69.7376H101.166V73.1602H99.866V70.7383H92.6581ZM94.3356 65.1499C94.326 65.7203 95.2686 66.0152 97.0283 66.0152C98.788 66.0152 99.721 65.7203 99.7307 65.1499C99.721 64.5891 98.788 64.2749 97.0283 64.2749C95.2686 64.2749 94.326 64.5891 94.3356 65.1499ZM108.05 64.0283C108.04 66.2666 109.389 68.5193 111.289 69.3557L110.506 70.3902C109.099 69.7182 107.987 68.3405 107.412 66.663C106.846 68.4565 105.72 69.9406 104.255 70.6512L103.453 69.5684C105.381 68.7079 106.735 66.3681 106.745 64.0283V61.9302H108.05V64.0283ZM112.396 73.1844V60.9102H113.701V73.1844H112.396ZM132.7 60.9199V68.1809H131.404V66.6775H128.315V65.614H131.404V64.125H128.441C127.648 66.0925 125.811 67.4848 123.157 68.2486L122.635 67.2238C125.545 66.3971 127.232 64.8356 127.459 62.8633H123.268V61.7997H128.871C128.871 62.2541 128.827 62.6844 128.745 63.0953H131.404V60.9199H132.7ZM124.534 70.6996C124.534 69.2155 126.154 68.3115 128.668 68.3115C131.148 68.3115 132.772 69.2155 132.777 70.6996C132.772 72.1885 131.148 73.1022 128.668 73.1022C126.154 73.1022 124.534 72.1885 124.534 70.6996ZM125.825 70.6996C125.825 71.5649 126.918 72.0628 128.668 72.0628C130.384 72.0628 131.476 71.5649 131.481 70.6996C131.476 69.8294 130.384 69.3315 128.668 69.3363C126.918 69.3315 125.825 69.8294 125.825 70.6996ZM144.77 60.9102V73.1602H143.465V60.9102H144.77ZM134.705 69.8778C137.963 68.3308 139.549 66.1215 139.805 63.2645H135.3V62.23H141.13C141.12 65.8122 139.597 68.9206 135.392 70.9268L134.705 69.8778ZM150.962 63.1727C150.962 64.7244 152.045 66.1457 153.906 66.7403L153.288 67.7555C151.89 67.3059 150.875 66.3826 150.339 65.2175C149.807 66.5566 148.729 67.6202 147.254 68.1326L146.592 67.0981C148.502 66.4648 149.657 64.8791 149.667 63.1823V62.8439H146.969V61.7901H153.607V62.8439H150.962V63.1727ZM148.245 70.8398C148.245 69.3992 149.807 68.5628 152.355 68.5628C154.883 68.5628 156.425 69.3992 156.425 70.8398C156.425 72.2949 154.883 73.1409 152.355 73.1409C149.807 73.1409 148.245 72.2949 148.245 70.8398ZM149.546 70.8398C149.536 71.6568 150.585 72.116 152.355 72.116C154.119 72.116 155.154 71.6568 155.154 70.8398C155.154 70.0373 154.119 69.5877 152.355 69.5925C150.585 69.5877 149.536 70.0373 149.546 70.8398ZM155.013 68.2631V60.9102H156.314V63.9413H158.088V65.0145H156.314V68.2631H155.013ZM167.78 61.6547C170.4 61.6595 172.31 62.9503 172.31 64.9081C172.31 66.7403 170.705 67.9586 168.423 68.1519V70.5594H173.417V71.6326H162.206V70.5594H167.137V68.1471C164.865 67.9586 163.265 66.7403 163.265 64.9081C163.265 62.9503 165.175 61.6595 167.78 61.6547ZM164.527 64.9081C164.527 66.2811 165.895 67.1319 167.78 67.1416C169.68 67.1319 171.043 66.2811 171.043 64.9081C171.043 63.5787 169.68 62.7037 167.78 62.7086C165.895 62.7037 164.527 63.5787 164.527 64.9081ZM178.802 64.0283C178.792 66.2666 180.141 68.5193 182.041 69.3557L181.258 70.3902C179.851 69.7182 178.739 68.3405 178.164 66.663C177.598 68.4565 176.472 69.9406 175.007 70.6512L174.204 69.5684C176.133 68.7079 177.487 66.3681 177.497 64.0283V61.9302H178.802V64.0283ZM183.148 73.1844V60.9102H184.453V73.1844H183.148ZM196.587 60.9102V73.1602H195.281V60.9102H196.587ZM186.522 69.8778C189.78 68.3308 191.366 66.1215 191.622 63.2645H187.116V62.23H192.946C192.937 65.8122 191.414 68.9206 187.208 70.9268L186.522 69.8778ZM212.133 60.9199V69.8923H210.838V65.2949H208.488V64.2362H210.838V60.9199H212.133ZM201.928 67.3349C203.813 66.7017 204.988 65.087 204.988 63.3999V62.9164H202.329V61.8577H208.943V62.9164H206.303V63.3999C206.303 64.9275 207.41 66.4599 209.257 67.0787L208.594 68.1133C207.212 67.6347 206.201 66.6485 205.67 65.4399C205.128 66.7887 204.06 67.8715 202.6 68.3936L201.928 67.3349ZM204.181 72.9088V69.0946H205.476V71.8453H212.457V72.9088H204.181ZM224.557 60.9102V73.1602H223.309V60.9102H224.557ZM214.158 66.1989C214.158 63.5497 215.198 61.8916 216.793 61.8916C218.282 61.8916 219.292 63.3032 219.447 65.6043H220.829V61.1471H222.067V72.5559H220.829V66.6581H219.452C219.331 69.0511 218.311 70.5304 216.793 70.5256C215.198 70.5304 214.158 68.8626 214.158 66.1989ZM215.367 66.1989C215.357 68.1519 215.913 69.2977 216.793 69.288C217.697 69.2977 218.258 68.1519 218.258 66.1989C218.258 64.2507 217.697 63.1098 216.793 63.1098C215.913 63.1098 215.357 64.2507 215.367 66.1989ZM95.9068 83.6699C95.8971 85.3667 97.0525 86.9233 98.9378 87.547L98.2852 88.5718C96.8688 88.0739 95.8052 87.0829 95.2541 85.8018C94.7079 87.1747 93.6298 88.2576 92.1796 88.7797L91.5124 87.7597C93.4268 87.0877 94.5773 85.4247 94.5773 83.6699V82.4952H95.9068V83.6699ZM93.3108 90.9019V89.8481H101.616V94.1602H100.316V90.9019H93.3108ZM100.316 89.2631V81.9102H101.616V89.2631H100.316ZM107.799 85.0283C107.789 87.1941 109.055 89.413 110.873 90.3025L110.075 91.3419C108.736 90.6506 107.702 89.2776 107.165 87.6436C106.619 89.384 105.546 90.8488 104.153 91.5739L103.346 90.5297C105.227 89.6209 106.498 87.2762 106.508 85.0283V82.9302H107.799V85.0283ZM111.796 94.1602V81.9102H113.097V86.7977H115.06V87.9047H113.097V94.1602H111.796ZM125.196 81.9102V86.875H127.159V87.953H125.196V94.1602H123.911V81.9102H125.196ZM115.586 84.8881V83.8294H118.607V82.0698H119.903V83.8294H122.842V84.8881H115.586ZM116.214 88.6443C116.21 86.9717 117.495 85.7921 119.265 85.7921C121.015 85.7921 122.301 86.9717 122.306 88.6443C122.301 90.3218 121.015 91.4869 119.265 91.4917C117.495 91.4869 116.21 90.3218 116.214 88.6443ZM117.457 88.6443C117.447 89.703 118.216 90.4137 119.265 90.4088C120.299 90.4137 121.058 89.703 121.068 88.6443C121.058 87.5905 120.299 86.8653 119.265 86.8653C118.216 86.8653 117.447 87.5905 117.457 88.6443ZM137.663 83.0898V84.2887C137.659 85.8066 137.659 87.4986 137.195 90.0124L135.889 89.8674C136.358 87.4986 136.358 85.7631 136.368 84.2887V84.1436H128.928V83.0898H137.663ZM127.753 92.5069V91.4337H131.998V87.1119H133.284V91.4337H138.92V92.5069H127.753ZM148.845 82.6547C151.465 82.6595 153.374 83.9503 153.374 85.9081C153.374 87.7403 151.769 88.9586 149.488 89.1519V91.5594H154.481V92.6326H143.271V91.5594H148.202V89.1471C145.93 88.9586 144.33 87.7403 144.33 85.9081C144.33 83.9503 146.239 82.6595 148.845 82.6547ZM145.591 85.9081C145.591 87.2811 146.959 88.1319 148.845 88.1416C150.745 88.1319 152.108 87.2811 152.108 85.9081C152.108 84.5787 150.745 83.7037 148.845 83.7086C146.959 83.7037 145.591 84.5787 145.591 85.9081ZM159.866 85.0283C159.857 87.2666 161.205 89.5193 163.105 90.3557L162.322 91.3902C160.915 90.7182 159.803 89.3405 159.228 87.663C158.663 89.4565 157.536 90.9406 156.071 91.6512L155.269 90.5684C157.198 89.7079 158.551 87.3681 158.561 85.0283V82.9302H159.866V85.0283ZM164.212 94.1844V81.9102H165.518V94.1844H164.212ZM178.913 86.7203V87.7935H177.013V94.1457H175.712V81.9102H177.013V86.7203H178.913ZM167.934 91.076V83.1043H169.225V89.9979C170.936 89.9834 172.715 89.8384 174.654 89.442L174.804 90.5394C172.71 90.9551 170.782 91.076 168.94 91.076H167.934ZM190.78 91.5594V92.6326H179.57V91.5594H182.253V88.3543C181.242 87.8032 180.628 86.9233 180.628 85.826C180.628 83.8971 182.519 82.6305 185.144 82.6209C187.778 82.6305 189.673 83.8971 189.673 85.826C189.673 86.9088 189.079 87.7742 188.092 88.3301V91.5594H190.78ZM181.89 85.826C181.89 87.136 183.224 87.9917 185.144 87.9917C187.053 87.9917 188.407 87.136 188.407 85.826C188.407 84.5014 187.053 83.6602 185.144 83.6699C183.224 83.6602 181.89 84.5014 181.89 85.826ZM183.529 91.5594H186.782V88.828C186.28 88.9441 185.728 89.0069 185.144 89.0069C184.563 89.0069 184.022 88.9441 183.529 88.8329V91.5594ZM193.68 90.0608C193.695 88.2673 194.222 87.721 195.121 87.1699C195.696 86.8122 196.141 86.3094 196.141 85.5843C196.141 84.7334 195.479 84.192 194.657 84.192C193.922 84.192 193.207 84.6464 193.144 85.6568H191.664C191.722 83.9164 193.037 82.9641 194.662 82.9641C196.441 82.9641 197.63 84.0276 197.63 85.5988C197.63 86.6865 197.103 87.4213 196.233 87.953C195.411 88.451 195.092 88.9489 195.077 90.0608V90.1478H193.68V90.0608ZM193.448 92.125C193.439 91.5932 193.883 91.1581 194.42 91.1581C194.942 91.1581 195.387 91.5932 195.387 92.125C195.387 92.6568 194.942 93.0919 194.42 93.0919C193.883 93.0919 193.439 92.6568 193.448 92.125Z" fill="white"/>
<path d="M28.1671 96.1326C30.413 96.1367 32.0497 97.2431 32.0497 98.9213C32.0497 100.492 30.674 101.536 28.7182 101.702V103.765H32.9986V104.685H23.3895V103.765H27.616V101.698C25.6685 101.536 24.297 100.492 24.297 98.9213C24.297 97.2431 25.9337 96.1367 28.1671 96.1326ZM25.3785 98.9213C25.3785 100.098 26.5511 100.827 28.1671 100.836C29.7956 100.827 30.9641 100.098 30.9641 98.9213C30.9641 97.7818 29.7956 97.0318 28.1671 97.0359C26.5511 97.0318 25.3785 97.7818 25.3785 98.9213ZM42.7937 96.6588V97.5663H34.2454V96.6588H37.9871V95.453H39.0893V96.6588H42.7937ZM33.7606 103.202V102.29H43.3697V103.202H39.0893V106.011H37.9871V103.202H33.7606ZM35.0451 99.8743C35.041 98.7307 36.3504 98.105 38.5382 98.105C40.7178 98.105 42.0272 98.7307 42.0313 99.8743C42.0272 101.001 40.7178 101.631 38.5382 101.635C36.3504 101.631 35.041 101.001 35.0451 99.8743ZM36.2012 99.8743C36.1929 100.467 37.0299 100.798 38.5382 100.79C40.0382 100.798 40.8752 100.467 40.8835 99.8743C40.8752 99.2735 40.0382 98.942 38.5382 98.942C37.0299 98.942 36.1929 99.2735 36.2012 99.8743ZM50.6415 96.5138V105H49.3487V97.8066H49.2989L47.2727 99.1285V97.8978L49.3818 96.5138H50.6415ZM53.6337 105.079C53.1737 105.079 52.7925 104.706 52.8008 104.25C52.7925 103.794 53.1737 103.421 53.6337 103.421C54.0812 103.421 54.4624 103.794 54.4624 104.25C54.4624 104.706 54.0812 105.079 53.6337 105.079ZM52.8091 99.6174C52.8008 99.1616 53.182 98.7887 53.6419 98.7887C54.0895 98.7887 54.4707 99.1616 54.4707 99.6174C54.4707 100.073 54.0895 100.446 53.6419 100.446C53.182 100.446 52.8008 100.073 52.8091 99.6174ZM58.9731 105.116C57.2204 105.116 55.969 104.171 55.9234 102.783H57.2287C57.2742 103.529 58.0159 104.006 58.9607 104.006C59.9883 104.006 60.7342 103.446 60.73 102.626C60.7342 101.785 60.038 101.184 58.8198 101.184H58.0988V100.131H58.8198C59.7894 100.131 60.4648 99.5925 60.4648 98.7804C60.4648 98.0014 59.8847 97.4793 58.9897 97.4793C58.1361 97.4793 57.3778 97.9517 57.3447 98.7182H56.1016C56.143 97.3384 57.4151 96.3978 59.0021 96.3978C60.6679 96.3978 61.7204 97.4544 61.7121 98.7141C61.7204 99.6713 61.1237 100.367 60.2121 100.587V100.653C61.364 100.815 62.0394 101.594 62.0311 102.671C62.0394 104.084 60.7342 105.116 58.9731 105.116ZM63.2708 103.343V102.302L67.0167 96.5138H68.6161V102.253H69.768V103.343H68.6161V105H67.3854V103.343H63.2708ZM64.6216 102.253H67.3937V98.047H67.3026L64.6216 102.186V102.253Z" fill="#B4B4B4"/>
</svg>
