<svg  viewBox="0 0 343 48" fill="none" xmlns="http://www.w3.org/2000/svg">
<rect width="343" height="48" rx="24" fill="white"/>
<rect x="8" y="8" width="32" height="32" rx="16" fill="white"/>
<path d="M24 31.5C23.7639 31.5 23.5661 31.42 23.4067 31.26C23.2472 31.1 23.1672 30.9022 23.1667 30.6667V24.8333H17.3333C17.0972 24.8333 16.8994 24.7533 16.74 24.5933C16.5806 24.4333 16.5006 24.2356 16.5 24C16.4994 23.7644 16.5794 23.5667 16.74 23.4067C16.9006 23.2467 17.0983 23.1667 17.3333 23.1667H23.1667V17.3333C23.1667 17.0972 23.2467 16.8994 23.4067 16.74C23.5667 16.5806 23.7644 16.5006 24 16.5C24.2356 16.4994 24.4336 16.5794 24.5942 16.74C24.7547 16.9006 24.8344 17.0983 24.8333 17.3333V23.1667H30.6667C30.9028 23.1667 31.1008 23.2467 31.2608 23.4067C31.4208 23.5667 31.5006 23.7644 31.5 24C31.4994 24.2356 31.4194 24.4336 31.26 24.5942C31.1006 24.7547 30.9028 24.8344 30.6667 24.8333H24.8333V30.6667C24.8333 30.9028 24.7533 31.1008 24.5933 31.2608C24.4333 31.4208 24.2356 31.5006 24 31.5Z" fill="#656667"/>
<path d="M58.4254 18.9006V22.5414H60.2983V17.5967H61.7127V30.6354H60.2983V23.7624H58.4254V27.6354H52.989V18.9006H58.4254ZM54.3867 26.4586H57.0331V20.0773H54.3867V26.4586ZM63.1326 31.326V17.326H64.558V31.326H63.1326ZM70.6127 21.1492C70.6127 23.3923 71.5464 25.7735 73.4248 26.9171L72.5906 28.0663C71.2812 27.2762 70.3972 25.8729 69.9165 24.2541C69.4027 26.0276 68.4414 27.5414 67.0823 28.3702L66.1541 27.2652C68.1375 26.0829 69.1762 23.6022 69.1762 21.2155V18.6022H70.6127V21.1492ZM71.8999 23.4807V22.2486H74.0823V17.5967H75.4801V30.6354H74.0823V23.4807H71.8999ZM76.9607 31.326V17.326H78.3861V31.326H76.9607ZM85.3248 21.4586C85.3248 23.7956 86.8607 26.2155 89.0154 27.1326L88.2032 28.3039C86.5513 27.5746 85.2474 26.0276 84.5955 24.1713C83.9435 26.1602 82.6286 27.8619 81.0043 28.6519L80.1369 27.4807C82.2474 26.4972 83.8109 23.8619 83.822 21.4586V19.9613H80.6286V18.7348H88.5181V19.9613H85.3248V21.4586ZM90.2806 31.326V17.326H91.7723V31.326H90.2806ZM106.794 23.7514V24.8895H93.9816V23.7514H106.794ZM95.5009 26.9392V25.8674H105.219V28.9558H96.9982V30.1105H105.656V31.1602H95.5175V27.9669H103.75V26.9392H95.5009ZM95.5893 18.7348V17.6906H105.181V20.7182H97.0976V21.7845H105.424V22.8287H95.628V19.7403H103.7V18.7348H95.5893ZM123.351 17.326V24.8398H121.865V17.326H123.351ZM112.02 21.2265C112.02 19.2928 113.6 17.9613 115.749 17.9724C117.893 17.9613 119.467 19.2928 119.467 21.2265C119.467 23.1326 117.893 24.4641 115.749 24.4586C113.6 24.4641 112.02 23.1326 112.02 21.2265ZM113.473 21.2265C113.462 22.4254 114.418 23.232 115.749 23.2376C117.064 23.232 118.014 22.4254 118.014 21.2265C118.014 20.0221 117.064 19.2099 115.749 19.221C114.418 19.2099 113.462 20.0221 113.473 21.2265ZM114.186 31.1492V25.5193H115.639V27.0884H121.876V25.5193H123.351V31.1492H114.186ZM115.639 29.9392H121.876V28.2597H115.639V29.9392ZM132.229 18.1713V22.2486H127.616V24.1934C130.052 24.1878 131.378 24.1326 132.947 23.8398L133.091 25.0497C131.384 25.337 129.947 25.3812 127.157 25.3867H126.146V21.1215H130.754V19.3536H126.119V18.1713H132.229ZM127.726 27.8564V26.6575H137.235V31.3425H135.754V27.8564H127.726ZM133.119 23.4917V22.2928H135.754V20.5635H133.119V19.3757H135.754V17.337H137.235V25.9448H135.754V23.4917H133.119ZM146.306 19.6464V20.8453H139.361V19.6464H142.113V17.7403H143.582V19.6464H146.306ZM139.814 24.9061C139.803 23.0221 141.085 21.6851 142.847 21.6851C144.615 21.6851 145.881 23.0221 145.892 24.9061C145.881 26.8177 144.615 28.1602 142.847 28.1602C141.085 28.1602 139.803 26.8177 139.814 24.9061ZM141.118 24.9061C141.118 26.0939 141.836 26.895 142.847 26.884C143.853 26.895 144.577 26.0939 144.577 24.9061C144.577 23.7403 143.853 22.9282 142.847 22.9227C141.836 22.9282 141.118 23.7403 141.118 24.9061ZM146.958 30.6685V17.6409H148.356V23.1602H149.969V17.326H151.383V31.326H149.969V24.3702H148.356V30.6685H146.958ZM165.985 25.2155V26.4254H160.3V31.3204H158.841V26.4254H153.222V25.2155H165.985ZM153.935 22.9834C156.548 22.6298 158.714 21.0663 158.764 19.3425H154.405V18.1602H164.786V19.3425H160.443C160.477 21.0663 162.637 22.6298 165.278 22.9834L164.731 24.1547C162.438 23.7956 160.455 22.663 159.598 21.0663C158.742 22.663 156.758 23.7956 154.493 24.1547L153.935 22.9834ZM171.316 21.1492C171.316 23.3923 172.249 25.7735 174.128 26.9171L173.294 28.0663C171.984 27.2762 171.1 25.8729 170.62 24.2541C170.106 26.0276 169.145 27.5414 167.785 28.3702L166.857 27.2652C168.841 26.0829 169.879 23.6022 169.879 21.2155V18.6022H171.316V21.1492ZM172.603 23.4807V22.2486H174.785V17.5967H176.183V30.6354H174.785V23.4807H172.603ZM177.664 31.326V17.326H179.089V31.326H177.664ZM193.691 28.3536V29.5801H180.879V28.3536H183.945V24.6906C182.79 24.0608 182.089 23.0552 182.089 21.8011C182.089 19.5967 184.249 18.1492 187.249 18.1381C190.26 18.1492 192.426 19.5967 192.426 21.8011C192.426 23.0387 191.746 24.0276 190.619 24.663V28.3536H193.691ZM183.531 21.8011C183.531 23.2983 185.056 24.2762 187.249 24.2762C189.431 24.2762 190.978 23.2983 190.978 21.8011C190.978 20.2873 189.431 19.326 187.249 19.337C185.056 19.326 183.531 20.2873 183.531 21.8011ZM185.404 28.3536H189.122V25.232C188.547 25.3646 187.917 25.4365 187.249 25.4365C186.586 25.4365 185.967 25.3646 185.404 25.2376V28.3536ZM196.298 30.105C195.685 30.105 195.176 29.6077 195.188 29C195.176 28.3923 195.685 27.895 196.298 27.895C196.895 27.895 197.403 28.3923 197.403 29C197.403 29.6077 196.895 30.105 196.298 30.105Z" fill="#868789"/>
<path d="M299 24C299 15.1634 306.163 8 315 8C323.837 8 331 15.1634 331 24C331 32.8366 323.837 40 315 40C306.163 40 299 32.8366 299 24Z" fill="#1263FF"/>
<path d="M322 16.875L316.575 32.375L313.475 25.4L306.5 22.3L322 16.875Z" stroke="white" stroke-width="1.8" stroke-linejoin="round"/>
<path d="M322 16.875L313.475 25.4" stroke="white" stroke-width="1.8" stroke-linecap="round" stroke-linejoin="round"/>
</svg>
