<svg xmlns="http://www.w3.org/2000/svg"  viewBox="0 0 38 38" fill="currentColor">
<g clip-path="url(#clip0_1_7659)">
<mask id="mask0_1_7659" style="mask-type:alpha" maskUnits="userSpaceOnUse" x="0" y="0" width="38" height="38">
<rect x="0.3125" y="0.1875" width="37.6562" height="37.6562" fill="#D9D9D9"/>
</mask>
<g mask="url(#mask0_1_7659)">
<path d="M15.6123 24.9014C16.3476 25.6367 17.5398 25.6367 18.275 24.9014L26.9069 16.2696C27.5135 15.663 27.5135 14.6795 26.9069 14.0729C26.3003 13.4664 25.3169 13.4664 24.7103 14.0729L17.4762 21.307C17.1821 21.6011 16.7053 21.6011 16.4111 21.307L13.5703 18.4662C12.9637 17.8596 11.9803 17.8596 11.3737 18.4662C10.7671 19.0728 10.7671 20.0562 11.3737 20.6628L15.6123 24.9014ZM19.1403 34.7054C16.9698 34.7054 14.9301 34.2936 13.0212 33.4698C11.1122 32.6461 9.45166 31.5282 8.03955 30.1161C6.62744 28.704 5.50952 27.0434 4.68579 25.1345C3.86206 23.2255 3.4502 21.1858 3.4502 19.0153C3.4502 16.8449 3.86206 14.8052 4.68579 12.8962C5.50952 10.9872 6.62744 9.32669 8.03955 7.91458C9.45166 6.50247 11.1122 5.38455 13.0212 4.56082C14.9301 3.73709 16.9698 3.32523 19.1403 3.32523C21.3108 3.32523 23.3505 3.73709 25.2594 4.56082C27.1684 5.38455 28.8289 6.50247 30.241 7.91458C31.6532 9.32669 32.7711 10.9872 33.5948 12.8962C34.4185 14.8052 34.8304 16.8449 34.8304 19.0153C34.8304 21.1858 34.4185 23.2255 33.5948 25.1345C32.7711 27.0434 31.6532 28.704 30.241 30.1161C28.8289 31.5282 27.1684 32.6461 25.2594 33.4698C23.3505 34.2936 21.3108 34.7054 19.1403 34.7054Z" fill="currentColor"/>
</g>
</g>
<defs>
<clipPath id="clip0_1_7659">
<rect width="37.6562" height="37.6562" fill="white" transform="translate(0.3125 0.1875)"/>
</clipPath>
</defs>
</svg>