<svg xmlns="http://www.w3.org/2000/svg" width="22" height="22" viewBox="0 0 23 22" fill="none">
<path d="M19.3054 11C19.3054 8.79718 18.4313 6.68399 16.8736 5.12637C15.316 3.56874 13.2028 2.69458 11 2.69458C8.79718 2.69458 6.68399 3.56874 5.12637 5.12637C3.56874 6.68399 2.69458 8.79718 2.69458 11C2.69458 12.0907 2.90923 13.1709 3.32663 14.1786C3.74403 15.1862 4.35515 16.1024 5.12637 16.8736C5.89758 17.6448 6.81375 18.256 7.82138 18.6734C8.82908 19.0908 9.90928 19.3054 11 19.3054C12.0907 19.3054 13.1709 19.0908 14.1786 18.6734C15.1862 18.256 16.1024 17.6448 16.8736 16.8736C17.6448 16.1024 18.256 15.1862 18.6734 14.1786C19.0908 13.1709 19.3054 12.0907 19.3054 11ZM21.5 11C21.5 12.3788 21.2288 13.7449 20.7011 15.0188C20.1735 16.2925 19.3988 17.449 18.4239 18.4239C17.449 19.3988 16.2925 20.1735 15.0188 20.7011C13.7449 21.2288 12.3788 21.5 11 21.5C9.62116 21.5 8.25508 21.2288 6.9812 20.7011C5.70747 20.1735 4.55097 19.3988 3.57608 18.4239C2.6012 17.449 1.82652 16.2925 1.29886 15.0188C0.771204 13.7449 0.5 12.3788 0.5 11C0.5 8.21531 1.60701 5.54516 3.57608 3.57608C5.54516 1.60701 8.21531 0.5 11 0.5C13.7847 0.5 16.4548 1.60701 18.4239 3.57608C20.393 5.54516 21.5 8.21531 21.5 11Z" fill="currentColor"/>
<path d="M9.90271 5.77624C9.90271 5.1704 10.3942 4.67896 11 4.67896C11.6058 4.67896 12.0973 5.1704 12.0973 5.77624V10.5449L14.9101 13.3578L15.0509 13.5307C15.3318 13.9564 15.2847 14.5348 14.9101 14.9096C14.4817 15.338 13.7867 15.338 13.3583 14.9096L10.2241 11.7754C10.0185 11.5697 9.90271 11.2903 9.90271 10.9995V5.77624Z" fill="currentColor"/>
</svg>
