<svg viewBox="0 0 16 16" fill="none" xmlns="http://www.w3.org/2000/svg">
<rect width="16" height="16" rx="8" fill="currentColor"/>
<rect width="16" height="16" rx="8" fill="currentColor"/>
<path d="M8.00049 5.46423C8.1013 5.4643 8.20066 5.48991 8.28955 5.53748C8.37846 5.5851 8.4543 5.65376 8.51025 5.73767L9.36768 7.02576C9.44938 7.14826 9.57616 7.23362 9.72021 7.26404C9.8644 7.29435 10.0149 7.26709 10.1392 7.18787L11.4419 6.35876C11.9122 6.05955 12.5055 6.49216 12.3647 7.03162L11.4731 10.4232C11.4387 10.5543 11.3617 10.6705 11.2544 10.7533C11.1472 10.836 11.0158 10.8811 10.8804 10.8812H5.12061C4.98511 10.8812 4.85289 10.8361 4.74561 10.7533C4.6384 10.6705 4.56126 10.5542 4.52686 10.4232L3.63525 7.03162C3.49398 6.49221 4.08785 6.05906 4.55811 6.35876L5.86084 7.18884C5.98512 7.268 6.1356 7.29543 6.27979 7.26501C6.42403 7.23457 6.55062 7.14847 6.63232 7.02576L7.48975 5.73767C7.54567 5.6538 7.62161 5.5851 7.71045 5.53748C7.79945 5.48985 7.89954 5.46423 8.00049 5.46423Z" fill="white" stroke="white" stroke-width="0.05"/>
<path d="M3.55518 4.99207C3.70923 4.99207 3.85737 5.05403 3.96631 5.16296C4.07506 5.27185 4.13623 5.41916 4.13623 5.57312C4.13622 5.64918 4.12132 5.7245 4.09229 5.7948C4.06316 5.86523 4.02015 5.92934 3.96631 5.98328C3.9124 6.03724 3.84829 6.08002 3.77783 6.10925C3.70751 6.13842 3.63228 6.15407 3.55615 6.15417C3.47996 6.15422 3.40392 6.13932 3.3335 6.11023C3.26309 6.08111 3.19895 6.03807 3.14502 5.98425C3.0911 5.93039 3.04827 5.86616 3.01904 5.79578C2.98981 5.72532 2.97416 5.6494 2.97412 5.57312C2.97419 5.41915 3.03614 5.27184 3.14502 5.16296C3.2539 5.05409 3.4012 4.99212 3.55518 4.99207ZM12.4438 4.99207C12.5979 4.99207 12.746 5.05403 12.855 5.16296C12.9637 5.27185 13.0249 5.41915 13.0249 5.57312C13.0249 5.72699 12.9637 5.87438 12.855 5.98328C12.7462 6.09217 12.5987 6.15398 12.4448 6.15417C12.2909 6.15426 12.1427 6.09302 12.0337 5.98425C11.9247 5.87538 11.8629 5.72718 11.8628 5.57312C11.8629 5.41915 11.9248 5.27184 12.0337 5.16296C12.1426 5.05409 12.2899 4.99213 12.4438 4.99207ZM7.99854 3.87976C8.15254 3.8796 8.30063 3.94094 8.40967 4.04968C8.51872 4.1585 8.5804 4.30676 8.58057 4.46082C8.58062 4.61463 8.51925 4.76204 8.41064 4.87097C8.30193 4.97992 8.15439 5.04159 8.00049 5.04187C7.84643 5.04203 7.69841 4.98077 7.58936 4.87195C7.48035 4.76317 7.41866 4.61579 7.41846 4.46179C7.41829 4.30773 7.47956 4.15971 7.58838 4.05066C7.69712 3.94173 7.84462 3.88 7.99854 3.87976Z" fill="white" stroke="white" stroke-width="0.05"/>
<path d="M10.6396 11.2318C10.7242 11.2318 10.8054 11.2658 10.8652 11.3256C10.925 11.3854 10.9589 11.4666 10.959 11.5511C10.959 11.6357 10.925 11.7169 10.8652 11.7767C10.8054 11.8365 10.7242 11.8704 10.6396 11.8705H5.5C5.41543 11.8704 5.33422 11.8365 5.27441 11.7767C5.21467 11.7169 5.18066 11.6357 5.18066 11.5511C5.18071 11.4666 5.21461 11.3854 5.27441 11.3256C5.33422 11.2658 5.41543 11.2319 5.5 11.2318H10.6396Z" fill="white" stroke="white" stroke-width="0.05"/>
</svg>
