<svg viewBox="0 0 24 24" fill="none" xmlns="http://www.w3.org/2000/svg">
<path d="M10.4283 3.45108C10.5097 3.49145 10.5812 3.54936 10.6376 3.62065C10.694 3.69194 10.7339 3.77484 10.7545 3.86338C10.7766 3.96062 11.3846 6.56246 11.3846 8.30769C11.3846 9.47692 10.8406 10.5194 9.99385 11.1951C9.68615 11.4412 9.53846 11.7095 9.53846 11.9335V12.5317C9.53846 12.5604 9.5401 12.5875 9.54339 12.6129C9.58523 12.9182 9.73662 14.0517 9.87815 15.2271C10.0172 16.3803 10.1538 17.6382 10.1538 18.1538C10.1538 18.8067 9.89451 19.4328 9.43288 19.8944C8.97125 20.356 8.34515 20.6154 7.69231 20.6154C7.03947 20.6154 6.41337 20.356 5.95174 19.8944C5.49011 19.4328 5.23077 18.8067 5.23077 18.1538C5.23077 17.6369 5.36738 16.3815 5.50646 15.2271C5.648 14.0517 5.79938 12.9182 5.84123 12.6129L5.84615 12.5317V11.9335C5.84615 11.7095 5.69846 11.4412 5.39077 11.1951C4.9569 10.8492 4.60656 10.41 4.36578 9.91015C4.125 9.41026 3.99998 8.86254 4 8.30769C4 6.56861 4.60308 3.98031 4.63015 3.86461C4.66215 3.7278 4.73956 3.60587 4.84975 3.5187C4.95994 3.43153 5.09642 3.38426 5.23692 3.38461C5.58154 3.38461 5.86092 3.664 5.86092 4.00862V7.69846C5.85607 7.78158 5.86831 7.8648 5.89687 7.943C5.92544 8.0212 5.96973 8.09272 6.02701 8.15314C6.08429 8.21355 6.15335 8.26159 6.22992 8.29428C6.30649 8.32696 6.38895 8.34361 6.4722 8.34319C6.55546 8.34277 6.63774 8.32529 6.71397 8.29183C6.79021 8.25837 6.85878 8.20963 6.91545 8.14864C6.97211 8.08765 7.01568 8.01569 7.04345 7.9372C7.07122 7.85871 7.08262 7.77537 7.07692 7.69231V4C7.07692 3.83679 7.14176 3.68026 7.25717 3.56486C7.37257 3.44945 7.5291 3.38461 7.69231 3.38461C7.85552 3.38461 8.01204 3.44945 8.12745 3.56486C8.24286 3.68026 8.30769 3.83679 8.30769 4V7.72431C8.31112 7.88589 8.37859 8.03948 8.49527 8.15131C8.61195 8.26314 8.76827 8.32404 8.92985 8.32061C9.09142 8.31719 9.24502 8.24971 9.35685 8.13304C9.46868 8.01636 9.52958 7.86004 9.52615 7.69846V4.00615C9.52615 3.66277 9.80431 3.38461 10.1489 3.38461C10.176 3.38461 10.2966 3.38462 10.4283 3.45108ZM13.2308 8.92308C13.2308 7.45419 13.8143 6.04546 14.8529 5.00679C15.8916 3.96813 17.3003 3.38461 18.7692 3.38461C18.9324 3.38461 19.089 3.44945 19.2044 3.56486C19.3198 3.68026 19.3846 3.83679 19.3846 4V11.3514L19.408 11.5692C19.5059 12.4878 19.5998 13.4068 19.6898 14.3262C19.8412 15.872 20 17.6049 20 18.1538C20 18.8067 19.7407 19.4328 19.279 19.8944C18.8174 20.356 18.1913 20.6154 17.5385 20.6154C16.8856 20.6154 16.2595 20.356 15.7979 19.8944C15.3363 19.4328 15.0769 18.8067 15.0769 18.1538C15.0769 17.6049 15.2357 15.872 15.3871 14.3262C15.4646 13.5422 15.5422 12.7914 15.6 12.2351L15.6246 12H14.4615C14.1351 12 13.8221 11.8703 13.5913 11.6395C13.3604 11.4087 13.2308 11.0957 13.2308 10.7692V8.92308Z" fill="currentColor"/>
</svg>
