<svg width="87" height="97" viewBox="0 0 86 97" fill="none" xmlns="http://www.w3.org/2000/svg">
<g clip-path="url(#clip0_1200_1241)">
<path d="M42.2683 96.5111C54.4354 96.5111 64.2915 94.7172 64.2915 92.5066C64.2915 90.296 54.4284 88.5021 42.2683 88.5021C30.1082 88.5021 20.2451 90.296 20.2451 92.5066C20.2451 94.7172 30.1082 96.5111 42.2683 96.5111Z" fill="white"/>
<path d="M43.6673 0.699463C64.7299 0.699463 81.8111 18.0241 81.8111 39.4028C81.8111 60.7814 64.7299 78.1061 43.6673 78.1061C22.6046 78.1061 5.52344 60.7743 5.52344 39.4028C5.52344 18.0241 22.5977 0.699463 43.6673 0.699463Z" stroke="#BBC1CA" stroke-width="1.97" stroke-linecap="round" stroke-linejoin="round" stroke-dasharray="7.82 7.82"/>
<path d="M14.252 14.1887C14.5443 15.0857 14.8227 15.9826 15.0872 16.8867" stroke="#BBC1CA" stroke-width="1.97" stroke-linecap="round" stroke-linejoin="round"/>
<path d="M16.0615 54.2484C16.1791 53.7173 16.7052 53.3819 17.2364 53.4994C17.7673 53.617 18.1029 54.1431 17.9854 54.6742C17.7581 55.7014 17.5098 56.7284 17.2412 57.7552C17.1036 58.2815 16.5653 58.5969 16.0391 58.4594C15.5128 58.3217 15.1974 57.7835 15.335 57.2572C15.5973 56.2542 15.8396 55.2512 16.0615 54.2484ZM18.2764 42.5205C18.8194 42.5519 19.2343 43.0176 19.2032 43.5606C19.0817 45.665 18.8735 47.7694 18.5791 49.8731C18.5037 50.4117 18.0064 50.7872 17.4678 50.7119C16.929 50.6366 16.5536 50.1384 16.6289 49.5996L16.7324 48.8311C16.9651 47.0363 17.1328 45.2417 17.2364 43.4473C17.2677 42.9043 17.7334 42.4893 18.2764 42.5205ZM18.8907 30.8877C19.0883 32.7337 19.2194 34.5803 19.2842 36.4268L19.3076 37.2178L19.3047 37.3184C19.2667 37.8162 18.8574 38.2137 18.3477 38.2266C17.8038 38.2401 17.3514 37.8105 17.3379 37.2666C17.2869 35.2105 17.1519 33.1541 16.9317 31.0977L18.8907 30.8877ZM17.8057 30.0137C18.3465 29.9558 18.8326 30.347 18.8907 30.8877L16.9317 31.0977C16.8739 30.5569 17.265 30.0717 17.8057 30.0137ZM16.1348 20.7715C16.665 20.6502 17.1931 20.9815 17.3145 21.5117C17.4921 22.2874 17.6583 23.063 17.8125 23.8389L17.9629 24.6153L17.9766 24.7149C18.0192 25.2123 17.6788 25.6709 17.1778 25.7656C16.6765 25.8602 16.1924 25.557 16.0508 25.0781L16.0264 24.9805L15.7256 23.4658C15.6202 22.961 15.5102 22.456 15.3946 21.9512C15.2732 21.4209 15.6045 20.8929 16.1348 20.7715Z" fill="#BBC1CA"/>
<path d="M15.0941 61.353C14.8296 62.25 14.5511 63.1469 14.2588 64.051" stroke="#BBC1CA" stroke-width="1.97" stroke-linecap="round" stroke-linejoin="round"/>
<path d="M60.5 4.99927C59.9988 5.80441 59.9546 5.82635 59.4883 6.63149" stroke="#BBC1CA" stroke-width="1.97" stroke-linecap="round" stroke-linejoin="round"/>
<path d="M56.5815 63.2389C57.1043 64.3547 57.6592 65.4693 58.2446 66.5826C58.4976 67.0641 58.312 67.6596 57.8306 67.9127C57.3492 68.1657 56.7537 67.981 56.5005 67.4996C55.9013 66.3602 55.3333 65.2178 54.7974 64.0739L55.6899 63.6569L56.5815 63.2389ZM55.272 62.7643C55.7645 62.5337 56.3508 62.7463 56.5815 63.2389L54.7974 64.0739C54.567 63.5813 54.7795 62.995 55.272 62.7643ZM52.5967 51.4222C53.0641 53.5135 53.6467 55.5999 54.3408 57.682L54.6446 58.5746L54.6729 58.6713C54.7888 59.1568 54.5206 59.6605 54.0391 59.8285C53.5575 59.9965 53.0335 59.7692 52.8223 59.3168L52.7852 59.223L52.4717 58.305C51.7572 56.1618 51.1564 54.0108 50.6738 51.8519L52.5967 51.4222ZM51.4209 50.6752C51.9517 50.5567 52.4781 50.8914 52.5967 51.4222L50.6738 51.8519C50.5552 51.321 50.89 50.7938 51.4209 50.6752ZM50.2891 35.642C50.8324 35.6637 51.2549 36.122 51.2334 36.6654C51.135 39.1467 51.2036 41.6202 51.4336 44.0853C51.484 44.6268 51.0855 45.107 50.544 45.1576C50.0025 45.2078 49.5222 44.8094 49.4717 44.2679C49.2337 41.7171 49.1637 39.1566 49.2656 36.5873C49.2873 36.0438 49.7456 35.6204 50.2891 35.642ZM51.8594 21.4828C52.0179 20.9625 52.5686 20.6691 53.0889 20.8275C53.6093 20.986 53.9027 21.5366 53.7442 22.057C53.0073 24.4758 52.4339 26.885 52.0186 29.2845C51.9258 29.8205 51.4159 30.18 50.8799 30.0873C50.3439 29.9945 49.9844 29.4846 50.0772 28.9486C50.5068 26.4667 51.0993 23.9779 51.8594 21.4828ZM56.1211 10.8138C56.3623 10.3262 56.9528 10.1264 57.4404 10.3675C57.928 10.6087 58.1278 11.1993 57.8867 11.6869C57.3277 12.8173 56.8052 13.9457 56.3184 15.0716L56.2735 15.1625C56.03 15.5981 55.4914 15.7866 55.0235 15.5843C54.5241 15.3684 54.2939 14.7887 54.5098 14.2894C55.0102 13.1321 55.5475 11.9737 56.1211 10.8138Z" fill="#BBC1CA"/>
<path d="M59.5166 71.5862C59.976 72.3984 60.0128 72.6941 60.5 73.4993" stroke="#BBC1CA" stroke-width="1.97" stroke-linecap="round" stroke-linejoin="round"/>
<path d="M16.1585 39.382C22.249 39.7987 27.6017 34.0143 28.1028 26.4573C28.604 18.9003 24.0727 12.438 17.9822 12.0213C11.8917 11.6046 6.53903 17.3959 6.03787 24.9459C5.53671 32.4959 10.068 38.9653 16.1585 39.382Z" fill="white" stroke="#5E636A" stroke-width="1.97" stroke-miterlimit="10"/>
<path d="M42.2683 96.5111C54.4354 96.5111 64.2915 94.7172 64.2915 92.5066C64.2915 90.296 54.4284 88.5021 42.2683 88.5021C30.1082 88.5021 20.2451 90.296 20.2451 92.5066C20.2451 94.7172 30.1082 96.5111 42.2683 96.5111Z" fill="#BBC1CA"/>
<path d="M16.6812 25.5469L21.3865 23.7176C20.7114 19.9321 18.0942 17.0293 14.7879 16.8033C10.7299 16.5279 7.16612 20.3841 6.82505 25.4197C6.49095 30.4554 9.51183 34.7636 13.5698 35.0461C17.3146 35.3004 20.6209 32.0445 21.3865 27.595L16.6742 25.5469H16.6812Z" fill="#5E636A"/>
<path d="M35.7738 39.6563C41.8642 40.073 47.2169 34.2887 47.7181 26.7316C48.2192 19.1746 43.6879 12.7123 37.5974 12.2956C31.5069 11.8789 26.1543 17.6632 25.6531 25.2202C25.1519 32.7773 29.6833 39.2396 35.7738 39.6563Z" fill="white" stroke="#5E636A" stroke-width="1.97" stroke-miterlimit="10"/>
<path d="M36.2955 25.8141L41.0008 23.9849C40.3256 20.1993 37.7085 17.2965 34.4022 17.0705C30.3442 16.7951 26.7804 20.6513 26.4393 25.687C26.1052 30.7226 29.1261 35.0308 33.1841 35.3133C36.9289 35.5676 40.2351 32.3117 41.0008 27.8622L36.2885 25.8141H36.2955Z" fill="#5E636A"/>
<path d="M45.2619 5.48362L36.7969 4.26379C35.7187 4.11128 34.7128 4.81786 34.5556 5.84737C34.3984 6.87688 35.1405 7.83927 36.2192 7.99788L44.6842 9.21771C45.7624 9.37023 46.7683 8.66364 46.9255 7.63413C47.0827 6.60463 46.3406 5.64223 45.2619 5.48362Z" fill="#FF70E9" stroke="#5E636A" stroke-width="1.97" stroke-miterlimit="10"/>
<path d="M22.7407 4.03049L14.5701 5.43429C13.5333 5.61486 12.8441 6.54684 13.0304 7.52543C13.2229 8.50401 14.2162 9.15057 15.2593 8.97L23.4299 7.5662C24.4667 7.38563 25.1559 6.45365 24.9696 5.47506C24.7771 4.49648 23.7838 3.84992 22.7407 4.03049Z" fill="#FF70E9" stroke="#5E636A" stroke-width="1.97" stroke-miterlimit="10"/>
<path d="M31.2578 22.5156C31.9524 22.5156 32.5155 21.9525 32.5155 21.2579C32.5155 20.5632 31.9524 20.0001 31.2578 20.0001C30.5631 20.0001 30 20.5632 30 21.2579C30 21.9525 30.5631 22.5156 31.2578 22.5156Z" fill="white"/>
<path d="M11.2577 22.5156C11.9524 22.5156 12.5155 21.9525 12.5155 21.2579C12.5155 20.5632 11.9524 20.0001 11.2577 20.0001C10.5631 20.0001 10 20.5632 10 21.2579C10 21.9525 10.5631 22.5156 11.2577 22.5156Z" fill="white"/>
</g>
<defs>
<clipPath id="clip0_1200_1241">
<rect width="86" height="97" fill="white" transform="translate(0.5 0.000244141)"/>
</clipPath>
</defs>
</svg>