<svg width="8" height="8" viewBox="0 0 85 84" fill="none" xmlns="http://www.w3.org/2000/svg">
<path d="M45.5188 17.2633L47.2188 23.4428" stroke="#313131" stroke-width="1.25253" stroke-miterlimit="10"/>
<path d="M45.8398 17.3389C48.5758 17.3389 50.7938 15.1209 50.7938 12.3849C50.7938 9.6489 48.5758 7.43091 45.8398 7.43091C43.1037 7.43091 40.8857 9.6489 40.8857 12.3849C40.8857 15.1209 43.1037 17.3389 45.8398 17.3389Z" fill="white"/>
<mask id="mask0_3852_47161" style="mask-type:luminance" maskUnits="userSpaceOnUse" x="40" y="7" width="11" height="11">
<path d="M45.8402 17.3389C48.5763 17.3389 50.7943 15.1209 50.7943 12.3849C50.7943 9.6489 48.5763 7.43091 45.8402 7.43091C43.1042 7.43091 40.8862 9.6489 40.8862 12.3849C40.8862 15.1209 43.1042 17.3389 45.8402 17.3389Z" fill="white"/>
</mask>
<g mask="url(#mask0_3852_47161)">
<path d="M42.156 8.94067C44.9224 11.3838 45.4726 13.9807 43.7282 16.7133L42.156 8.94067Z" fill="white"/>
<path d="M42.156 8.94067C44.9224 11.3838 45.4726 13.9807 43.7282 16.7133" stroke="#E35868" stroke-width="1.25253" stroke-miterlimit="10"/>
<path d="M48.4604 8.27051C48.6117 10.4425 49.2244 12.4449 50.296 14.2753L48.4604 8.27051Z" fill="white"/>
<path d="M48.4604 8.27051C48.6117 10.4425 49.2244 12.4449 50.296 14.2753" stroke="#E35868" stroke-width="1.25253" stroke-miterlimit="10"/>
</g>
<path d="M45.8398 17.3389C48.5758 17.3389 50.7938 15.1209 50.7938 12.3849C50.7938 9.6489 48.5758 7.43091 45.8398 7.43091C43.1037 7.43091 40.8857 9.6489 40.8857 12.3849C40.8857 15.1209 43.1037 17.3389 45.8398 17.3389Z" stroke="#313131" stroke-width="1.25253" stroke-miterlimit="10"/>
<path d="M43.6991 76.5212C59.3564 76.5212 72.0491 63.8284 72.0491 48.1712C72.0491 32.5139 59.3564 19.8212 43.6991 19.8212C28.0418 19.8212 15.3491 32.5139 15.3491 48.1712C15.3491 63.8284 28.0418 76.5212 43.6991 76.5212Z" fill="#3C74E1"/>
<mask id="mask1_3852_47161" style="mask-type:luminance" maskUnits="userSpaceOnUse" x="15" y="19" width="58" height="58">
<path d="M43.6996 76.5212C59.3569 76.5212 72.0496 63.8284 72.0496 48.1712C72.0496 32.5139 59.3569 19.8212 43.6996 19.8212C28.0423 19.8212 15.3496 32.5139 15.3496 48.1712C15.3496 63.8284 28.0423 76.5212 43.6996 76.5212Z" fill="white"/>
</mask>
<g mask="url(#mask1_3852_47161)">
<path d="M65.3636 29.8701C61.343 41.9344 61.343 53.9962 65.3636 66.0605" stroke="white" stroke-width="1.25253" stroke-miterlimit="10"/>
<path d="M30.9829 22.632C41.9965 40.0649 41.0343 56.9372 30.9829 73.2985" stroke="white" stroke-width="1.25253" stroke-miterlimit="10"/>
<path d="M13.6568 34.2974C19.4035 65.0305 37.0893 77.1887 64.6441 74.4483L72.3515 80.268L40.3355 83.7593L18.9915 79.1051L2.98486 51.1749L13.6568 34.3V34.2974Z" fill="#313131"/>
</g>
<path d="M43.6991 76.5212C59.3564 76.5212 72.0491 63.8284 72.0491 48.1712C72.0491 32.5139 59.3564 19.8212 43.6991 19.8212C28.0418 19.8212 15.3491 32.5139 15.3491 48.1712C15.3491 63.8284 28.0418 76.5212 43.6991 76.5212Z" stroke="#313131" stroke-width="1.25253" stroke-miterlimit="10"/>
<path d="M51.5392 20.5799C41.0967 19.7742 31.8301 22.0139 23.9714 27.9144C23.9714 27.9144 24.7302 17.292 35.0997 15.0157C45.8238 12.6613 51.5392 20.5799 51.5392 20.5799Z" fill="#E86FD5" stroke="#313131" stroke-width="1.25253" stroke-miterlimit="10"/>
<path d="M23.9714 27.9145C23.9714 27.9145 43.0235 11.3785 52.5509 12.7395C58.746 13.6261 51.5392 20.5799 51.5392 20.5799C41.1462 19.5109 32.0022 22.0818 23.9714 27.9145Z" fill="#1E3458" stroke="#313131" stroke-width="1.25253" stroke-linecap="round" stroke-linejoin="round"/>
<path d="M62.4458 47.4881C66.943 47.4881 70.5887 43.0323 70.5887 37.5357C70.5887 32.0392 66.943 27.5834 62.4458 27.5834C57.9487 27.5834 54.303 32.0392 54.303 37.5357C54.303 43.0323 57.9487 47.4881 62.4458 47.4881Z" fill="white" stroke="#313131" stroke-width="1.25253" stroke-miterlimit="10"/>
<path d="M62.7378 35.1629L59.369 33.6063C60.0522 30.8972 62.1172 28.926 64.5577 28.926C67.5562 28.926 69.9863 31.8958 69.9863 35.5618C69.9863 39.2252 67.5562 42.1976 64.5577 42.1976C61.7965 42.1976 59.5203 39.6762 59.1787 36.4144L62.7404 35.1629H62.7378Z" fill="#313131"/>
<path d="M48.1235 47.4881C52.6207 47.4881 56.2664 43.0323 56.2664 37.5357C56.2664 32.0392 52.6207 27.5834 48.1235 27.5834C43.6264 27.5834 39.9807 32.0392 39.9807 37.5357C39.9807 43.0323 43.6264 47.4881 48.1235 47.4881Z" fill="white" stroke="#313131" stroke-width="1.25253" stroke-miterlimit="10"/>
<path d="M48.4182 35.1629L45.0495 33.6063C45.7326 30.8972 47.7976 28.926 50.2381 28.926C53.2366 28.926 55.6667 31.8958 55.6667 35.5618C55.6667 39.2278 53.2366 42.1976 50.2381 42.1976C47.4769 42.1976 45.2007 39.6762 44.8591 36.4144L48.4208 35.1629H48.4182Z" fill="#313131"/>
<path d="M53.0749 32.931C53.6336 32.931 54.0866 32.4781 54.0866 31.9194C54.0866 31.3607 53.6336 30.9077 53.0749 30.9077C52.5162 30.9077 52.0632 31.3607 52.0632 31.9194C52.0632 32.4781 52.5162 32.931 53.0749 32.931Z" fill="white"/>
<path d="M67.4155 32.6703C67.9742 32.6703 68.4271 32.2174 68.4271 31.6586C68.4271 31.0999 67.9742 30.647 67.4155 30.647C66.8567 30.647 66.4038 31.0999 66.4038 31.6586C66.4038 32.2174 66.8567 32.6703 67.4155 32.6703Z" fill="white"/>
<path d="M41.3817 25.138L48.2125 24.598C49.0839 24.5291 49.7345 23.7675 49.6657 22.8968C49.5968 22.0262 48.8346 21.3762 47.9633 21.4451L41.1324 21.9851C40.261 22.054 39.6105 22.8156 39.6793 23.6863C39.7481 24.5569 40.5103 25.2069 41.3817 25.138Z" fill="#E86FD5" stroke="#313131" stroke-width="1.25253" stroke-miterlimit="10"/>
<path d="M56.2664 24.4725L63.0989 24.9923C63.9705 25.0586 64.7307 24.4063 64.7969 23.5355C64.8632 22.6646 64.2103 21.9049 63.3388 21.8386L56.5063 21.3189C55.6348 21.2526 54.8745 21.9048 54.8083 22.7757C54.742 23.6465 55.3949 24.4062 56.2664 24.4725Z" fill="#E86FD5" stroke="#313131" stroke-width="1.25253" stroke-miterlimit="10"/>
<path d="M20.2246 22.7153L23.9714 27.9144" stroke="#313131" stroke-width="1.25253" stroke-miterlimit="10"/>
<path d="M17.6171 24.019C20.3531 24.019 22.5711 21.801 22.5711 19.065C22.5711 16.3289 20.3531 14.111 17.6171 14.111C14.8811 14.111 12.6631 16.3289 12.6631 19.065C12.6631 21.801 14.8811 24.019 17.6171 24.019Z" fill="white"/>
<mask id="mask2_3852_47161" style="mask-type:luminance" maskUnits="userSpaceOnUse" x="12" y="14" width="11" height="11">
<path d="M17.6171 24.019C20.3531 24.019 22.5711 21.801 22.5711 19.065C22.5711 16.3289 20.3531 14.111 17.6171 14.111C14.8811 14.111 12.6631 16.3289 12.6631 19.065C12.6631 21.801 14.8811 24.019 17.6171 24.019Z" fill="white"/>
</mask>
<g mask="url(#mask2_3852_47161)">
<path d="M12.9631 17.1251C15.6592 18.7287 16.9003 21.0388 16.9029 23.9512L12.9631 17.1251Z" fill="white"/>
<path d="M12.9631 17.1251C15.6592 18.7287 16.9003 21.0388 16.9029 23.9512" stroke="#E35868" stroke-width="1.25253" stroke-miterlimit="10"/>
<path d="M18.3943 14.3875C19.2938 16.3717 20.5636 18.0326 22.2089 19.3754L18.3943 14.3875Z" fill="white"/>
<path d="M18.3943 14.3875C19.2938 16.3717 20.5636 18.0326 22.2089 19.3754" stroke="#E35868" stroke-width="1.25253" stroke-miterlimit="10"/>
</g>
<path d="M17.6171 24.019C20.3531 24.019 22.5711 21.801 22.5711 19.065C22.5711 16.3289 20.3531 14.111 17.6171 14.111C14.8811 14.111 12.6631 16.3289 12.6631 19.065C12.6631 21.801 14.8811 24.019 17.6171 24.019Z" stroke="#313131" stroke-width="1.25253" stroke-miterlimit="10"/>
<path d="M36.1298 54.5254C39.5858 54.5254 42.3875 51.7237 42.3875 48.2677C42.3875 44.8117 39.5858 42.01 36.1298 42.01C32.6737 42.01 29.8721 44.8117 29.8721 48.2677C29.8721 51.7237 32.6737 54.5254 36.1298 54.5254Z" fill="white"/>
<mask id="mask3_3852_47161" style="mask-type:luminance" maskUnits="userSpaceOnUse" x="29" y="42" width="14" height="13">
<path d="M36.1303 54.5254C39.5863 54.5254 42.388 51.7237 42.388 48.2677C42.388 44.8117 39.5863 42.01 36.1303 42.01C32.6742 42.01 29.8726 44.8117 29.8726 48.2677C29.8726 51.7237 32.6742 54.5254 36.1303 54.5254Z" fill="white"/>
</mask>
<g mask="url(#mask3_3852_47161)">
<path d="M42.0018 45.0918C38.8625 47.5088 37.6579 50.596 38.096 54.2489" stroke="#E35868" stroke-width="1.25253" stroke-miterlimit="10"/>
<path d="M34.7946 41.6162C34.7764 45.5794 33.0555 48.4084 29.8823 50.2753" stroke="#E35868" stroke-width="1.25253" stroke-miterlimit="10"/>
</g>
<path d="M36.1298 54.5254C39.5858 54.5254 42.3875 51.7237 42.3875 48.2677C42.3875 44.8117 39.5858 42.01 36.1298 42.01C32.6737 42.01 29.8721 44.8117 29.8721 48.2677C29.8721 51.7237 32.6737 54.5254 36.1298 54.5254Z" stroke="#313131" stroke-width="1.25253" stroke-miterlimit="10"/>
<path d="M38.0434 53.9204C36.0149 51.1592 33.4336 49.7982 30.0544 50.463" stroke="#313131" stroke-width="1.25253" stroke-miterlimit="10"/>
<path d="M36.2832 51.8918L33.6471 53.6987L33.123 50.5803" stroke="#313131" stroke-width="1.25253" stroke-linejoin="round"/>
<path d="M34.3722 54.361L32.8912 57.5603L30.9722 56.6738L32.4532 53.4719" fill="#313131"/>
<path d="M34.3722 54.361L32.8912 57.5603L30.9722 56.6738L32.4532 53.4719" stroke="#313131" stroke-width="1.25253" stroke-linejoin="round"/>
<path d="M28.2448 53.9987C30.6566 54.7287 34.0645 55.464 36.5936 56.1784C38.1111 56.6086 41.7875 58.1235 38.1137 59.3386C38.7447 59.7088 38.6456 60.066 39.0941 60.4884C38.7343 60.7126 38.6639 60.8561 38.3067 61.0334C40.7211 65.0435 28.9045 63.2861 26.8577 62.4283" fill="#3C74E1"/>
<path d="M28.2448 53.9987C30.6566 54.7287 34.0645 55.464 36.5936 56.1784C38.1111 56.6086 41.7875 58.1235 38.1137 59.3386C38.7447 59.7088 38.6456 60.066 39.0941 60.4884C38.7343 60.7126 38.6639 60.8561 38.3067 61.0334C40.7211 65.0435 28.9045 63.2861 26.8577 62.4283" stroke="#313131" stroke-width="1.29127" stroke-linecap="round" stroke-linejoin="round"/>
</svg>
