<svg viewBox="0 0 104 104" fill="none" xmlns="http://www.w3.org/2000/svg">
<g clip-path="url(#clip0_1203_464)">
<path d="M51.2683 100.511C63.4354 100.511 73.2915 98.7172 73.2915 96.5066C73.2915 94.296 63.4284 92.5021 51.2683 92.5021C39.1082 92.5021 29.2451 94.296 29.2451 96.5066C29.2451 98.7172 39.1082 100.511 51.2683 100.511Z" fill="white"/>
<path d="M52.6673 4.69946C73.7299 4.69946 90.8111 22.0241 90.8111 43.4028C90.8111 64.7814 73.7299 82.1061 52.6673 82.1061C31.6046 82.1061 14.5234 64.7743 14.5234 43.4028C14.5234 22.0241 31.5977 4.69946 52.6673 4.69946Z" stroke="#BBC1CA" stroke-width="1.97" stroke-linecap="round" stroke-linejoin="round" stroke-dasharray="7.82 7.82"/>
<path d="M23.252 18.1887C23.5443 19.0857 23.8227 19.9826 24.0872 20.8867" stroke="#BBC1CA" stroke-width="1.97" stroke-linecap="round" stroke-linejoin="round"/>
<path d="M25.0615 58.2484C25.1791 57.7173 25.7052 57.3819 26.2364 57.4994C26.7673 57.617 27.1029 58.1431 26.9854 58.6742C26.7581 59.7014 26.5098 60.7284 26.2412 61.7552C26.1036 62.2815 25.5653 62.5969 25.0391 62.4594C24.5128 62.3217 24.1974 61.7835 24.335 61.2572C24.5973 60.2542 24.8396 59.2512 25.0615 58.2484ZM27.2764 46.5205C27.8194 46.5519 28.2343 47.0176 28.2032 47.5606C28.0817 49.665 27.8735 51.7694 27.5791 53.8731C27.5037 54.4117 27.0064 54.7872 26.4678 54.7119C25.929 54.6366 25.5536 54.1384 25.6289 53.5996L25.7324 52.8311C25.9651 51.0363 26.1328 49.2417 26.2364 47.4473C26.2677 46.9043 26.7334 46.4893 27.2764 46.5205ZM27.8907 34.8877C28.0883 36.7337 28.2194 38.5803 28.2842 40.4268L28.3076 41.2178L28.3047 41.3184C28.2667 41.8162 27.8574 42.2137 27.3477 42.2266C26.8038 42.2401 26.3514 41.8105 26.3379 41.2666C26.2869 39.2105 26.1519 37.1541 25.9317 35.0977L27.8907 34.8877ZM26.8057 34.0137C27.3465 33.9558 27.8326 34.347 27.8907 34.8877L25.9317 35.0977C25.8739 34.5569 26.265 34.0717 26.8057 34.0137ZM25.1348 24.7715C25.665 24.6502 26.1931 24.9815 26.3145 25.5117C26.4921 26.2874 26.6583 27.063 26.8125 27.8389L26.9629 28.6153L26.9766 28.7149C27.0192 29.2123 26.6788 29.6709 26.1778 29.7656C25.6765 29.8602 25.1924 29.557 25.0508 29.0781L25.0264 28.9805L24.7256 27.4658C24.6202 26.961 24.5102 26.456 24.3946 25.9512C24.2732 25.4209 24.6045 24.8929 25.1348 24.7715Z" fill="#BBC1CA"/>
<path d="M24.0941 65.353C23.8296 66.25 23.5511 67.1469 23.2588 68.051" stroke="#BBC1CA" stroke-width="1.97" stroke-linecap="round" stroke-linejoin="round"/>
<path d="M69.5 8.99927C68.9988 9.80441 68.9546 9.82635 68.4883 10.6315" stroke="#BBC1CA" stroke-width="1.97" stroke-linecap="round" stroke-linejoin="round"/>
<path d="M65.5815 67.2389C66.1043 68.3547 66.6592 69.4693 67.2446 70.5826C67.4976 71.0641 67.312 71.6596 66.8306 71.9127C66.3492 72.1657 65.7537 71.981 65.5005 71.4996C64.9013 70.3602 64.3333 69.2178 63.7974 68.0739L64.6899 67.6569L65.5815 67.2389ZM64.272 66.7643C64.7645 66.5337 65.3508 66.7463 65.5815 67.2389L63.7974 68.0739C63.567 67.5813 63.7795 66.995 64.272 66.7643ZM61.5967 55.4222C62.0641 57.5135 62.6467 59.5999 63.3408 61.682L63.6446 62.5746L63.6729 62.6713C63.7888 63.1568 63.5206 63.6605 63.0391 63.8285C62.5575 63.9965 62.0335 63.7692 61.8223 63.3168L61.7852 63.223L61.4717 62.305C60.7572 60.1618 60.1564 58.0108 59.6738 55.8519L61.5967 55.4222ZM60.4209 54.6752C60.9517 54.5567 61.4781 54.8914 61.5967 55.4222L59.6738 55.8519C59.5552 55.321 59.89 54.7938 60.4209 54.6752ZM59.2891 39.642C59.8324 39.6637 60.2549 40.122 60.2334 40.6654C60.135 43.1467 60.2036 45.6202 60.4336 48.0853C60.484 48.6268 60.0855 49.107 59.544 49.1576C59.0025 49.2078 58.5222 48.8094 58.4717 48.2679C58.2337 45.7171 58.1637 43.1566 58.2656 40.5873C58.2873 40.0438 58.7456 39.6204 59.2891 39.642ZM60.8594 25.4828C61.0179 24.9625 61.5686 24.6691 62.0889 24.8275C62.6093 24.986 62.9027 25.5366 62.7442 26.057C62.0073 28.4758 61.4339 30.885 61.0186 33.2845C60.9258 33.8205 60.4159 34.18 59.8799 34.0873C59.3439 33.9945 58.9844 33.4846 59.0772 32.9486C59.5068 30.4667 60.0993 27.9779 60.8594 25.4828ZM65.1211 14.8138C65.3623 14.3262 65.9528 14.1264 66.4404 14.3675C66.928 14.6087 67.1278 15.1993 66.8867 15.6869C66.3277 16.8173 65.8052 17.9457 65.3184 19.0716L65.2735 19.1625C65.03 19.5981 64.4914 19.7866 64.0235 19.5843C63.5241 19.3684 63.2939 18.7887 63.5098 18.2894C64.0102 17.1321 64.5475 15.9737 65.1211 14.8138Z" fill="#BBC1CA"/>
<path d="M68.5166 75.5862C68.976 76.3984 69.0128 76.6941 69.5 77.4993" stroke="#BBC1CA" stroke-width="1.97" stroke-linecap="round" stroke-linejoin="round"/>
<path d="M25.1585 43.382C31.249 43.7987 36.6017 38.0143 37.1028 30.4573C37.604 22.9003 33.0727 16.438 26.9822 16.0213C20.8917 15.6046 15.539 21.3959 15.0379 28.9459C14.5367 36.4959 19.068 42.9653 25.1585 43.382Z" fill="white" stroke="#5E636A" stroke-width="1.97" stroke-miterlimit="10"/>
<path d="M51.2683 100.511C63.4354 100.511 73.2915 98.7172 73.2915 96.5066C73.2915 94.296 63.4284 92.5021 51.2683 92.5021C39.1082 92.5021 29.2451 94.296 29.2451 96.5066C29.2451 98.7172 39.1082 100.511 51.2683 100.511Z" fill="#BBC1CA"/>
<path d="M25.6812 29.5469L30.3865 27.7176C29.7114 23.9321 27.0942 21.0293 23.7879 20.8033C19.7299 20.5279 16.1661 24.3841 15.8251 29.4197C15.4909 34.4554 18.5118 38.7636 22.5698 39.0461C26.3146 39.3004 29.6209 36.0445 30.3865 31.595L25.6742 29.5469H25.6812Z" fill="#5E636A"/>
<path d="M44.7738 43.6563C50.8642 44.073 56.2169 38.2887 56.7181 30.7316C57.2192 23.1746 52.6879 16.7123 46.5974 16.2956C40.5069 15.8789 35.1543 21.6632 34.6531 29.2202C34.1519 36.7773 38.6833 43.2396 44.7738 43.6563Z" fill="white" stroke="#5E636A" stroke-width="1.97" stroke-miterlimit="10"/>
<path d="M45.2955 29.8141L50.0008 27.9849C49.3256 24.1993 46.7085 21.2965 43.4022 21.0705C39.3442 20.7951 35.7804 24.6513 35.4393 29.687C35.1052 34.7226 38.1261 39.0308 42.1841 39.3133C45.9289 39.5676 49.2351 36.3117 50.0008 31.8622L45.2885 29.8141H45.2955Z" fill="#5E636A"/>
<path d="M54.2619 9.48362L45.7969 8.26379C44.7187 8.11128 43.7128 8.81786 43.5556 9.84737C43.3984 10.8769 44.1405 11.8393 45.2192 11.9979L53.6842 13.2177C54.7624 13.3702 55.7683 12.6636 55.9255 11.6341C56.0827 10.6046 55.3406 9.64223 54.2619 9.48362Z" fill="#FF70E9" stroke="#5E636A" stroke-width="1.97" stroke-miterlimit="10"/>
<path d="M31.7407 8.03049L23.5701 9.43429C22.5333 9.61486 21.8441 10.5468 22.0304 11.5254C22.2229 12.504 23.2162 13.1506 24.2593 12.97L32.4299 11.5662C33.4667 11.3856 34.1559 10.4536 33.9696 9.47506C33.7771 8.49648 32.7838 7.84992 31.7407 8.03049Z" fill="#FF70E9" stroke="#5E636A" stroke-width="1.97" stroke-miterlimit="10"/>
<path d="M40.2578 26.5156C40.9524 26.5156 41.5155 25.9525 41.5155 25.2579C41.5155 24.5632 40.9524 24.0001 40.2578 24.0001C39.5631 24.0001 39 24.5632 39 25.2579C39 25.9525 39.5631 26.5156 40.2578 26.5156Z" fill="white"/>
<path d="M20.2577 26.5156C20.9524 26.5156 21.5155 25.9525 21.5155 25.2579C21.5155 24.5632 20.9524 24.0001 20.2577 24.0001C19.5631 24.0001 19 24.5632 19 25.2579C19 25.9525 19.5631 26.5156 20.2577 26.5156Z" fill="white"/>
</g>
<defs>
<clipPath id="clip0_1203_464">
<rect width="86" height="97" fill="white" transform="translate(9.5 4.00024)"/>
</clipPath>
</defs>
</svg>