<svg viewBox="0 0 20 21" fill="currentColor" xmlns="http://www.w3.org/2000/svg">
<g clip-path="url(#clip0_2923_7655)">
<mask id="mask0_2923_7655" style="mask-type:alpha" maskUnits="userSpaceOnUse" x="0" y="0" width="20" height="21">
<rect y="0.5" width="20" height="20" fill="#D9D9D9"/>
</mask>
<g mask="url(#mask0_2923_7655)">
<path d="M10.0003 14.6666C10.2364 14.6666 10.4344 14.5868 10.5941 14.427C10.7538 14.2673 10.8337 14.0694 10.8337 13.8333C10.8337 13.5972 10.7538 13.3993 10.5941 13.2395C10.4344 13.0798 10.2364 13 10.0003 13C9.76421 13 9.5663 13.0798 9.40658 13.2395C9.24685 13.3993 9.16699 13.5972 9.16699 13.8333C9.16699 14.0694 9.24685 14.2673 9.40658 14.427C9.5663 14.5868 9.76421 14.6666 10.0003 14.6666ZM9.16699 10.5C9.16699 10.9602 9.54009 11.3333 10.0003 11.3333C10.4606 11.3333 10.8337 10.9602 10.8337 10.5V7.16663C10.8337 6.70639 10.4606 6.33329 10.0003 6.33329C9.54009 6.33329 9.16699 6.70639 9.16699 7.16663V10.5ZM10.0003 18.8333C8.84755 18.8333 7.76421 18.6145 6.75033 18.177C5.73644 17.7395 4.85449 17.1458 4.10449 16.3958C3.35449 15.6458 2.76074 14.7638 2.32324 13.75C1.88574 12.7361 1.66699 11.6527 1.66699 10.5C1.66699 9.34718 1.88574 8.26385 2.32324 7.24996C2.76074 6.23607 3.35449 5.35413 4.10449 4.60413C4.85449 3.85413 5.73644 3.26038 6.75033 2.82288C7.76421 2.38538 8.84755 2.16663 10.0003 2.16663C11.1531 2.16663 12.2364 2.38538 13.2503 2.82288C14.2642 3.26038 15.1462 3.85413 15.8962 4.60413C16.6462 5.35413 17.2399 6.23607 17.6774 7.24996C18.1149 8.26385 18.3337 9.34718 18.3337 10.5C18.3337 11.6527 18.1149 12.7361 17.6774 13.75C17.2399 14.7638 16.6462 15.6458 15.8962 16.3958C15.1462 17.1458 14.2642 17.7395 13.2503 18.177C12.2364 18.6145 11.1531 18.8333 10.0003 18.8333Z" fill="#FF6666"/>
</g>
</g>
<defs>
<clipPath id="clip0_2923_7655">
<rect width="20" height="20" fill="white" transform="translate(0 0.5)"/>
</clipPath>
</defs>
</svg>
