<svg viewBox="0 0 24 24" fill="none" xmlns="http://www.w3.org/2000/svg">
<path fill-rule="evenodd" clip-rule="evenodd" d="M8.16667 3.99995C7.27963 3.99995 6.61738 4.28154 6.12154 4.78458C5.66025 5.25262 5.39046 5.86941 5.17188 6.42104L2.30346 14.0705C2.26942 14.1576 2.23727 14.2454 2.20704 14.334C2.19665 14.3625 2.18829 14.3913 2.18196 14.4201C2.06092 14.8245 1.99961 15.2445 2 15.6666C2 18.0599 3.94009 20 6.33334 20C8.72659 20 10.6667 18.0599 10.6667 15.6666V13.1474L10.6683 13.147L13.3333 13.1474V15.6666C13.3333 18.0599 15.2734 20 17.6667 20C20.0599 20 22 18.0599 22 15.6666C22 15.2333 21.9364 14.8149 21.818 14.4202C21.8045 14.375 21.6966 14.0705 21.6966 14.0705L18.8546 6.4907L18.8281 6.42104C18.6095 5.86941 18.3398 5.25262 17.8785 4.78458C17.3826 4.28154 16.7204 3.99995 15.8333 3.99995C15.0652 3.99995 14.4194 4.30158 13.9745 4.81691C13.5393 5.32108 13.3333 5.98487 13.3333 6.66662V8.117H10.6667V6.66662C10.6667 5.98487 10.4607 5.32108 10.0255 4.81691C9.58059 4.30158 8.93484 3.99995 8.16667 3.99995ZM3.66667 15.6666C3.66667 14.1939 4.86059 13 6.33334 13C7.80609 13 9 14.1939 9 15.6666C9 17.1394 7.80609 18.3333 6.33334 18.3333C4.86059 18.3333 3.66667 17.1394 3.66667 15.6666ZM15 15.6666C15 14.1939 16.1939 13 17.6667 13C19.1394 13 20.3333 14.1939 20.3333 15.6666C20.3333 17.1394 19.1394 18.3333 17.6667 18.3333C16.1939 18.3333 15 17.1394 15 15.6666Z" fill="currentColor"/>
</svg>
