<svg viewBox="0 0 104 104" fill="currentColor" xmlns="http://www.w3.org/2000/svg">
<g clip-path="url(#clip0_1203_463)">
<path d="M3.32154 1.03099C3.95319 0.399564 4.97689 0.399656 5.60859 1.03099L8.8396 4.262L12.0706 1.03099C12.7023 0.399324 13.7273 0.399462 14.359 1.03099L17.0369 3.70888C17.6687 4.34062 17.6687 5.36558 17.0369 5.99731L13.8059 9.22832L16.2594 11.6818C22.1454 8.46798 29.6736 9.35184 34.6559 14.3341L34.9356 14.6207C40.7113 20.6972 40.6181 30.3058 34.6559 36.2683L34.3693 36.5479C28.3894 42.2325 18.9878 42.2328 13.0077 36.5486L12.7211 36.2689C7.30161 30.8495 6.73096 22.4169 11.0093 16.3629L8.84029 14.194L5.60928 17.425C4.97753 18.0565 3.9532 18.0559 3.32154 17.4243L0.643653 14.7464C0.0122001 14.1147 0.0115274 13.0903 0.642963 12.4586L3.87397 9.22763L0.642962 5.99662C0.0116553 5.36496 0.0116271 4.34123 0.642962 3.70958L3.32154 1.03099ZM19.8702 21.4825C17.7613 23.5914 17.7613 27.011 19.8702 29.1198C21.9791 31.2283 25.3981 31.2279 27.5068 29.1192C29.6153 27.0104 29.6152 23.592 27.5068 21.4832C25.398 19.3744 21.9791 19.3739 19.8702 21.4825Z" fill="#FF72EE"/>
<path d="M66.9205 24.8243L52.5148 42.4312L59.8776 49.794L77.1644 35.0683C78.9785 33.6811 81.4542 29.7543 76.8444 25.1444C72.2346 20.5346 68.3077 23.0103 66.9205 24.8243Z" fill="#D9D9D9"/>
<mask id="path-3-outside-1_1203_463" maskUnits="userSpaceOnUse" x="1.92627" y="1.76941" width="101" height="101" fill="black">
<rect fill="white" x="1.92627" y="1.76941" width="101" height="101"/>
<path d="M51.7163 4.76941C60.1386 4.76941 61.4647 10.6184 61.0747 13.5428L59.6753 31.0331L71.2681 16.8641C73.0602 14.5206 78.1331 11.3223 84.0884 17.2772C90.0438 23.2327 86.8461 28.3064 84.5024 30.0985L72.2183 40.5624L90.3188 38.7528C93.2432 38.3629 99.0921 39.6882 99.0923 48.1102C99.0922 56.5324 93.2432 57.8586 90.3188 57.4686L69.4009 55.7948L89.9399 65.0643C92.6675 66.1889 97.07 70.2616 92.8589 77.5555C88.6479 84.8485 82.9203 83.0731 80.5825 81.2733L68.1187 72.6825L73.9136 88.0106C75.047 90.7346 75.2798 96.7273 67.145 98.9071C59.01 101.087 56.2147 95.7801 55.8345 92.8544L52.0093 72.0634L48.1841 92.8553C47.8037 95.7811 45.0084 101.087 36.8735 98.9071C28.7396 96.7274 28.9718 90.7358 30.105 88.0116L35.9019 72.6815L23.436 81.2723C21.0983 83.0722 15.3707 84.8479 11.1597 77.5546C6.94884 70.2609 11.3511 66.1889 14.0786 65.0643L34.6177 55.7948L13.6997 57.4686C10.7753 57.8586 4.92646 56.5321 4.92627 48.1102C4.9263 39.688 10.7753 38.3619 13.6997 38.7518L31.8013 40.5614L19.5161 30.0975C17.1725 28.3054 13.9741 23.2326 19.9292 17.2772C25.8847 11.3218 30.9583 14.5205 32.7505 16.8641L44.0747 30.705L42.3589 13.5428C41.969 10.6185 43.2945 4.76965 51.7163 4.76941ZM42.9438 48.0272V55.1288L42.1479 55.1923L46.0874 62.0175L52.0083 63.6034L57.9312 62.0165L61.8706 55.1923L61.0747 55.1288V48.0272L55.8345 42.787H48.1841L42.9438 48.0272Z"/>
</mask>
<path d="M51.7163 4.76941C60.1386 4.76941 61.4647 10.6184 61.0747 13.5428L59.6753 31.0331L71.2681 16.8641C73.0602 14.5206 78.1331 11.3223 84.0884 17.2772C90.0438 23.2327 86.8461 28.3064 84.5024 30.0985L72.2183 40.5624L90.3188 38.7528C93.2432 38.3629 99.0921 39.6882 99.0923 48.1102C99.0922 56.5324 93.2432 57.8586 90.3188 57.4686L69.4009 55.7948L89.9399 65.0643C92.6675 66.1889 97.07 70.2616 92.8589 77.5555C88.6479 84.8485 82.9203 83.0731 80.5825 81.2733L68.1187 72.6825L73.9136 88.0106C75.047 90.7346 75.2798 96.7273 67.145 98.9071C59.01 101.087 56.2147 95.7801 55.8345 92.8544L52.0093 72.0634L48.1841 92.8553C47.8037 95.7811 45.0084 101.087 36.8735 98.9071C28.7396 96.7274 28.9718 90.7358 30.105 88.0116L35.9019 72.6815L23.436 81.2723C21.0983 83.0722 15.3707 84.8479 11.1597 77.5546C6.94884 70.2609 11.3511 66.1889 14.0786 65.0643L34.6177 55.7948L13.6997 57.4686C10.7753 57.8586 4.92646 56.5321 4.92627 48.1102C4.9263 39.688 10.7753 38.3619 13.6997 38.7518L31.8013 40.5614L19.5161 30.0975C17.1725 28.3054 13.9741 23.2326 19.9292 17.2772C25.8847 11.3218 30.9583 14.5205 32.7505 16.8641L44.0747 30.705L42.3589 13.5428C41.969 10.6185 43.2945 4.76965 51.7163 4.76941ZM42.9438 48.0272V55.1288L42.1479 55.1923L46.0874 62.0175L52.0083 63.6034L57.9312 62.0165L61.8706 55.1923L61.0747 55.1288V48.0272L55.8345 42.787H48.1841L42.9438 48.0272Z" fill="#1263FF"/>
<path d="M51.7163 4.76941V1.76941H51.7162L51.7163 4.76941ZM61.0747 13.5428L58.101 13.1463L58.0906 13.2247L58.0843 13.3036L61.0747 13.5428ZM59.6753 31.0331L56.6848 30.7938L55.9193 40.3612L61.9972 32.9328L59.6753 31.0331ZM71.2681 16.8641L73.5899 18.7638L73.6212 18.7257L73.6511 18.6865L71.2681 16.8641ZM84.0884 17.2772L86.2097 15.1559L86.2096 15.1558L84.0884 17.2772ZM84.5024 30.0985L82.6801 27.7154L82.6173 27.7634L82.5571 27.8147L84.5024 30.0985ZM72.2183 40.5624L70.2729 38.2786L62.9666 44.5023L72.5167 43.5475L72.2183 40.5624ZM90.3188 38.7528L90.6173 41.7379L90.6664 41.733L90.7153 41.7265L90.3188 38.7528ZM99.0923 48.1102L102.092 48.1103V48.1102L99.0923 48.1102ZM90.3188 57.4686L90.7154 54.495L90.637 54.4845L90.5581 54.4782L90.3188 57.4686ZM69.4009 55.7948L69.6402 52.8044L68.1668 58.5292L69.4009 55.7948ZM89.9399 65.0643L88.7059 67.7988L88.7508 67.8191L88.7965 67.8379L89.9399 65.0643ZM92.8589 77.5555L95.4569 79.0556L95.457 79.0555L92.8589 77.5555ZM80.5825 81.2733L82.4126 78.8962L82.3501 78.848L82.2851 78.8032L80.5825 81.2733ZM68.1187 72.6825L69.8212 70.2124L61.9182 64.7652L65.3125 73.7434L68.1187 72.6825ZM73.9136 88.0106L71.1074 89.0715L71.1248 89.1176L71.1438 89.1631L73.9136 88.0106ZM67.145 98.9071L67.9214 101.805L67.9215 101.805L67.145 98.9071ZM55.8345 92.8544L58.8094 92.4677L58.7993 92.3893L58.785 92.3115L55.8345 92.8544ZM52.0093 72.0634L54.9598 71.5205L49.0588 71.5205L52.0093 72.0634ZM48.1841 92.8553L45.2336 92.3125L45.2193 92.3902L45.2091 92.4685L48.1841 92.8553ZM36.8735 98.9071L36.097 101.805L36.0971 101.805L36.8735 98.9071ZM30.105 88.0116L32.8749 89.1638L32.8937 89.1186L32.9111 89.0727L30.105 88.0116ZM35.9019 72.6815L38.7079 73.7426L42.1028 64.7647L34.1995 70.2113L35.9019 72.6815ZM23.436 81.2723L21.7337 78.8021L21.6685 78.847L21.6059 78.8953L23.436 81.2723ZM11.1597 77.5546L8.56157 79.0545L8.56162 79.0546L11.1597 77.5546ZM14.0786 65.0643L15.2222 67.8378L15.2677 67.819L15.3127 67.7988L14.0786 65.0643ZM34.6177 55.7948L35.8518 58.5292L34.3784 52.8044L34.6177 55.7948ZM13.6997 57.4686L13.4604 54.4782L13.3816 54.4845L13.3032 54.4949L13.6997 57.4686ZM4.92627 48.1102L1.92627 48.1102V48.1103L4.92627 48.1102ZM13.6997 38.7518L13.3032 41.7255L13.3522 41.732L13.4013 41.737L13.6997 38.7518ZM31.8013 40.5614L31.5029 43.5465L41.0535 44.5013L33.7465 38.2776L31.8013 40.5614ZM19.5161 30.0975L21.4614 27.8137L21.4012 27.7624L21.3384 27.7144L19.5161 30.0975ZM19.9292 17.2772L17.8079 15.1559L17.8078 15.1559L19.9292 17.2772ZM32.7505 16.8641L30.3674 18.6865L30.3974 18.7257L30.4286 18.7638L32.7505 16.8641ZM44.0747 30.705L41.7528 32.6047L48.0489 40.3L47.0598 30.4065L44.0747 30.705ZM42.3589 13.5428L45.344 13.2444L45.3391 13.1953L45.3326 13.1464L42.3589 13.5428ZM42.9438 48.0272L40.8225 45.9059L39.9438 46.7846V48.0272H42.9438ZM42.9438 55.1288L43.1824 58.1193L45.9438 57.899V55.1288H42.9438ZM42.1479 55.1923L41.9094 52.2018L37.1759 52.5793L39.5497 56.692L42.1479 55.1923ZM46.0874 62.0175L43.4891 63.5172L44.1105 64.5937L45.3112 64.9153L46.0874 62.0175ZM52.0083 63.6034L51.2321 66.5012L52.0084 66.7092L52.7847 66.5012L52.0083 63.6034ZM57.9312 62.0165L58.7076 64.9143L59.908 64.5926L60.5293 63.5163L57.9312 62.0165ZM61.8706 55.1923L64.4688 56.6921L66.843 52.5793L62.1091 52.2018L61.8706 55.1923ZM61.0747 55.1288H58.0747V57.899L60.8362 58.1193L61.0747 55.1288ZM61.0747 48.0272H64.0747V46.7846L63.196 45.9059L61.0747 48.0272ZM55.8345 42.787L57.9558 40.6657L57.0771 39.787H55.8345V42.787ZM48.1841 42.787V39.787H46.9414L46.0628 40.6657L48.1841 42.787ZM51.7163 4.76941V7.76941C55.1663 7.76941 56.6137 8.92053 57.2778 9.8294C58.0546 10.8925 58.2194 12.2584 58.101 13.1463L61.0747 13.5428L64.0484 13.9394C64.32 11.9029 64.0167 8.88208 62.1224 6.28955C60.1154 3.54281 56.6887 1.76941 51.7163 1.76941V4.76941ZM61.0747 13.5428L58.0843 13.3036L56.6848 30.7938L59.6753 31.0331L62.6657 31.2724L64.0652 13.7821L61.0747 13.5428ZM59.6753 31.0331L61.9972 32.9328L73.5899 18.7638L71.2681 16.8641L68.9462 14.9644L57.3534 29.1334L59.6753 31.0331ZM71.2681 16.8641L73.6511 18.6865C74.1954 17.9748 75.2777 17.1255 76.5785 16.923C77.6905 16.7499 79.5277 16.9593 81.9671 19.3986L84.0884 17.2772L86.2096 15.1558C82.6937 11.6401 79.0169 10.4712 75.6556 10.9944C72.4831 11.4883 70.1329 13.41 68.885 15.0418L71.2681 16.8641ZM84.0884 17.2772L81.9671 19.3985C84.4066 21.8381 84.6163 23.6756 84.4432 24.788C84.2408 26.089 83.3916 27.1714 82.6801 27.7154L84.5024 30.0985L86.3247 32.4816C87.9569 31.2336 89.8784 28.883 90.3719 25.7103C90.8948 22.3489 89.7256 18.6718 86.2097 15.1559L84.0884 17.2772ZM84.5024 30.0985L82.5571 27.8147L70.2729 38.2786L72.2183 40.5624L74.1636 42.8461L86.4478 32.3823L84.5024 30.0985ZM72.2183 40.5624L72.5167 43.5475L90.6173 41.7379L90.3188 38.7528L90.0204 35.7677L71.9198 37.5773L72.2183 40.5624ZM90.3188 38.7528L90.7153 41.7265C91.6035 41.6081 92.9694 41.7728 94.0324 42.5494C94.9411 43.2133 96.0922 44.6605 96.0923 48.1103L99.0923 48.1102L102.092 48.1102C102.092 43.138 100.319 39.7114 97.5719 37.7046C94.9793 35.8106 91.9585 35.5076 89.9224 35.7791L90.3188 38.7528ZM99.0923 48.1102L96.0923 48.1102C96.0923 51.5601 94.9411 53.0076 94.0322 53.6717C92.9691 54.4485 91.6033 54.6133 90.7154 54.495L90.3188 57.4686L89.9223 60.4423C91.9588 60.7139 94.9796 60.4106 97.5721 58.5162C100.319 56.5092 102.092 53.0825 102.092 48.1103L99.0923 48.1102ZM90.3188 57.4686L90.5581 54.4782L69.6402 52.8044L69.4009 55.7948L69.1616 58.7852L90.0796 60.4591L90.3188 57.4686ZM69.4009 55.7948L68.1668 58.5292L88.7059 67.7988L89.9399 65.0643L91.174 62.3299L70.635 53.0604L69.4009 55.7948ZM89.9399 65.0643L88.7965 67.8379C89.6247 68.1793 90.7253 69.005 91.2575 70.2093C91.7126 71.2388 91.9858 73.0678 90.2608 76.0555L92.8589 77.5555L95.457 79.0555C97.9431 74.7494 98.1207 70.8951 96.7453 67.7836C95.4473 64.8468 92.9827 63.0738 91.0834 62.2908L89.9399 65.0643ZM92.8589 77.5555L90.2609 76.0555C88.536 79.0428 86.8155 79.7208 85.6965 79.8415C84.3876 79.9827 83.1225 79.4427 82.4126 78.8962L80.5825 81.2733L78.7524 83.6504C80.3803 84.9038 83.1479 86.1513 86.34 85.8069C89.722 85.442 92.9709 83.3612 95.4569 79.0556L92.8589 77.5555ZM80.5825 81.2733L82.2851 78.8032L69.8212 70.2124L68.1187 72.6825L66.4161 75.1526L78.88 83.7434L80.5825 81.2733ZM68.1187 72.6825L65.3125 73.7434L71.1074 89.0715L73.9136 88.0106L76.7197 86.9497L70.9248 71.6216L68.1187 72.6825ZM73.9136 88.0106L71.1438 89.1631C71.488 89.9903 71.6822 91.3523 71.207 92.5802C70.8008 93.63 69.7006 95.1165 66.3685 96.0093L67.145 98.9071L67.9215 101.805C72.7242 100.518 75.575 97.9181 76.8027 94.7456C77.9614 91.7512 77.4726 88.7549 76.6834 86.8581L73.9136 88.0106ZM67.145 98.9071L66.3686 96.0093C63.0365 96.9021 61.3402 96.1649 60.4633 95.4587C59.4377 94.6327 58.9249 93.3559 58.8094 92.4677L55.8345 92.8544L52.8595 93.241C53.1243 95.2785 54.1993 98.1179 56.7001 100.132C59.3496 102.265 63.1186 103.092 67.9214 101.805L67.145 98.9071ZM55.8345 92.8544L58.785 92.3115L54.9598 71.5205L52.0093 72.0634L49.0588 72.6062L52.884 93.3972L55.8345 92.8544ZM52.0093 72.0634L49.0588 71.5205L45.2336 92.3125L48.1841 92.8553L51.1346 93.3982L54.9598 72.6062L52.0093 72.0634ZM48.1841 92.8553L45.2091 92.4685C45.0936 93.3568 44.5809 94.6333 43.5553 95.4591C42.6785 96.1651 40.9822 96.9022 37.65 96.0093L36.8735 98.9071L36.0971 101.805C40.8997 103.092 44.6686 102.266 47.3182 100.132C49.8191 98.1189 50.8941 95.2797 51.159 93.2421L48.1841 92.8553ZM36.8735 98.9071L37.6501 96.0094C34.3182 95.1165 33.2181 93.6302 32.8118 92.5806C32.3366 91.353 32.5307 89.9912 32.8749 89.1638L30.105 88.0116L27.3351 86.8594C26.546 88.7562 26.0574 91.7523 27.2163 94.7464C28.4441 97.9186 31.2949 100.518 36.097 101.805L36.8735 98.9071ZM30.105 88.0116L32.9111 89.0727L38.7079 73.7426L35.9019 72.6815L33.0958 71.6204L27.2989 86.9505L30.105 88.0116ZM35.9019 72.6815L34.1995 70.2113L21.7337 78.8021L23.436 81.2723L25.1384 83.7426L37.6042 75.1517L35.9019 72.6815ZM23.436 81.2723L21.6059 78.8953C20.896 79.4418 19.6309 79.9819 18.3221 79.8407C17.2031 79.72 15.4827 79.0421 13.7577 76.0545L11.1597 77.5546L8.56162 79.0546C11.0477 83.3604 14.2966 85.4413 17.6786 85.8061C20.8708 86.1504 23.6384 84.9027 25.2662 83.6494L23.436 81.2723ZM11.1597 77.5546L13.7578 76.0546C12.0329 73.067 12.3062 71.2382 12.7611 70.209C13.2933 69.005 14.3937 68.1794 15.2222 67.8378L14.0786 65.0643L12.9351 62.2908C11.036 63.0739 8.57147 64.8465 7.27337 67.7832C5.89804 70.8945 6.0756 74.7485 8.56157 79.0545L11.1597 77.5546ZM14.0786 65.0643L15.3127 67.7988L35.8518 58.5292L34.6177 55.7948L33.3836 53.0604L12.8445 62.3299L14.0786 65.0643ZM34.6177 55.7948L34.3784 52.8044L13.4604 54.4782L13.6997 57.4686L13.939 60.4591L34.857 58.7852L34.6177 55.7948ZM13.6997 57.4686L13.3032 54.4949C12.4154 54.6133 11.0495 54.4485 9.98639 53.6716C9.07744 53.0074 7.92635 51.5599 7.92627 48.1102L4.92627 48.1102L1.92627 48.1103C1.92638 53.0824 3.69981 56.5091 6.44644 58.5161C9.03888 60.4104 12.0596 60.7139 14.0962 60.4423L13.6997 57.4686ZM4.92627 48.1102L7.92627 48.1102C7.92628 44.6603 9.0774 43.2128 9.98628 42.5487C11.0494 41.7719 12.4153 41.6071 13.3032 41.7255L13.6997 38.7518L14.0962 35.7781C12.0597 35.5066 9.03894 35.8099 6.44642 37.7042C3.69969 39.7112 1.92629 43.1379 1.92627 48.1102L4.92627 48.1102ZM13.6997 38.7518L13.4013 41.737L31.5029 43.5465L31.8013 40.5614L32.0997 37.5763L13.9981 35.7667L13.6997 38.7518ZM31.8013 40.5614L33.7465 38.2776L21.4614 27.8137L19.5161 30.0975L17.5709 32.3814L29.856 42.8452L31.8013 40.5614ZM19.5161 30.0975L21.3384 27.7144C20.6267 27.1702 19.7774 26.0879 19.5749 24.7872C19.4018 23.6752 19.6112 21.8379 22.0506 19.3985L19.9292 17.2772L17.8078 15.1559C14.2921 18.6719 13.1231 22.3487 13.6463 25.71C14.1402 28.8826 16.0619 31.2328 17.6938 32.4806L19.5161 30.0975ZM19.9292 17.2772L22.0505 19.3985C24.4899 16.9591 26.3274 16.7497 27.4396 16.9228C28.7407 17.1254 29.8232 17.9748 30.3674 18.6865L32.7505 16.8641L35.1336 15.0418C33.8856 13.4099 31.5352 11.4881 28.3625 10.9942C25.0011 10.471 21.3239 11.6399 17.8079 15.1559L19.9292 17.2772ZM32.7505 16.8641L30.4286 18.7638L41.7528 32.6047L44.0747 30.705L46.3966 28.8053L35.0724 14.9644L32.7505 16.8641ZM44.0747 30.705L47.0598 30.4065L45.344 13.2444L42.3589 13.5428L39.3738 13.8413L41.0896 31.0034L44.0747 30.705ZM42.3589 13.5428L45.3326 13.1464C45.2142 12.2583 45.3789 10.8924 46.1556 9.82936C46.8195 8.92059 48.2667 7.76951 51.7164 7.76941L51.7163 4.76941L51.7162 1.76941C46.7441 1.76955 43.3176 3.54302 41.3108 6.28982C39.4167 8.88236 39.1137 11.9031 39.3852 13.9393L42.3589 13.5428ZM42.9438 48.0272H39.9438V55.1288H42.9438H45.9438V48.0272H42.9438ZM42.9438 55.1288L42.7053 52.1383L41.9094 52.2018L42.1479 55.1923L42.3865 58.1828L43.1824 58.1193L42.9438 55.1288ZM42.1479 55.1923L39.5497 56.692L43.4891 63.5172L46.0874 62.0175L48.6857 60.5178L44.7462 53.6926L42.1479 55.1923ZM46.0874 62.0175L45.3112 64.9153L51.2321 66.5012L52.0083 63.6034L52.7845 60.7055L46.8636 59.1196L46.0874 62.0175ZM52.0083 63.6034L52.7847 66.5012L58.7076 64.9143L57.9312 62.0165L57.1547 59.1187L51.2319 60.7056L52.0083 63.6034ZM57.9312 62.0165L60.5293 63.5163L64.4688 56.6921L61.8706 55.1923L59.2724 53.6924L55.333 60.5166L57.9312 62.0165ZM61.8706 55.1923L62.1091 52.2018L61.3132 52.1383L61.0747 55.1288L60.8362 58.1193L61.6321 58.1828L61.8706 55.1923ZM61.0747 55.1288H64.0747V48.0272H61.0747H58.0747V55.1288H61.0747ZM61.0747 48.0272L63.196 45.9059L57.9558 40.6657L55.8345 42.787L53.7132 44.9083L58.9534 50.1485L61.0747 48.0272ZM55.8345 42.787V39.787H48.1841V42.787V45.787H55.8345V42.787ZM48.1841 42.787L46.0628 40.6657L40.8225 45.9059L42.9438 48.0272L45.0652 50.1485L50.3054 44.9083L48.1841 42.787Z" fill="#BDDBFF" mask="url(#path-3-outside-1_1203_463)"/>
<path d="M81.2674 103.723C80.5919 103.904 79.8974 103.503 79.7164 102.828L76.5511 91.0173C76.3705 90.342 76.7714 89.6474 77.4466 89.4662L80.1679 88.737C80.8434 88.5561 81.5377 88.9573 81.719 89.6325L82.8453 93.836L84.8976 90.2814C81.4728 86.9465 80.6031 81.5965 83.1026 77.2673L83.3907 76.7977C86.466 72.0447 92.7626 70.488 97.7207 73.3504L98.1903 73.6385C102.79 76.6145 104.397 82.6074 101.901 87.4847L101.638 87.9685C99.1377 92.2984 94.0689 94.2198 89.4679 92.9201L87.38 96.5364L91.6968 95.3797C92.3722 95.1988 93.0665 95.6001 93.2479 96.2752L93.9771 98.9966C94.158 99.6722 93.7571 100.367 93.0816 100.548L84.1326 102.946C84.0863 102.965 84.0382 102.981 83.9888 102.994L81.2674 103.723ZM90.9775 85.0299C92.3096 85.799 94.013 85.3426 94.7821 84.0105C95.551 82.6784 95.0947 80.9749 93.7627 80.2059C92.4307 79.437 90.7272 79.8935 89.9581 81.2253C89.189 82.5574 89.6455 84.2608 90.9775 85.0299Z" fill="#01AFF8"/>
<circle cx="51.5" cy="54.5" r="13.5" fill="#1263FF"/>
<path d="M40.0894 66.8902C46.8956 66.8902 52.4132 60.1465 52.4132 51.8278C52.4132 43.509 46.8956 36.7654 40.0894 36.7654C33.2832 36.7654 27.7656 43.509 27.7656 51.8278C27.7656 60.1465 33.2832 66.8902 40.0894 66.8902Z" fill="white"/>
<path d="M51.6471 51.8277C51.6471 43.7811 46.3362 37.5308 40.0893 37.5307C33.8423 37.5307 28.5307 43.781 28.5307 51.8277C28.5307 59.8744 33.8423 66.1247 40.0893 66.1247C46.3362 66.1246 51.6471 59.8743 51.6471 51.8277ZM53.1786 51.8277C53.1786 60.4184 47.4547 67.6553 40.0893 67.6554C32.7238 67.6554 27 60.4184 27 51.8277C27 43.237 32.7238 36 40.0893 36C47.4547 36.0001 53.1786 43.237 53.1786 51.8277Z" fill="black"/>
<path d="M38.4991 51.6817L43.5975 49.3259C42.5636 45.2258 39.4382 42.2426 35.7447 42.2426C31.2066 42.2426 27.5288 46.7372 27.5288 52.2855C27.5288 57.8337 31.2066 62.3284 35.7447 62.3284C39.9236 62.3284 43.3686 58.5125 43.8855 53.5758L38.4951 51.6817H38.4991Z" fill="black"/>
<path d="M62.9107 66.8902C69.7169 66.8902 75.2345 60.1465 75.2345 51.8278C75.2345 43.509 69.7169 36.7654 62.9107 36.7654C56.1045 36.7654 50.5869 43.509 50.5869 51.8278C50.5869 60.1465 56.1045 66.8902 62.9107 66.8902Z" fill="white"/>
<path d="M74.4684 51.8277C74.4684 43.7811 69.1574 37.5308 62.9106 37.5307C56.6636 37.5307 51.352 43.781 51.352 51.8277C51.352 59.8744 56.6636 66.1247 62.9106 66.1247C69.1575 66.1246 74.4684 59.8743 74.4684 51.8277ZM75.9999 51.8277C75.9999 60.4184 70.276 67.6553 62.9106 67.6554C55.5451 67.6554 49.8213 60.4184 49.8213 51.8277C49.8213 43.237 55.5451 36 62.9106 36C70.276 36.0001 75.9999 43.237 75.9999 51.8277Z" fill="black"/>
<path d="M61.3194 51.6817L66.4178 49.3259C65.3839 45.2258 62.2586 42.2426 58.565 42.2426C54.0269 42.2426 50.3491 46.7372 50.3491 52.2855C50.3491 57.8337 54.0269 62.3284 58.565 62.3284C62.7439 62.3284 66.1889 58.5125 66.7058 53.5758L61.3154 51.6817H61.3194Z" fill="black"/>
<path d="M32.1136 49.2154C32.9592 49.2154 33.6447 48.5299 33.6447 47.6843C33.6447 46.8387 32.9592 46.1532 32.1136 46.1532C31.268 46.1532 30.5825 46.8387 30.5825 47.6843C30.5825 48.5299 31.268 49.2154 32.1136 49.2154Z" fill="white"/>
<path d="M54.7821 49.0851C55.6277 49.0851 56.3132 48.3997 56.3132 47.5541C56.3132 46.7084 55.6277 46.0229 54.7821 46.0229C53.9365 46.0229 53.251 46.7084 53.251 47.5541C53.251 48.3997 53.9365 49.0851 54.7821 49.0851Z" fill="white"/>
</g>
<defs>
<clipPath id="clip0_1203_463">
<rect width="104" height="104" fill="white"/>
</clipPath>
</defs>
</svg>
