<svg viewBox="0 0 104 104" fill="none" xmlns="http://www.w3.org/2000/svg">
<g clip-path="url(#clip0_1203_458)">
<rect x="0.970844" y="0.252854" width="4.89532" height="12.9982" rx="2.44766" transform="matrix(0.86675 -0.498743 0.513342 0.858184 16.5748 11.5508)" fill="#94EE70" stroke="#FFFFE4" stroke-width="1.40693"/>
<rect x="3.37693" y="29.3323" width="4.89532" height="12.9982" rx="2.47112" transform="rotate(-74.9169 3.37693 29.3323)" fill="#94EE70" stroke="#FFFFE4" stroke-width="1.40693"/>
<rect x="-0.697818" y="0.697202" width="4.84941" height="13.1044" rx="2.4247" transform="matrix(-1.00734 -0.00146142 0.0153622 0.992561 35.5402 5.01332)" fill="#94EE70" stroke="#FFFFE4" stroke-width="1.40693"/>
<path d="M46.5458 88.9005C35.8959 86.4238 20.7137 76.7649 11.5222 51.9879C10.2694 48.6109 9.0189 44.746 10.7615 41.5707C11.4111 40.3868 12.4291 39.3743 13.98 38.9021C17.8792 37.7151 20.8611 40.5548 21.8647 42.1231C22.4391 37.5761 25.9863 28.5847 35.5799 28.9951C34.4084 26.8533 33.0329 22.1087 36.903 20.2643C40.7731 18.4198 43.3729 21.2094 44.189 22.8347C44.4149 21.4851 45.4213 18.5902 47.6401 17.8079C49.8588 17.0256 52.7852 18.5338 53.9711 19.3857C54.1031 18.3506 54.9958 16.0588 57.5104 15.1722C60.6537 14.0639 63.1832 16.0654 64.9019 18.6566C65.204 17.7161 66.326 15.6525 68.3968 14.9223C70.9854 14.0096 74.9688 16.4047 76.1035 18.1155C77.0632 19.5623 94.0113 46.0514 86.1064 68.6959C83.1073 77.2873 74.5769 82.1077 66.0399 85.1177L60.1552 87.1925C55.7427 88.7483 51.0808 89.9551 46.5458 88.9005Z" fill="#1263FF"/>
<path d="M21.8647 42.1231C20.8611 40.5548 17.8792 37.7151 13.98 38.9021C12.4291 39.3743 11.4111 40.3868 10.7615 41.5707C9.0189 44.746 10.2694 48.6109 11.5222 51.9879C20.7137 76.7649 35.8959 86.4238 46.5458 88.9005C51.0808 89.9551 55.7427 88.7483 60.1552 87.1925L66.0399 85.1177C74.5769 82.1077 83.1073 77.2874 86.1064 68.6959C94.0113 46.0514 77.0632 19.5623 76.1035 18.1155C74.9688 16.4047 70.9854 14.0096 68.3968 14.9223C66.326 15.6525 65.204 17.7161 64.902 18.6566M21.8647 42.1231C23.0376 46.868 25.8753 54.0509 30.1251 57.1897C35.056 60.8315 42.7664 55.7684 42.5345 49.5934C42.3686 45.1772 40.5599 38.573 35.5799 28.9951M21.8647 42.1231C22.4391 37.5761 25.9863 28.5847 35.5799 28.9951M35.5799 28.9951C34.4084 26.8533 33.033 22.1087 36.903 20.2643C40.7731 18.4198 43.3729 21.2094 44.189 22.8347M44.189 22.8347C46.9359 28.7302 52.5964 41.9278 53.2636 47.5543M44.189 22.8347C44.4149 21.4851 45.4213 18.5902 47.6401 17.8079C49.8588 17.0256 52.7852 18.5338 53.9711 19.3857M53.9711 19.3857C57.1107 25.593 63.6527 39.3924 64.7031 44.9325M53.9711 19.3857C54.1031 18.3506 54.9958 16.0588 57.5104 15.1722C60.6537 14.0639 63.1832 16.0654 64.902 18.6566M64.902 18.6566C66.6207 21.2479 74.7102 37.8157 75.7242 45.6906" stroke="#0F0F0F" stroke-width="2.25554" stroke-linecap="round"/>
<path d="M39.2287 66.2458C44.9859 66.2458 49.6531 60.5415 49.6531 53.5048C49.6531 46.4681 44.9859 40.7638 39.2287 40.7638C33.4714 40.7638 28.8042 46.4681 28.8042 53.5048C28.8042 60.5415 33.4714 66.2458 39.2287 66.2458Z" fill="white"/>
<path d="M49.0048 53.5047C49.0048 46.6982 44.5124 41.4112 39.2283 41.4111C33.9441 41.4111 29.451 46.6981 29.451 53.5047C29.451 60.3113 33.9441 65.5983 39.2283 65.5983C44.5124 65.5982 49.0048 60.3112 49.0048 53.5047ZM50.3003 53.5047C50.3003 60.7714 45.4585 66.893 39.2283 66.8931C32.9979 66.8931 28.1562 60.7714 28.1562 53.5047C28.1563 46.238 32.9979 40.1163 39.2283 40.1163C45.4585 40.1164 50.3002 46.238 50.3003 53.5047Z" fill="black"/>
<path d="M37.8831 53.3811L42.1957 51.3884C41.3212 47.9202 38.6775 45.3967 35.5532 45.3967C31.7145 45.3967 28.6035 49.1987 28.6035 53.8918C28.6035 58.585 31.7145 62.387 35.5532 62.387C39.0881 62.387 42.0021 59.1592 42.4394 54.9834L37.8797 53.3811L37.8831 53.3811Z" fill="black"/>
<path d="M58.5329 66.2458C64.2901 66.2458 68.9573 60.5415 68.9573 53.5048C68.9573 46.4681 64.2901 40.7638 58.5329 40.7638C52.7756 40.7638 48.1084 46.4681 48.1084 53.5048C48.1084 60.5415 52.7756 66.2458 58.5329 66.2458Z" fill="white"/>
<path d="M68.309 53.5047C68.309 46.6982 63.8166 41.4112 58.5324 41.4111C53.2483 41.4111 48.7552 46.6981 48.7552 53.5047C48.7552 60.3113 53.2483 65.5983 58.5324 65.5983C63.8166 65.5982 68.309 60.3112 68.309 53.5047ZM69.6045 53.5047C69.6044 60.7714 64.7627 66.893 58.5324 66.8931C52.3021 66.8931 47.4604 60.7714 47.4604 53.5047C47.4605 46.238 52.3021 40.1163 58.5324 40.1163C64.7627 40.1164 69.6044 46.238 69.6045 53.5047Z" fill="black"/>
<path d="M57.1863 53.3811L61.4989 51.3884C60.6244 47.9202 57.9807 45.3967 54.8564 45.3967C51.0177 45.3967 47.9067 49.1987 47.9067 53.8918C47.9067 58.585 51.0177 62.387 54.8564 62.387C58.3913 62.387 61.3053 59.1592 61.7426 54.9834L57.1829 53.3811L57.1863 53.3811Z" fill="black"/>
<path d="M32.4826 51.2949C33.1979 51.2949 33.7778 50.715 33.7778 49.9997C33.7778 49.2844 33.1979 48.7046 32.4826 48.7046C31.7673 48.7046 31.1875 49.2844 31.1875 49.9997C31.1875 50.715 31.7673 51.2949 32.4826 51.2949Z" fill="white"/>
<path d="M51.6565 51.1844C52.3717 51.1844 52.9516 50.6045 52.9516 49.8892C52.9516 49.174 52.3717 48.5941 51.6565 48.5941C50.9412 48.5941 50.3613 49.174 50.3613 49.8892C50.3613 50.6045 50.9412 51.1844 51.6565 51.1844Z" fill="white"/>
<rect x="1.42573" y="0.69304" width="32.642" height="8.89351" rx="4.44676" transform="matrix(0.943097 -0.332519 0.321109 0.947042 48.7814 90.4773)" fill="#1263FF" stroke="#0F0F0F" stroke-width="2.25554"/>
</g>
<defs>
<clipPath id="clip0_1203_458">
<rect width="104" height="104" fill="white"/>
</clipPath>
</defs>
</svg>
