<svg viewBox="0 0 160 160" fill="none" xmlns="http://www.w3.org/2000/svg">
<g opacity="0.8">
<path d="M119.365 47.5422C119.145 45.4081 116.782 27.4428 98.3771 23.4038C92.7054 22.1578 87.7736 22.4347 83.6153 23.4802C76.9362 20.3197 70.4815 18.3861 65.4352 19.107C53.7384 20.778 67.3448 33.9071 67.3448 33.9071C68.4716 33.8211 69.5887 33.7543 70.7011 33.7065C67.2016 34.4704 63.8263 35.5733 60.618 36.9864C60.0737 36.2512 59.2048 35.7738 58.2166 35.7738H45.2785C43.6314 35.7738 42.2946 37.1106 42.2946 38.7577C42.2946 40.4047 43.6314 41.7415 45.2785 41.7415H52.0388C49.3748 43.5557 46.8874 45.6086 44.5958 47.862C44.4 47.8525 44.1995 47.843 44.0038 47.843C35.5153 47.843 28.6309 56.2551 28.6309 66.6294C28.6309 69.3268 29.0987 71.8858 29.9342 74.2013C29.0844 77.992 28.6309 81.9355 28.6309 85.984C28.6309 115.541 52.5878 139.498 82.1449 139.498C111.702 139.498 135.659 115.541 135.659 85.984C135.659 70.8928 129.409 57.2672 119.365 47.5374V47.5422Z" fill="white" stroke="white" stroke-width="9.26195" stroke-linecap="round" stroke-linejoin="round"/>
<path d="M82.1449 139.498C111.7 139.498 135.659 115.539 135.659 85.984C135.659 56.429 111.7 32.47 82.1449 32.47C52.5899 32.47 28.6309 56.429 28.6309 85.984C28.6309 115.539 52.5899 139.498 82.1449 139.498Z" fill="white"/>
<mask id="mask0_2205_948" style="mask-type:luminance" maskUnits="userSpaceOnUse" x="28" y="32" width="108" height="108">
<path d="M82.1449 139.498C111.7 139.498 135.659 115.539 135.659 85.984C135.659 56.429 111.7 32.47 82.1449 32.47C52.5899 32.47 28.6309 56.429 28.6309 85.984C28.6309 115.539 52.5899 139.498 82.1449 139.498Z" fill="white"/>
</mask>
<g mask="url(#mask0_2205_948)">
<path d="M41.249 51.4426C48.84 74.2156 48.84 96.9885 41.249 119.757" stroke="#010100" stroke-width="1.90968" stroke-miterlimit="10"/>
<path d="M106.15 37.7789C85.3626 70.6875 87.1768 102.536 106.15 133.42" stroke="#010100" stroke-width="1.90968" stroke-miterlimit="10"/>
<path d="M138.857 59.7975C129.691 121.733 95.8515 143.494 42.6144 135.588L28.0674 146.573L88.4992 153.162L128.789 144.372L159.005 91.6509L138.862 59.7975H138.857Z" fill="#010100"/>
</g>
<path d="M82.1449 139.498C111.7 139.498 135.659 115.539 135.659 85.984C135.659 56.429 111.7 32.47 82.1449 32.47C52.5899 32.47 28.6309 56.429 28.6309 85.984C28.6309 115.539 52.5899 139.498 82.1449 139.498Z" stroke="#010100" stroke-width="1.90968" stroke-miterlimit="10"/>
<path d="M67.3447 33.9023C87.0526 32.3793 104.55 36.6093 119.383 47.7475C119.383 47.7475 117.951 27.6959 98.377 23.3991C78.1296 18.9543 67.3447 33.9023 67.3447 33.9023Z" fill="#1263FF" stroke="#010100" stroke-width="1.90968" stroke-miterlimit="10"/>
<path d="M119.384 47.7475C119.384 47.7475 83.4197 16.5338 65.4353 19.1023C53.7385 20.7732 67.3449 33.9023 67.3449 33.9023C86.9621 31.8828 104.226 36.7382 119.384 47.7475Z" fill="#002560" stroke="#010100" stroke-width="1.90968" stroke-linecap="round" stroke-linejoin="round"/>
<path d="M44.0038 85.4158C52.494 85.4158 59.3767 77.0049 59.3767 66.6294C59.3767 56.2539 52.494 47.8429 44.0038 47.8429C35.5136 47.8429 28.6309 56.2539 28.6309 66.6294C28.6309 77.0049 35.5136 85.4158 44.0038 85.4158Z" fill="white" stroke="#010100" stroke-width="1.90968" stroke-miterlimit="10"/>
<path d="M43.4501 66.448L49.8093 63.5071C48.5203 58.3939 44.6245 54.6748 40.0174 54.6748C34.36 54.6748 29.772 60.2845 29.772 67.1975C29.772 74.1106 34.36 79.7203 40.0174 79.7203C45.2308 79.7203 49.5228 74.9604 50.1721 68.8017L43.4501 66.4432V66.448Z" fill="#010100"/>
<path d="M72.4676 85.4158C80.9579 85.4158 87.8406 77.0049 87.8406 66.6294C87.8406 56.2539 80.9579 47.8429 72.4676 47.8429C63.9774 47.8429 57.0947 56.2539 57.0947 66.6294C57.0947 77.0049 63.9774 85.4158 72.4676 85.4158Z" fill="white" stroke="#010100" stroke-width="1.90968" stroke-miterlimit="10"/>
<path d="M71.9139 66.448L78.2732 63.5071C76.9841 58.3939 73.0884 54.6748 68.4813 54.6748C62.8238 54.6748 58.2358 60.2845 58.2358 67.1975C58.2358 74.1106 62.8238 79.7203 68.4813 79.7203C73.6947 79.7203 77.9867 74.9604 78.636 68.8017L71.9139 66.4432V66.448Z" fill="#010100"/>
<path d="M86.7807 36.0459H73.8379C72.1899 36.0459 70.854 37.3818 70.854 39.0298V39.0345C70.854 40.6825 72.1899 42.0184 73.8379 42.0184H86.7807C88.4287 42.0184 89.7646 40.6825 89.7646 39.0345V39.0298C89.7646 37.3818 88.4287 36.0459 86.7807 36.0459Z" fill="#1263FF" stroke="#010100" stroke-width="1.90968" stroke-miterlimit="10"/>
<path d="M58.2217 35.769H45.2788C43.6308 35.769 42.2949 37.105 42.2949 38.7529V38.7577C42.2949 40.4056 43.6308 41.7416 45.2788 41.7416H58.2217C59.8696 41.7416 61.2055 40.4056 61.2055 38.7577V38.7529C61.2055 37.105 59.8696 35.769 58.2217 35.769Z" fill="#1263FF" stroke="#010100" stroke-width="1.90968" stroke-miterlimit="10"/>
<path d="M59.458 64.4619C58.4888 55.2239 52.0389 48.0817 44.2187 48.0817C36.3986 48.0817 29.9439 55.2239 28.9795 64.4619H59.4628H59.458Z" fill="#1263FF" stroke="#010100" stroke-width="1.90968" stroke-miterlimit="10"/>
<path d="M87.626 64.4572C86.6568 55.2191 80.2068 48.0769 72.3867 48.0769C64.5666 48.0769 58.1118 55.2191 57.1475 64.4572H87.6307H87.626Z" fill="#1263FF" stroke="#010100" stroke-width="1.90968" stroke-miterlimit="10"/>
<path d="M111.344 45.3317C111.344 45.3317 108.146 52.259 108.146 54.923C108.146 57.587 112.944 60.7858 115.073 55.4577C115.073 55.4577 115.073 51.7291 111.344 45.3317Z" fill="#00C3FF" stroke="#010100" stroke-width="1.85239" stroke-linecap="round" stroke-linejoin="round"/>
<path d="M121.804 56.5797C121.804 56.5797 118.605 63.5071 118.605 66.1711C118.605 68.8351 123.404 72.0338 125.533 66.7058C125.533 66.7058 125.533 62.9771 121.804 56.5797Z" fill="#00C3FF" stroke="#010100" stroke-width="1.85239" stroke-linecap="round" stroke-linejoin="round"/>
<path d="M49.4276 84.3035L44.1426 90.0325" stroke="#E61E47" stroke-width="1.85239" stroke-miterlimit="10" stroke-linecap="round"/>
<path d="M58.0209 84.3035L52.7358 90.0325" stroke="#E61E47" stroke-width="1.85239" stroke-miterlimit="10" stroke-linecap="round"/>
<path d="M66.6141 84.3035L61.3291 90.0325" stroke="#E61E47" stroke-width="1.85239" stroke-miterlimit="10" stroke-linecap="round"/>
<path d="M103.505 84.0791C110.503 84.0791 116.175 78.4062 116.175 71.4084C116.175 64.4105 110.503 58.7377 103.505 58.7377C96.5069 58.7377 90.834 64.4105 90.834 71.4084C90.834 78.4062 96.5069 84.0791 103.505 84.0791Z" fill="white"/>
<mask id="mask1_2205_948" style="mask-type:luminance" maskUnits="userSpaceOnUse" x="90" y="58" width="27" height="27">
<path d="M103.505 84.0791C110.503 84.0791 116.175 78.4062 116.175 71.4084C116.175 64.4105 110.503 58.7377 103.505 58.7377C96.5069 58.7377 90.834 64.4105 90.834 71.4084C90.834 78.4062 96.5069 84.0791 103.505 84.0791Z" fill="white"/>
</mask>
<g mask="url(#mask1_2205_948)">
<path d="M91.6123 64.9775C97.9668 69.8759 100.411 76.1205 99.5232 83.5205" stroke="#E72037" stroke-width="1.85239" stroke-miterlimit="10"/>
<path d="M106.207 57.9403C106.245 65.9657 109.73 71.6948 116.152 75.4759" stroke="#E72037" stroke-width="1.85239" stroke-miterlimit="10"/>
</g>
<path d="M103.505 84.0791C110.503 84.0791 116.175 78.4062 116.175 71.4084C116.175 64.4105 110.503 58.7377 103.505 58.7377C96.5069 58.7377 90.834 64.4105 90.834 71.4084C90.834 78.4062 96.5069 84.0791 103.505 84.0791Z" stroke="#010100" stroke-width="1.85239" stroke-miterlimit="10"/>
<path d="M99.6279 82.8569C103.734 77.2663 108.961 74.5116 115.803 75.8531" stroke="#010100" stroke-width="1.85239" stroke-miterlimit="10"/>
<path d="M103.189 78.7463L108.532 82.4081L109.592 76.0918" stroke="#010100" stroke-width="1.85239" stroke-linejoin="round"/>
<path d="M107.062 83.7497L110.06 90.2283L113.951 88.4284L110.948 81.9498" fill="#010100"/>
<path d="M107.062 83.7497L110.06 90.2283L113.951 88.4284L110.948 81.9498" stroke="#010100" stroke-width="1.85239" stroke-linejoin="round"/>
<path d="M119.47 83.0098C114.581 84.4898 107.682 85.9745 102.564 87.4259C99.4895 88.2996 92.0466 91.3646 99.4848 93.8281C98.2053 94.5777 98.4058 95.2986 97.4987 96.1579C98.2291 96.6115 98.3724 96.9027 99.0933 97.2608C94.2045 105.382 118.133 101.825 122.277 100.082" fill="white"/>
<path d="M119.47 83.0098C114.581 84.4898 107.682 85.9745 102.564 87.4259C99.4895 88.2996 92.0466 91.3646 99.4848 93.8281C98.2053 94.5777 98.4058 95.2986 97.4987 96.1579C98.2291 96.6115 98.3724 96.9027 99.0933 97.2608C94.2045 105.382 118.133 101.825 122.277 100.082" stroke="#010100" stroke-width="1.90968" stroke-linecap="round" stroke-linejoin="round"/>
</g>
</svg>
