<svg viewBox="0 0 104 104" fill="currentColor" xmlns="http://www.w3.org/2000/svg">
<g clip-path="url(#clip0_1203_460)">
<circle cx="52.2046" cy="51.6534" r="50.3394" fill="white" stroke="#1263FF" stroke-width="2"/>
<circle cx="35.0486" cy="35.0486" r="35.0486" transform="matrix(-0.709235 -0.704972 0.709235 -0.704972 52.0107 100.918)" fill="#1263FF"/>
<path d="M41.0894 66.8902C47.8956 66.8902 53.4132 60.1465 53.4132 51.8278C53.4132 43.509 47.8956 36.7654 41.0894 36.7654C34.2832 36.7654 28.7656 43.509 28.7656 51.8278C28.7656 60.1465 34.2832 66.8902 41.0894 66.8902Z" fill="white"/>
<path d="M52.6471 51.8277C52.6471 43.7811 47.3362 37.5308 41.0893 37.5307C34.8423 37.5307 29.5307 43.781 29.5307 51.8277C29.5307 59.8744 34.8423 66.1247 41.0893 66.1247C47.3362 66.1246 52.6471 59.8743 52.6471 51.8277ZM54.1786 51.8277C54.1786 60.4184 48.4547 67.6553 41.0893 67.6554C33.7238 67.6554 28 60.4184 28 51.8277C28 43.237 33.7238 36 41.0893 36C48.4547 36.0001 54.1786 43.237 54.1786 51.8277Z" fill="black"/>
<path d="M39.4995 51.6817L44.598 49.3259C43.5641 45.2258 40.4387 42.2426 36.7451 42.2426C32.2071 42.2426 28.5293 46.7372 28.5293 52.2855C28.5293 57.8337 32.2071 62.3284 36.7451 62.3284C40.9241 62.3284 44.3691 58.5125 44.886 53.5758L39.4956 51.6817H39.4995Z" fill="black"/>
<path d="M63.9107 66.8902C70.7169 66.8902 76.2345 60.1465 76.2345 51.8278C76.2345 43.509 70.7169 36.7654 63.9107 36.7654C57.1045 36.7654 51.5869 43.509 51.5869 51.8278C51.5869 60.1465 57.1045 66.8902 63.9107 66.8902Z" fill="white"/>
<path d="M75.4684 51.8277C75.4684 43.7811 70.1574 37.5308 63.9106 37.5307C57.6636 37.5307 52.352 43.781 52.352 51.8277C52.352 59.8744 57.6636 66.1247 63.9106 66.1247C70.1575 66.1246 75.4684 59.8743 75.4684 51.8277ZM76.9999 51.8277C76.9999 60.4184 71.276 67.6553 63.9106 67.6554C56.5451 67.6554 50.8213 60.4184 50.8213 51.8277C50.8213 43.237 56.5451 36 63.9106 36C71.276 36.0001 76.9999 43.237 76.9999 51.8277Z" fill="black"/>
<path d="M62.3189 51.6817L67.4173 49.3259C66.3834 45.2258 63.2581 42.2426 59.5645 42.2426C55.0264 42.2426 51.3486 46.7372 51.3486 52.2855C51.3486 57.8337 55.0264 62.3284 59.5645 62.3284C63.7434 62.3284 67.1884 58.5125 67.7054 53.5758L62.3149 51.6817H62.3189Z" fill="black"/>
<path d="M33.1141 49.2154C33.9597 49.2154 34.6452 48.5299 34.6452 47.6843C34.6452 46.8387 33.9597 46.1532 33.1141 46.1532C32.2685 46.1532 31.583 46.8387 31.583 47.6843C31.583 48.5299 32.2685 49.2154 33.1141 49.2154Z" fill="white"/>
<path d="M55.7821 49.0851C56.6277 49.0851 57.3132 48.3997 57.3132 47.5541C57.3132 46.7084 56.6277 46.0229 55.7821 46.0229C54.9365 46.0229 54.251 46.7084 54.251 47.5541C54.251 48.3997 54.9365 49.0851 55.7821 49.0851Z" fill="white"/>
<path d="M84 75L85.3471 79.1459H89.7063L86.1796 81.7082L87.5267 85.8541L84 83.2918L80.4733 85.8541L81.8204 81.7082L78.2937 79.1459H82.6529L84 75Z" fill="#FF72EE"/>
<path d="M93 61L94.3471 65.1459H98.7063L95.1796 67.7082L96.5267 71.8541L93 69.2918L89.4733 71.8541L90.8204 67.7082L87.2937 65.1459H91.6529L93 61Z" fill="#FF72EE"/>
<path d="M20 75L18.6529 79.1459H14.2937L17.8204 81.7082L16.4733 85.8541L20 83.2918L23.5267 85.8541L22.1796 81.7082L25.7063 79.1459H21.3471L20 75Z" fill="#FF72EE"/>
<path d="M11 61L9.65292 65.1459H5.29366L8.82037 67.7082L7.47329 71.8541L11 69.2918L14.5267 71.8541L13.1796 67.7082L16.7063 65.1459H12.3471L11 61Z" fill="#FF72EE"/>
<path d="M9.13629 33.6878L10.7555 30.9045L16.9379 31.7477L16.9943 31.6509L13.1912 26.7175L14.8245 23.91L23.3922 28.8942L22.1109 31.0966L17.0768 28.168L17.0346 28.2407L20.8697 33.0632L20.0812 34.4185L13.9551 33.4785L13.9269 33.5269L18.9852 36.4696L17.704 38.672L9.13629 33.6878ZM27.5312 24.08L25.3235 25.8022L21.8099 15.972L24.6137 13.7847L33.2933 19.585L31.0856 21.3072L29.4337 20.1456L26.8065 22.195L27.5312 24.08ZM26.0756 20.2794L27.7535 18.9705L24.881 16.9498L24.8148 17.0015L26.0756 20.2794ZM32.5506 10.9926L31.8661 8.97773L39.9523 6.23072L40.6368 8.24563L37.8265 9.20032L40.3303 16.5706L37.8912 17.3992L35.3874 10.0289L32.5506 10.9926ZM46.7805 14.6021L46.6981 4.69044L53.7539 4.6318L53.7715 6.75973L49.3197 6.79673L49.3346 8.58867L53.4224 8.55469L53.4399 10.6546L49.352 10.6886L49.3669 12.4805L53.8188 12.4435L53.8362 14.5435L46.7805 14.6021ZM57.9228 14.7186L60.9279 5.27307L64.9569 6.5549C67.114 7.25585 67.9375 8.54626 67.4833 9.97375C67.148 11.0277 66.1638 11.5814 65.0153 11.451L64.9813 11.5578C66.1693 11.9798 66.8806 13.161 66.4562 14.4952C65.9638 16.0427 64.3532 16.7644 62.2987 16.1107L57.9228 14.7186ZM61.041 13.5069L62.295 13.9058C63.1846 14.2036 63.7352 13.9968 63.9432 13.3431C64.1554 12.676 63.7892 12.1187 62.9753 11.8598L61.6946 11.4523L61.041 13.5069ZM62.187 9.90477L63.2809 10.2528C63.988 10.4778 64.5744 10.297 64.7787 9.70095C64.9564 9.09635 64.5998 8.60093 63.9285 8.40205L62.7812 8.03702L62.187 9.90477ZM71.0154 19.9877L68.7919 18.2859L77.4176 12.4057L80.2415 14.5669L76.8188 24.4292L74.5953 22.7275L75.3025 20.8359L72.6565 18.8108L71.0154 19.9877ZM74.3258 17.6202L76.0157 18.9135L77.2462 15.6242L77.1795 15.5731L74.3258 17.6202ZM79.5934 26.8276L87.8479 21.3404L89.2895 23.5089L82.7838 27.8336L85.0159 31.1914L83.2671 32.354L79.5934 26.8276ZM85.2638 35.6591L94.6226 32.3942L95.4803 34.8529L88.1043 37.4261L89.4324 41.2331L87.4496 41.9248L85.2638 35.6591Z" fill="#1263FF"/>
</g>
<defs>
<clipPath id="clip0_1203_460">
<rect width="104" height="104" fill="white"/>
</clipPath>
</defs>
</svg>
