<svg viewBox="0 0 104 104" fill="currentColor" xmlns="http://www.w3.org/2000/svg">
<circle cx="80.2373" cy="47.9814" r="6.7627" fill="#1263FF" stroke="black" stroke-width="2.08082"/>
<rect x="95.5776" y="30" width="5" height="12" rx="2.5" transform="rotate(45 95.5776 30)" fill="#94EE70" stroke="#FFFFE4" stroke-width="0.906337"/>
<rect width="5" height="12" rx="2.5" transform="matrix(0.707107 -0.707107 -0.707107 -0.707107 95.5776 64.7197)" fill="#94EE70" stroke="#FFFFE4" stroke-width="0.906337"/>
<rect x="103" y="45.1655" width="5" height="12" rx="2.5" transform="rotate(90 103 45.1655)" fill="#94EE70" stroke="#FFFFE4" stroke-width="0.906337"/>
<path d="M23.9518 63.7226C23.2228 61.0019 24.8374 58.2054 27.5581 57.4764L34.3316 55.6614C37.7325 54.7502 41.2282 56.7684 42.1394 60.1693L48.1101 82.4521C49.0214 85.853 47.0031 89.3487 43.6023 90.2599L38.0603 91.7449C34.6594 92.6561 31.1638 90.6379 30.2525 87.2371L23.9518 63.7226Z" fill="#CFFF5E" stroke="black" stroke-width="1.86346"/>
<path d="M71.8867 74.0635L70.5771 73.4824L47.7969 63.376H20.9023C15.9696 63.376 11.9709 59.3771 11.9707 54.4443V41.3398C11.9707 36.407 15.9695 32.4082 20.9023 32.4082H48.292L70.5547 21.8262L71.8867 21.1934V74.0635Z" fill="#1263FF"/>
<path d="M71.8867 74.0635L71.5014 74.9318L72.8367 75.5243V74.0635H71.8867ZM70.5771 73.4824L70.9624 72.6141L70.9624 72.614L70.5771 73.4824ZM47.7969 63.376L48.1821 62.5076L47.9981 62.426H47.7969V63.376ZM20.9023 63.376V64.326V63.376ZM11.9707 54.4443H11.0207V54.4444L11.9707 54.4443ZM20.9023 32.4082V31.4582V32.4082ZM48.292 32.4082V33.3582H48.5063L48.6998 33.2662L48.292 32.4082ZM70.5547 21.8262L70.147 20.9681L70.1469 20.9682L70.5547 21.8262ZM71.8867 21.1934H72.8367V19.6903L71.4791 20.3353L71.8867 21.1934ZM71.8867 74.0635L72.272 73.1951L70.9624 72.6141L70.5771 73.4824L70.1919 74.3508L71.5014 74.9318L71.8867 74.0635ZM70.5771 73.4824L70.9624 72.614L48.1821 62.5076L47.7969 63.376L47.4116 64.2444L70.1919 74.3508L70.5771 73.4824ZM47.7969 63.376V62.426H20.9023V63.376V64.326H47.7969V63.376ZM20.9023 63.376V62.426C16.4943 62.426 12.9208 58.8524 12.9207 54.4443L11.9707 54.4443L11.0207 54.4444C11.0209 59.9017 15.4449 64.326 20.9023 64.326V63.376ZM11.9707 54.4443H12.9207V41.3398H11.9707H11.0207V54.4443H11.9707ZM11.9707 41.3398H12.9207C12.9207 36.9317 16.4942 33.3582 20.9023 33.3582V32.4082V31.4582C15.4448 31.4582 11.0207 35.8823 11.0207 41.3398H11.9707ZM20.9023 32.4082V33.3582H48.292V32.4082V31.4582H20.9023V32.4082ZM48.292 32.4082L48.6998 33.2662L70.9625 22.6842L70.5547 21.8262L70.1469 20.9682L47.8842 31.5502L48.292 32.4082ZM70.5547 21.8262L70.9623 22.6843L72.2944 22.0514L71.8867 21.1934L71.4791 20.3353L70.147 20.9681L70.5547 21.8262ZM71.8867 21.1934H70.9367V74.0635H71.8867H72.8367V21.1934H71.8867Z" fill="black"/>
<path d="M26.9429 46.3202C33.0692 46.3202 38.0356 40.2875 38.0356 32.8458C38.0356 25.404 33.0692 19.3713 26.9429 19.3713C20.8165 19.3713 15.8501 25.404 15.8501 32.8458C15.8501 40.2875 20.8165 46.3202 26.9429 46.3202Z" fill="white" stroke="black" stroke-width="1.9" stroke-miterlimit="10"/>
<path d="M26.5441 32.712L31.1328 30.6027C30.2027 26.9353 27.3916 24.2678 24.0672 24.2678C19.9849 24.2678 16.6743 28.2913 16.6743 33.2496C16.6743 38.208 19.9849 42.2315 24.0672 42.2315C27.8291 42.2315 30.9261 38.8175 31.3946 34.4002L26.5441 32.7086V32.712Z" fill="black"/>
<path d="M47.481 46.3212C53.6073 46.3212 58.5737 40.2885 58.5737 32.8468C58.5737 25.405 53.6073 19.3723 47.481 19.3723C41.3546 19.3723 36.3882 25.405 36.3882 32.8468C36.3882 40.2885 41.3546 46.3212 47.481 46.3212Z" fill="white" stroke="black" stroke-width="1.9" stroke-miterlimit="10"/>
<path d="M47.0822 32.712L51.6709 30.6027C50.7408 26.9353 47.9297 24.2678 44.6053 24.2678C40.523 24.2678 37.2124 28.2913 37.2124 33.2496C37.2124 38.208 40.523 42.2315 44.6053 42.2315C48.3672 42.2315 51.4642 38.8175 51.9327 34.4002L47.0822 32.7086V32.712Z" fill="black"/>
<path d="M40.5121 31.4122C41.2068 31.4122 41.7699 30.8491 41.7699 30.1545C41.7699 29.4598 41.2068 28.8967 40.5121 28.8967C39.8175 28.8967 39.2544 29.4598 39.2544 30.1545C39.2544 30.8491 39.8175 31.4122 40.5121 31.4122Z" fill="white"/>
<path d="M19.5248 31.3072C20.2195 31.3072 20.7826 30.7441 20.7826 30.0495C20.7826 29.3549 20.2195 28.7917 19.5248 28.7917C18.8302 28.7917 18.2671 29.3549 18.2671 30.0495C18.2671 30.7441 18.8302 31.3072 19.5248 31.3072Z" fill="white"/>
<rect x="69" y="14" width="12" height="67" rx="6" fill="#CFFF5E" stroke="black" stroke-width="1.86346"/>
</svg>
