<svg viewBox="0 0 84 84" fill="none" xmlns="http://www.w3.org/2000/svg">
<path d="M45.0188 17.2633L46.7188 23.4428" stroke="#313131" stroke-width="1.01166" stroke-miterlimit="10"/>
<path d="M45.3396 17.3389C48.0757 17.3389 50.2936 15.1209 50.2936 12.3849C50.2936 9.6489 48.0757 7.43091 45.3396 7.43091C42.6036 7.43091 40.3856 9.6489 40.3856 12.3849C40.3856 15.1209 42.6036 17.3389 45.3396 17.3389Z" fill="white"/>
<mask id="mask0_4741_54025" style="mask-type:luminance" maskUnits="userSpaceOnUse" x="40" y="7" width="11" height="11">
<path d="M45.3399 17.3389C48.0759 17.3389 50.2939 15.1209 50.2939 12.3849C50.2939 9.6489 48.0759 7.43091 45.3399 7.43091C42.6039 7.43091 40.3859 9.6489 40.3859 12.3849C40.3859 15.1209 42.6039 17.3389 45.3399 17.3389Z" fill="white"/>
</mask>
<g mask="url(#mask0_4741_54025)">
<path d="M41.6558 8.94067C44.4222 11.3838 44.9723 13.9807 43.228 16.7133L41.6558 8.94067Z" fill="white"/>
<path d="M41.6558 8.94067C44.4222 11.3838 44.9723 13.9807 43.228 16.7133" stroke="#E35868" stroke-width="1.01166" stroke-miterlimit="10"/>
<path d="M47.9604 8.27051C48.1117 10.4425 48.7244 12.4449 49.796 14.2753L47.9604 8.27051Z" fill="white"/>
<path d="M47.9604 8.27051C48.1117 10.4425 48.7244 12.4449 49.796 14.2753" stroke="#E35868" stroke-width="1.01166" stroke-miterlimit="10"/>
</g>
<path d="M45.3396 17.3389C48.0757 17.3389 50.2936 15.1209 50.2936 12.3849C50.2936 9.6489 48.0757 7.43091 45.3396 7.43091C42.6036 7.43091 40.3856 9.6489 40.3856 12.3849C40.3856 15.1209 42.6036 17.3389 45.3396 17.3389Z" stroke="#313131" stroke-width="1.01166" stroke-miterlimit="10"/>
<path d="M43.1991 76.5212C58.8564 76.5212 71.5491 63.8284 71.5491 48.1712C71.5491 32.5139 58.8564 19.8212 43.1991 19.8212C27.5418 19.8212 14.8491 32.5139 14.8491 48.1712C14.8491 63.8284 27.5418 76.5212 43.1991 76.5212Z" fill="#ACADAE"/>
<mask id="mask1_4741_54025" style="mask-type:luminance" maskUnits="userSpaceOnUse" x="14" y="19" width="58" height="58">
<path d="M43.1991 76.5212C58.8564 76.5212 71.5491 63.8284 71.5491 48.1712C71.5491 32.5139 58.8564 19.8212 43.1991 19.8212C27.5418 19.8212 14.8491 32.5139 14.8491 48.1712C14.8491 63.8284 27.5418 76.5212 43.1991 76.5212Z" fill="white"/>
</mask>
<g mask="url(#mask1_4741_54025)">
<path d="M64.8635 29.8701C60.8429 41.9344 60.8429 53.9962 64.8635 66.0605" stroke="white" stroke-width="1.01166" stroke-miterlimit="10"/>
<path d="M30.4825 22.632C41.4961 40.0649 40.534 56.9372 30.4825 73.2985" stroke="white" stroke-width="1.01166" stroke-miterlimit="10"/>
<path d="M13.1565 34.2974C18.9031 65.0305 36.589 77.1887 64.1437 74.4483L71.8511 80.268L39.8351 83.7593L18.4912 79.1051L2.4845 51.1749L13.1565 34.3V34.2974Z" fill="#313131"/>
</g>
<path d="M43.1991 76.5212C58.8564 76.5212 71.5491 63.8284 71.5491 48.1712C71.5491 32.5139 58.8564 19.8212 43.1991 19.8212C27.5418 19.8212 14.8491 32.5139 14.8491 48.1712C14.8491 63.8284 27.5418 76.5212 43.1991 76.5212Z" stroke="#313131" stroke-width="1.01166" stroke-miterlimit="10"/>
<path d="M51.0392 20.5799C40.5967 19.7742 31.3301 22.0139 23.4714 27.9144C23.4714 27.9144 24.2302 17.292 34.5997 15.0157C45.3238 12.6613 51.0392 20.5799 51.0392 20.5799Z" fill="#656667" stroke="#313131" stroke-width="1.01166" stroke-miterlimit="10"/>
<path d="M23.4714 27.9145C23.4714 27.9145 42.5235 11.3785 52.0509 12.7395C58.246 13.6261 51.0392 20.5799 51.0392 20.5799C40.6462 19.5109 31.5022 22.0818 23.4714 27.9145Z" fill="#1E3458" stroke="#313131" stroke-width="1.01166" stroke-linecap="round" stroke-linejoin="round"/>
<path d="M61.9458 47.4881C66.443 47.4881 70.0887 43.0323 70.0887 37.5357C70.0887 32.0392 66.443 27.5834 61.9458 27.5834C57.4487 27.5834 53.803 32.0392 53.803 37.5357C53.803 43.0323 57.4487 47.4881 61.9458 47.4881Z" fill="white" stroke="#313131" stroke-width="1.01166" stroke-miterlimit="10"/>
<path d="M62.2378 35.1629L58.869 33.6063C59.5522 30.8972 61.6172 28.926 64.0577 28.926C67.0562 28.926 69.4863 31.8958 69.4863 35.5618C69.4863 39.2252 67.0562 42.1976 64.0577 42.1976C61.2965 42.1976 59.0203 39.6762 58.6787 36.4144L62.2404 35.1629H62.2378Z" fill="#313131"/>
<path d="M47.6234 47.4881C52.1206 47.4881 55.7663 43.0323 55.7663 37.5357C55.7663 32.0392 52.1206 27.5834 47.6234 27.5834C43.1263 27.5834 39.4806 32.0392 39.4806 37.5357C39.4806 43.0323 43.1263 47.4881 47.6234 47.4881Z" fill="white" stroke="#313131" stroke-width="1.01166" stroke-miterlimit="10"/>
<path d="M47.9182 35.1629L44.5495 33.6063C45.2326 30.8972 47.2976 28.926 49.7381 28.926C52.7366 28.926 55.1667 31.8958 55.1667 35.5618C55.1667 39.2278 52.7366 42.1976 49.7381 42.1976C46.9769 42.1976 44.7007 39.6762 44.3591 36.4144L47.9208 35.1629H47.9182Z" fill="#313131"/>
<path d="M52.575 32.931C53.1337 32.931 53.5867 32.4781 53.5867 31.9194C53.5867 31.3607 53.1337 30.9077 52.575 30.9077C52.0163 30.9077 51.5634 31.3607 51.5634 31.9194C51.5634 32.4781 52.0163 32.931 52.575 32.931Z" fill="white"/>
<path d="M66.9156 32.6703C67.4743 32.6703 67.9273 32.2174 67.9273 31.6586C67.9273 31.0999 67.4743 30.647 66.9156 30.647C66.3569 30.647 65.9039 31.0999 65.9039 31.6586C65.9039 32.2174 66.3569 32.6703 66.9156 32.6703Z" fill="white"/>
<path d="M40.8817 25.138L47.7125 24.598C48.5839 24.5291 49.2345 23.7675 49.1657 22.8968C49.0968 22.0262 48.3346 21.3762 47.4633 21.4451L40.6324 21.9851C39.761 22.054 39.1105 22.8156 39.1793 23.6863C39.2481 24.5569 40.0103 25.2069 40.8817 25.138Z" fill="#656667" stroke="#313131" stroke-width="1.01166" stroke-miterlimit="10"/>
<path d="M55.7663 24.4725L62.5988 24.9923C63.4703 25.0586 64.2306 24.4063 64.2968 23.5355C64.3631 22.6646 63.7102 21.9049 62.8387 21.8386L56.0062 21.3189C55.1346 21.2526 54.3744 21.9048 54.3081 22.7757C54.2419 23.6465 54.8947 24.4062 55.7663 24.4725Z" fill="#656667" stroke="#313131" stroke-width="1.01166" stroke-miterlimit="10"/>
<path d="M19.7246 22.7153L23.4714 27.9144" stroke="#313131" stroke-width="1.01166" stroke-miterlimit="10"/>
<path d="M17.1172 24.019C19.8532 24.019 22.0712 21.801 22.0712 19.065C22.0712 16.3289 19.8532 14.111 17.1172 14.111C14.3812 14.111 12.1632 16.3289 12.1632 19.065C12.1632 21.801 14.3812 24.019 17.1172 24.019Z" fill="white"/>
<mask id="mask2_4741_54025" style="mask-type:luminance" maskUnits="userSpaceOnUse" x="12" y="14" width="11" height="11">
<path d="M17.1172 24.019C19.8532 24.019 22.0712 21.801 22.0712 19.065C22.0712 16.3289 19.8532 14.111 17.1172 14.111C14.3812 14.111 12.1632 16.3289 12.1632 19.065C12.1632 21.801 14.3812 24.019 17.1172 24.019Z" fill="white"/>
</mask>
<g mask="url(#mask2_4741_54025)">
<path d="M12.4631 17.1251C15.1592 18.7287 16.4003 21.0388 16.4029 23.9512L12.4631 17.1251Z" fill="white"/>
<path d="M12.4631 17.1251C15.1592 18.7287 16.4003 21.0388 16.4029 23.9512" stroke="#E35868" stroke-width="1.01166" stroke-miterlimit="10"/>
<path d="M17.8944 14.3875C18.794 16.3717 20.0637 18.0326 21.709 19.3754L17.8944 14.3875Z" fill="white"/>
<path d="M17.8944 14.3875C18.794 16.3717 20.0637 18.0326 21.709 19.3754" stroke="#E35868" stroke-width="1.01166" stroke-miterlimit="10"/>
</g>
<path d="M17.1172 24.019C19.8532 24.019 22.0712 21.801 22.0712 19.065C22.0712 16.3289 19.8532 14.111 17.1172 14.111C14.3812 14.111 12.1632 16.3289 12.1632 19.065C12.1632 21.801 14.3812 24.019 17.1172 24.019Z" stroke="#313131" stroke-width="1.01166" stroke-miterlimit="10"/>
<path d="M35.6298 54.5254C39.0858 54.5254 41.8875 51.7237 41.8875 48.2677C41.8875 44.8117 39.0858 42.01 35.6298 42.01C32.1737 42.01 29.3721 44.8117 29.3721 48.2677C29.3721 51.7237 32.1737 54.5254 35.6298 54.5254Z" fill="white"/>
<mask id="mask3_4741_54025" style="mask-type:luminance" maskUnits="userSpaceOnUse" x="29" y="42" width="13" height="13">
<path d="M35.63 54.5254C39.086 54.5254 41.8877 51.7237 41.8877 48.2677C41.8877 44.8117 39.086 42.01 35.63 42.01C32.174 42.01 29.3723 44.8117 29.3723 48.2677C29.3723 51.7237 32.174 54.5254 35.63 54.5254Z" fill="white"/>
</mask>
<g mask="url(#mask3_4741_54025)">
<path d="M41.5018 45.0918C38.3625 47.5088 37.1579 50.596 37.596 54.2489" stroke="#E35868" stroke-width="1.01166" stroke-miterlimit="10"/>
<path d="M34.2947 41.6162C34.2765 45.5794 32.5556 48.4084 29.3824 50.2753" stroke="#E35868" stroke-width="1.01166" stroke-miterlimit="10"/>
</g>
<path d="M35.6298 54.5254C39.0858 54.5254 41.8875 51.7237 41.8875 48.2677C41.8875 44.8117 39.0858 42.01 35.6298 42.01C32.1737 42.01 29.3721 44.8117 29.3721 48.2677C29.3721 51.7237 32.1737 54.5254 35.6298 54.5254Z" stroke="#313131" stroke-width="1.01166" stroke-miterlimit="10"/>
<path d="M37.5434 53.9204C35.5149 51.1592 32.9336 49.7982 29.5544 50.463" stroke="#313131" stroke-width="1.01166" stroke-miterlimit="10"/>
<path d="M35.7833 51.8918L33.1473 53.6987L32.6232 50.5803" stroke="#313131" stroke-width="1.01166" stroke-linejoin="round"/>
<path d="M33.8722 54.361L32.3912 57.5603L30.4722 56.6738L31.9532 53.4719" fill="#313131"/>
<path d="M33.8722 54.361L32.3912 57.5603L30.4722 56.6738L31.9532 53.4719" stroke="#313131" stroke-width="1.01166" stroke-linejoin="round"/>
<path d="M27.7449 53.9987C30.1567 54.7287 33.5646 55.464 36.0937 56.1784C37.6112 56.6086 41.2876 58.1235 37.6138 59.3386C38.2448 59.7088 38.1457 60.066 38.5942 60.4884C38.2344 60.7126 38.164 60.8561 37.8068 61.0334C40.2212 65.0435 28.4046 63.2861 26.3578 62.4283" fill="#ACADAE"/>
<path d="M27.7449 53.9987C30.1567 54.7287 33.5646 55.464 36.0937 56.1784C37.6112 56.6086 41.2876 58.1235 37.6138 59.3386C38.2448 59.7088 38.1457 60.066 38.5942 60.4884C38.2344 60.7126 38.164 60.8561 37.8068 61.0334C40.2212 65.0435 28.4046 63.2861 26.3578 62.4283" stroke="#313131" stroke-width="1.04295" stroke-linecap="round" stroke-linejoin="round"/>
</svg>
