<svg width="24" height="24" viewBox="0 0 24 24" fill="none" xmlns="http://www.w3.org/2000/svg">
<path d="M19 9.79102C19 9.66943 18.9738 9.5586 18.916 9.44727L18.9141 9.44434C18.8567 9.3328 18.7824 9.24769 18.6836 9.17773L18.6777 9.17383L18.6709 9.16895L12.5166 4.66406V4.66309C12.3657 4.55395 12.2024 4.5 11.9961 4.5C11.7889 4.50008 11.6306 4.55464 11.4863 4.66113L11.4834 4.66406L5.3291 9.16992L5.31738 9.17773C5.21798 9.24838 5.14249 9.33454 5.08398 9.44727C5.02624 9.5586 5 9.66943 5 9.79102V19.4082C5.00206 19.4121 5.0119 19.4268 5.03711 19.4512C5.06851 19.4814 5.08749 19.4906 5.09375 19.4932C5.09916 19.4954 5.11244 19.5 5.14258 19.5H8.93359V14.3379C8.93359 13.8226 9.12612 13.3487 9.50293 12.9844C9.87846 12.6197 10.3534 12.4443 10.8574 12.4443H13.1426C13.5834 12.4443 14.0014 12.5788 14.3506 12.8555L14.4961 12.9834L14.6289 13.125C14.9188 13.4674 15.0664 13.8869 15.0664 14.3379V19.5H18.8574C18.8876 19.5 18.9008 19.4954 18.9062 19.4932C18.9125 19.4906 18.9315 19.4814 18.9629 19.4512C18.9873 19.4276 18.9966 19.4126 18.999 19.4082C18.9992 19.4069 19 19.4029 19 19.3955V9.79102ZM21 19.3955C20.9999 19.9829 20.7609 20.4948 20.3535 20.8887C19.9465 21.2822 19.4328 21.4999 18.8574 21.5H14.9893C14.487 21.4999 14.0129 21.3264 13.6367 20.9629L13.6348 20.9609C13.2587 20.5957 13.0665 20.1225 13.0664 19.6074V14.4443H10.9336V19.6084C10.9336 20.1237 10.7409 20.5978 10.3633 20.9629C9.98762 21.3259 9.51417 21.4999 9.01172 21.5H5.14258C4.56722 21.4999 4.05354 21.2822 3.64648 20.8887C3.23911 20.4948 3.00013 19.9829 3 19.3955V9.79102C3 9.34703 3.10441 8.92121 3.30859 8.52734C3.51004 8.13895 3.79206 7.81089 4.14746 7.55566L10.3018 3.0498V3.05078C10.8012 2.68296 11.3774 2.50009 11.9961 2.5C12.5384 2.5 13.0486 2.64015 13.5039 2.91992L13.6963 3.04883L13.6982 3.0498L19.8525 7.55469H19.8516C20.2079 7.80988 20.4896 8.13787 20.6904 8.52734H20.6914C20.8956 8.92121 21 9.34703 21 9.79102V19.3955Z" fill="#868789"/>
</svg>
