<svg xmlns="http://www.w3.org/2000/svg" width="35" height="35" viewBox="0 0 35 35" fill="none">
<path d="M14.3763 17.7892L24.7553 28.1682C25.1083 28.5212 25.2792 28.9331 25.2679 29.4038C25.2566 29.8745 25.074 30.2864 24.72 30.6394C24.3661 30.9924 23.9542 31.1689 23.4844 31.1689C23.0147 31.1689 22.6028 30.9924 22.2488 30.6394L11.3756 19.8014C11.0932 19.519 10.8813 19.2013 10.7401 18.8483C10.5989 18.4952 10.5283 18.1422 10.5283 17.7892C10.5283 17.4362 10.5989 17.0831 10.7401 16.7301C10.8813 16.3771 11.0932 16.0593 11.3756 15.7769L22.2488 4.90368C22.6019 4.55066 23.0198 4.37979 23.5028 4.39109C23.9857 4.40239 24.4032 4.58502 24.7553 4.93899C25.1074 5.29296 25.2839 5.70482 25.2849 6.17458C25.2858 6.64435 25.1093 7.05621 24.7553 7.41018L14.3763 17.7892Z" fill="currentColor"/>
</svg>