<svg width="24" height="24" viewBox="0 0 24 24" fill="none" xmlns="http://www.w3.org/2000/svg">
<path d="M6.55502 12L13.905 19.35C14.155 19.6 14.276 19.8917 14.268 20.225C14.26 20.5583 14.1307 20.85 13.88 21.1C13.6294 21.35 13.3377 21.475 13.005 21.475C12.6724 21.475 12.3807 21.35 12.13 21.1L4.43002 13.425C4.23002 13.225 4.08002 13 3.98002 12.75C3.88002 12.5 3.83002 12.25 3.83002 12C3.83002 11.75 3.88002 11.5 3.98002 11.25C4.08002 11 4.23002 10.775 4.43002 10.575L12.13 2.875C12.38 2.625 12.676 2.504 13.018 2.512C13.36 2.52 13.6557 2.64933 13.905 2.9C14.1544 3.15067 14.2794 3.44233 14.28 3.775C14.2807 4.10767 14.1557 4.39933 13.905 4.65L6.55502 12Z" fill="currentColor"/>
</svg>
