<svg xmlns="http://www.w3.org/2000/svg" width="31" height="31" viewBox="0 0 31 31" fill="currentColor">
<path d="M15.0625 2.84888C18.4966 2.84888 21.7904 4.21269 24.2188 6.64087C26.6471 9.0692 28.0126 12.363 28.0127 15.7971C28.0127 17.4974 27.6769 19.1813 27.0264 20.7522C26.3756 22.3232 25.4212 23.7509 24.2188 24.9534C23.0163 26.1558 21.5886 27.1102 20.0176 27.761C18.4467 28.4116 16.7628 28.7473 15.0625 28.7473C13.3621 28.7473 11.6784 28.4117 10.1074 27.761C8.53638 27.1102 7.10867 26.1558 5.90625 24.9534C4.704 23.751 3.75029 22.3231 3.09961 20.7522C2.44901 19.1813 2.11426 17.4974 2.11426 15.7971C2.11436 12.363 3.47792 9.0692 5.90625 6.64087C8.33458 4.21254 11.6283 2.84898 15.0625 2.84888ZM15.0625 5.02271C12.2051 5.02281 9.46581 6.15943 7.44531 8.17993C6.36409 9.26115 5.53722 10.5485 5.00098 11.9495L5.13184 11.9778C11.7956 13.5775 15.3856 19.8602 13.3662 26.4348C13.926 26.5241 14.4929 26.5715 15.0625 26.5715C16.4773 26.5715 17.8794 26.2936 19.1865 25.7522C20.4935 25.2107 21.6813 24.4166 22.6816 23.4163C23.682 22.4159 24.4761 21.2281 25.0176 19.9211C25.0555 19.8296 25.0887 19.7363 25.124 19.6438L24.9922 19.6165C18.3291 18.0162 14.7392 11.7329 16.7588 5.15845C16.2012 5.06947 15.6343 5.02271 15.0625 5.02271ZM4.43262 14.05C4.33817 14.624 4.28811 15.2079 4.28809 15.7971C4.28809 17.2119 4.56604 18.614 5.10742 19.9211C5.64888 21.2283 6.44488 22.4158 7.44531 23.4163C8.44568 24.4165 9.63348 25.2108 10.9404 25.7522C11.0459 25.7959 11.1531 25.835 11.2598 25.8752C12.9646 20.4661 10.0926 15.3988 4.61133 14.0891L4.43262 14.05ZM18.8643 5.71899C17.1604 11.1277 20.0328 16.1956 25.5137 17.5051L25.6914 17.5432C25.786 16.9671 25.8369 16.3835 25.8369 15.7971C25.8368 12.94 24.7018 10.2004 22.6816 8.17993C21.5885 7.08675 20.2836 6.25463 18.8643 5.71899Z" fill="#868789"/>
</svg>