<svg xmlns="http://www.w3.org/2000/svg" width="24" height="24" viewBox="0 0 24 24" fill="none">
<path d="M20.1818 12C20.1818 9.83005 19.3203 7.74853 17.7859 6.21414C16.2515 4.67975 14.17 3.81819 12 3.81819C9.83005 3.81819 7.74853 4.67975 6.21414 6.21414C4.67975 7.74853 3.81819 9.83005 3.81819 12C3.81819 13.0745 4.03024 14.1384 4.44141 15.131C4.85259 16.1237 5.45442 17.0262 6.21414 17.7859C6.97386 18.5456 7.87636 19.1474 8.86897 19.5586C9.86163 19.9698 10.9256 20.1818 12 20.1818C13.0745 20.1818 14.1384 19.9698 15.131 19.5586C16.1237 19.1474 17.0262 18.5456 17.7859 17.7859C18.5456 17.0262 19.1474 16.1237 19.5586 15.131C19.9698 14.1384 20.1818 13.0745 20.1818 12ZM21.8182 12C21.8182 13.2893 21.5637 14.5663 21.0703 15.7575C20.5769 16.9485 19.8544 18.0312 18.9428 18.9428C18.0312 19.8544 16.9485 20.5769 15.7575 21.0703C14.5663 21.5637 13.2893 21.8182 12 21.8182C10.7107 21.8182 9.43375 21.5637 8.24255 21.0703C7.05149 20.5769 5.96879 19.8544 5.05718 18.9428C4.14557 18.0312 3.4231 16.9485 2.92969 15.7575C2.43628 14.5663 2.18182 13.2893 2.18182 12C2.18182 9.39606 3.21591 6.89845 5.05718 5.05718C6.89845 3.21591 9.39606 2.18182 12 2.18182C14.6039 2.18182 17.1016 3.21591 18.9428 5.05718C20.7841 6.89845 21.8182 9.39606 21.8182 12Z" fill="currentColor"/>
<path d="M2.99967 9.65377C3.08278 9.20972 3.51017 8.91672 3.95421 8.99965C9.46935 10.032 12.439 15.1757 10.5753 20.468C10.4251 20.894 9.9584 21.1177 9.53234 20.9677C9.10623 20.8176 8.88282 20.3508 9.03269 19.9247C10.5152 15.7147 8.32723 11.7132 4.0714 10.6967L3.65379 10.6083L3.57175 10.5891C3.1741 10.472 2.92193 10.07 2.99967 9.65377ZM13.424 3.53232C13.5741 3.1061 14.0418 2.88258 14.4681 3.03267C14.894 3.18291 15.1177 3.64958 14.9677 4.07564C13.4852 8.2854 15.6726 12.2858 19.9279 13.3026L20.3466 13.392L20.4276 13.4112C20.8256 13.5282 21.0787 13.9301 21.0007 14.3466C20.9228 14.7631 20.5416 15.0462 20.1282 15.0114L20.0451 15.0007L19.5359 14.891C14.3495 13.6457 11.6187 8.65912 13.424 3.53232Z" fill="#868789"/>
</svg>