<svg width="16" height="16" viewBox="0 0 16 16" fill="none" xmlns="http://www.w3.org/2000/svg">
<path d="M11.0205 1.04981C11.1859 1.05079 11.338 1.10847 11.457 1.22755C11.5761 1.34669 11.6341 1.49874 11.6357 1.66407V2.68555H12.6826C13.0821 2.68565 13.4292 2.82278 13.7051 3.09864C13.9465 3.34008 14.0817 3.63587 14.1113 3.97364L14.1172 4.1211V13.4854C14.1171 13.8845 13.9802 14.231 13.7051 14.5068C13.4294 14.7831 13.082 14.9194 12.6816 14.919H3.31934C2.91951 14.919 2.57252 14.7824 2.29688 14.5068C2.05581 14.2658 1.92096 13.9707 1.89062 13.6328L1.88379 13.4854V4.12012C1.88386 3.72058 2.02081 3.37412 2.29688 3.09864C2.57271 2.82356 2.91918 2.68616 3.31836 2.68555H4.36621V1.69532C4.36626 1.52081 4.42628 1.36083 4.55176 1.23536C4.67701 1.1103 4.83648 1.04981 5.01074 1.04981C5.18485 1.04993 5.34432 1.10991 5.46973 1.23438C5.59592 1.35981 5.65676 1.52035 5.65625 1.69532V2.68555H10.4023V1.667C10.4024 1.50053 10.461 1.34842 10.5801 1.22852C10.6999 1.10811 10.8532 1.04903 11.0205 1.04981ZM3.07715 14.6484C3.11523 14.6554 3.15455 14.6606 3.19434 14.6641C3.15442 14.6606 3.11536 14.6554 3.07715 14.6484ZM2.97168 14.624C3.00201 14.6325 3.03294 14.6395 3.06445 14.6455C3.03294 14.6395 3.00202 14.6324 2.97168 14.624ZM2.87793 14.5928C2.89496 14.5992 2.91226 14.6048 2.92969 14.6104C2.91225 14.6048 2.89497 14.5992 2.87793 14.5928ZM2.77051 14.5459C2.78951 14.5555 2.80857 14.5648 2.82812 14.5732C2.80856 14.5648 2.78952 14.5554 2.77051 14.5459ZM2.68262 14.4961C2.69976 14.5068 2.71674 14.5176 2.73438 14.5274C2.71672 14.5177 2.69978 14.5068 2.68262 14.4961ZM2.59277 14.4336C2.6074 14.4449 2.62169 14.4564 2.63672 14.4668C2.62167 14.4564 2.60742 14.4448 2.59277 14.4336ZM2.52637 14.3789C2.53588 14.3874 2.54499 14.3962 2.55469 14.4043C2.54499 14.3962 2.53588 14.3874 2.52637 14.3789ZM13.6299 14.2109C13.6439 14.1928 13.6582 14.1751 13.6709 14.1563C13.6582 14.1751 13.6439 14.1927 13.6299 14.2109ZM13.6846 14.1338C13.6985 14.1122 13.7123 14.0907 13.7246 14.0684C13.7123 14.0908 13.6985 14.1122 13.6846 14.1338ZM13.7451 14.0274C13.7546 14.0083 13.7641 13.9893 13.7725 13.9697C13.7641 13.9894 13.7546 14.0083 13.7451 14.0274ZM3.11719 13.4854C3.11729 13.5197 3.12935 13.5627 3.18555 13.6191C3.24107 13.6748 3.28332 13.6857 3.31738 13.6856L3.31836 13.9356L3.23535 13.9277C3.23277 13.9272 3.23011 13.9254 3.22754 13.9248C3.25686 13.9317 3.28665 13.9366 3.31738 13.9365H12.6826V13.9356H3.31934V13.6856H12.6826C12.7169 13.6855 12.76 13.6741 12.8164 13.6182C12.8719 13.5629 12.8839 13.5202 12.8838 13.4854V7.3047H3.11719V13.4854ZM13.79 13.9277C13.7987 13.9047 13.8063 13.8812 13.8135 13.8574C13.8063 13.8812 13.7987 13.9047 13.79 13.9277ZM13.8457 13.7207C13.8522 13.684 13.859 13.6466 13.8623 13.6084L13.8672 13.4854V4.1211H13.8662V13.4854C13.8662 13.5671 13.859 13.6455 13.8457 13.7207ZM2.86621 13.4854C2.86622 13.5053 2.87009 13.5246 2.87305 13.544L2.86719 13.4854V7.0547H2.86621V13.4854ZM5.06641 8.07325C5.28826 8.07267 5.4839 8.15803 5.64062 8.31544C5.79658 8.47225 5.88178 8.66686 5.88184 8.8877C5.88181 9.10868 5.79601 9.30346 5.63965 9.45997C5.4831 9.61639 5.28838 9.701 5.06738 9.70118C4.84605 9.70118 4.65087 9.61662 4.49414 9.45997C4.33738 9.30321 4.25293 9.10814 4.25293 8.88673C4.25302 8.66542 4.3381 8.47079 4.49512 8.31446C4.65169 8.1588 4.84589 8.07396 5.06641 8.07325ZM8 8.07325C8.22171 8.07274 8.41659 8.15814 8.57324 8.31544C8.72937 8.4723 8.81538 8.66673 8.81543 8.8877C8.81541 9.10868 8.72961 9.30346 8.57324 9.45997C8.41661 9.61653 8.22116 9.70107 8 9.70118C7.77892 9.70106 7.58433 9.61643 7.42773 9.45997C7.27098 9.30321 7.18555 9.10814 7.18555 8.88673C7.18564 8.6655 7.27083 8.47076 7.42773 8.31446C7.58434 8.15868 7.7794 8.07396 8 8.07325ZM10.9326 8.07325C11.1545 8.07264 11.3501 8.15801 11.5068 8.31544C11.6629 8.47229 11.748 8.66675 11.748 8.8877C11.748 9.10868 11.6632 9.30346 11.5068 9.45997C11.3502 9.61661 11.1548 9.70107 10.9336 9.70118C10.7125 9.70113 10.518 9.61641 10.3613 9.45997C10.2046 9.30321 10.1191 9.10814 10.1191 8.88673C10.1192 8.66544 10.2043 8.47078 10.3613 8.31446C10.5178 8.15877 10.7122 8.07405 10.9326 8.07325ZM5.09961 9.44825C5.12021 9.44711 5.14031 9.44568 5.16016 9.44239C5.1403 9.44569 5.12022 9.44711 5.09961 9.44825ZM8.03613 9.44825C8.05538 9.44707 8.07417 9.44545 8.09277 9.44239C8.07417 9.44546 8.0554 9.44707 8.03613 9.44825ZM10.9688 9.44825C10.9883 9.44709 11.0075 9.44549 11.0264 9.44239C11.0074 9.44552 10.9883 9.44708 10.9688 9.44825ZM4.8584 9.41016C4.89022 9.42342 4.92298 9.43466 4.95703 9.44141C4.92286 9.43466 4.8903 9.42344 4.8584 9.41016ZM11.0645 9.43458C11.0869 9.4292 11.1085 9.42233 11.1299 9.41407C11.1085 9.42238 11.0868 9.42916 11.0645 9.43458ZM5.19922 9.4336C5.22089 9.4283 5.24196 9.42209 5.2627 9.41407C5.24196 9.4221 5.2209 9.42828 5.19922 9.4336ZM8.13379 9.4336C8.15514 9.42834 8.17585 9.42196 8.19629 9.41407C8.17585 9.422 8.15514 9.42831 8.13379 9.4336ZM4.76562 9.36036C4.79171 9.37785 4.81884 9.39187 4.84668 9.4043C4.81885 9.39189 4.79169 9.37783 4.76562 9.36036ZM5.28613 9.4043C5.31639 9.39085 5.3468 9.37591 5.375 9.35645C5.34668 9.37603 5.31655 9.39077 5.28613 9.4043ZM8.39648 9.28321C8.3425 9.3372 8.28273 9.37624 8.21973 9.4043C8.25002 9.39086 8.28043 9.3759 8.30859 9.35645L8.39648 9.28321C8.42117 9.25849 8.44168 9.23171 8.46094 9.20509C8.44167 9.23167 8.42119 9.25849 8.39648 9.28321ZM11.3291 9.28321C11.2752 9.33704 11.2162 9.37628 11.1533 9.4043C11.1836 9.39086 11.214 9.37592 11.2422 9.35645L11.3301 9.28321C11.355 9.25829 11.3752 9.23096 11.3945 9.20411C11.3751 9.23102 11.3541 9.25821 11.3291 9.28321ZM4.60449 9.20411C4.62404 9.23127 4.64573 9.25804 4.6709 9.28321C4.69769 9.30998 4.72585 9.33311 4.75488 9.35352C4.72588 9.33313 4.69769 9.30998 4.6709 9.28321C4.64575 9.25806 4.62402 9.23122 4.60449 9.20411ZM5.46289 9.28321L5.51953 9.21778C5.52255 9.21382 5.52445 9.20909 5.52734 9.20509C5.50806 9.23167 5.48761 9.25849 5.46289 9.28321ZM10.4717 9.20509C10.4859 9.22478 10.5024 9.24309 10.5195 9.26173C10.5023 9.24309 10.4859 9.22475 10.4717 9.20509ZM4.55078 9.11231C4.56139 9.13546 4.57377 9.15777 4.58789 9.1797C4.57377 9.15779 4.56138 9.13544 4.55078 9.11231ZM5.54395 9.1797C5.55812 9.15774 5.57041 9.13548 5.58105 9.11231C5.57039 9.13548 5.55816 9.15775 5.54395 9.1797ZM8.47754 9.1797C8.49172 9.15774 8.504 9.13548 8.51465 9.11231C8.50399 9.13547 8.49174 9.15776 8.47754 9.1797ZM10.418 9.11231C10.4286 9.13546 10.441 9.15777 10.4551 9.1797C10.4409 9.15778 10.4286 9.13546 10.418 9.11231ZM11.4111 9.1797C11.4253 9.15774 11.4376 9.13548 11.4482 9.11231C11.4376 9.13546 11.4253 9.15776 11.4111 9.1797ZM7.44531 8.78516C7.43932 8.81805 7.43557 8.85177 7.43555 8.88673C7.43557 8.85176 7.43931 8.81802 7.44531 8.78516ZM4.53418 9.0752C4.53614 9.08054 4.53888 9.08556 4.54102 9.09083C4.52876 9.06054 4.5191 9.0294 4.5127 8.99708L4.53418 9.0752ZM8.56445 8.8877C8.56445 8.96002 8.55018 9.02736 8.52441 9.09083C8.53675 9.06041 8.54826 9.02948 8.55469 8.99708C8.56165 8.96188 8.56543 8.92529 8.56543 8.8877C8.56542 8.85271 8.55977 8.81912 8.55371 8.78614C8.55975 8.81909 8.56445 8.85271 8.56445 8.8877ZM11.498 8.8877C11.498 8.95999 11.4838 9.02739 11.458 9.09083C11.4703 9.06041 11.4819 9.02949 11.4883 8.99708C11.4952 8.96189 11.498 8.92528 11.498 8.8877C11.498 8.85308 11.4932 8.81973 11.4873 8.78712C11.4932 8.81975 11.498 8.85306 11.498 8.8877ZM5.5918 9.08985C5.6039 9.0598 5.61475 9.02906 5.62109 8.99708C5.61474 9.02919 5.60395 9.05973 5.5918 9.08985ZM10.3867 9.02149C10.3925 9.04469 10.3983 9.06771 10.4072 9.08985C10.3983 9.06771 10.3925 9.04471 10.3867 9.02149ZM10.377 8.792C10.3718 8.8227 10.3692 8.85422 10.3691 8.88673C10.3692 8.85421 10.3718 8.82269 10.377 8.792ZM8.5498 8.76563C8.54376 8.73877 8.53554 8.71298 8.52539 8.68751C8.53554 8.71297 8.54377 8.73878 8.5498 8.76563ZM7.47363 8.68653C7.46354 8.71194 7.45521 8.7378 7.44922 8.76466C7.45523 8.73782 7.46352 8.71192 7.47363 8.68653ZM11.4814 8.75977C11.4765 8.73878 11.4704 8.71838 11.4629 8.69825C11.4704 8.71839 11.4765 8.73877 11.4814 8.75977ZM10.4062 8.68848C10.3976 8.71047 10.3903 8.7328 10.3848 8.75587C10.3904 8.73281 10.3976 8.71046 10.4062 8.68848ZM8.39648 8.4922C8.45028 8.54632 8.49056 8.60511 8.51855 8.66798C8.50515 8.63787 8.49 8.60816 8.4707 8.58009L8.39648 8.49122C8.36906 8.46369 8.33935 8.4407 8.30957 8.41993C8.33938 8.44075 8.36901 8.4646 8.39648 8.4922ZM7.60449 8.49122C7.57647 8.51912 7.55131 8.54874 7.53027 8.57911C7.5108 8.60726 7.49393 8.6367 7.48047 8.667C7.50854 8.60397 7.5504 8.54606 7.60449 8.4922V8.49122ZM10.4141 8.667C10.4276 8.63662 10.4443 8.60736 10.4639 8.57911C10.4444 8.60727 10.4275 8.63671 10.4141 8.667ZM11.3291 8.4922C11.3813 8.54462 11.4203 8.60148 11.4482 8.66212C11.4354 8.63416 11.4214 8.60631 11.4033 8.58009L11.3301 8.49122C11.3025 8.46355 11.2731 8.4398 11.2432 8.41895C11.2731 8.43982 11.3015 8.46451 11.3291 8.4922ZM5.46289 8.4922V8.49122C5.43654 8.46479 5.40838 8.44209 5.37988 8.42188C5.40849 8.44217 5.43645 8.46564 5.46289 8.4922ZM4.6709 8.49122V8.4922V8.49122ZM8.30273 8.41505C8.27685 8.39755 8.25028 8.38259 8.22266 8.37012C8.25026 8.3826 8.27687 8.39754 8.30273 8.41505ZM11.2363 8.41505C11.2104 8.39756 11.1839 8.38258 11.1562 8.37012C11.1838 8.3826 11.2105 8.39753 11.2363 8.41505ZM5.36328 8.41114C5.33923 8.39531 5.3146 8.38165 5.28906 8.37012C5.3146 8.38165 5.33923 8.39531 5.36328 8.41114ZM5.06738 8.32325L5.17676 8.33302C5.20977 8.3395 5.24157 8.34967 5.27246 8.36231C5.24156 8.34967 5.20978 8.3395 5.17676 8.33302C5.14153 8.32609 5.10502 8.32317 5.06738 8.32325ZM8.20605 8.36231C8.17514 8.34967 8.14336 8.33952 8.11035 8.33302C8.14336 8.33952 8.17517 8.34966 8.20605 8.36231ZM11.043 8.33302C11.0763 8.33954 11.1085 8.34953 11.1396 8.36231C11.1087 8.34966 11.0769 8.33953 11.0439 8.33302L10.9336 8.32325L11.043 8.33302ZM2.86621 4.1211V6.32032H2.86719V4.1211H2.86621ZM3.31934 3.91895C3.28426 3.91895 3.24085 3.93149 3.18457 3.98731C3.12886 4.04273 3.11708 4.08521 3.11719 4.12012V6.07032H12.8838V4.12012C12.8837 4.08581 12.8716 4.04287 12.8154 3.98634C12.7605 3.93114 12.7183 3.919 12.6836 3.91895H3.31934ZM2.1377 4.00587C2.13684 4.01653 2.13733 4.02732 2.13672 4.03809C2.13733 4.02732 2.13684 4.01652 2.1377 4.00587ZM2.15137 3.89259C2.14805 3.91214 2.14696 3.93216 2.14453 3.95216C2.14697 3.93216 2.14804 3.91214 2.15137 3.89259ZM2.1748 3.78516C2.1708 3.80021 2.16847 3.81573 2.16504 3.83106C2.16848 3.81573 2.17079 3.80021 2.1748 3.78516ZM2.21387 3.66895C2.20505 3.69174 2.19681 3.71478 2.18945 3.73829C2.19682 3.71479 2.20504 3.69173 2.21387 3.66895ZM3.31836 3.66895C3.29047 3.66896 3.26309 3.67201 3.23633 3.67774L3.31934 3.66895H3.31836ZM2.25391 3.57716C2.24335 3.59841 2.23279 3.61967 2.22363 3.64161C2.23281 3.61969 2.24334 3.59839 2.25391 3.57716ZM2.30859 3.48048C2.29641 3.4998 2.28435 3.51911 2.27344 3.53907C2.28436 3.51913 2.2964 3.49979 2.30859 3.48048ZM2.39355 3.36231C2.37002 3.39079 2.34748 3.42014 2.32715 3.4502C2.34756 3.42004 2.36993 3.39089 2.39355 3.36231ZM2.55566 3.19923C2.54036 3.21195 2.52657 3.2266 2.51172 3.24024C2.52658 3.2266 2.54035 3.21195 2.55566 3.19923ZM2.6377 3.1377C2.62 3.14994 2.60309 3.16342 2.58594 3.17677C2.60309 3.16342 2.61999 3.14994 2.6377 3.1377ZM2.7334 3.07911C2.71719 3.08805 2.70135 3.09765 2.68555 3.10743C2.70135 3.09765 2.71718 3.08805 2.7334 3.07911ZM2.83789 3.02833C2.81462 3.03811 2.79203 3.04921 2.76953 3.06055C2.79203 3.04922 2.81462 3.03811 2.83789 3.02833ZM2.93945 2.99122C2.91466 2.99892 2.89021 3.00729 2.86621 3.01661C2.89022 3.0073 2.91465 2.99891 2.93945 2.99122ZM3.06445 2.95997C3.03329 2.966 3.00268 2.97312 2.97266 2.98145C3.00269 2.97312 3.03329 2.966 3.06445 2.95997ZM3.18066 2.94239C3.14583 2.94584 3.11166 2.95095 3.07812 2.95704C3.11166 2.95095 3.14583 2.94584 3.18066 2.94239ZM3.31934 2.93555L3.31836 2.93653L3.31934 2.93555ZM11.3848 1.667V2.93653H12.6826V2.93555H11.3857V1.66602C11.3855 1.64258 11.3816 1.62029 11.3779 1.59864C11.3816 1.62049 11.3845 1.64334 11.3848 1.667ZM5.40527 1.69532V2.93653L5.40625 2.93555V1.69532C5.40636 1.66811 5.40273 1.64219 5.39844 1.6172C5.40264 1.64216 5.40539 1.66813 5.40527 1.69532ZM4.62109 1.62403C4.61908 1.63705 4.61904 1.65046 4.61816 1.66407C4.61902 1.65045 4.61909 1.63705 4.62109 1.62403ZM5.39551 1.60352C5.39201 1.58664 5.38738 1.57052 5.38184 1.5547C5.38732 1.57054 5.39206 1.58663 5.39551 1.60352ZM4.63867 1.5547C4.6346 1.5664 4.63187 1.57855 4.62891 1.59083C4.63186 1.57853 4.63462 1.56641 4.63867 1.5547ZM11.373 1.57423C11.3702 1.56223 11.3673 1.55048 11.3633 1.53907C11.3672 1.55049 11.3702 1.56222 11.373 1.57423ZM4.66699 1.4922C4.66003 1.50431 4.653 1.51644 4.64746 1.5293C4.653 1.51642 4.66002 1.50433 4.66699 1.4922ZM5.29297 1.41212C5.32792 1.44685 5.35443 1.48615 5.37305 1.5293C5.36438 1.50935 5.35487 1.48983 5.34277 1.47169C5.32878 1.4507 5.31261 1.43069 5.29395 1.41212C5.27667 1.39495 5.25759 1.38045 5.23828 1.3672C5.25743 1.38034 5.2758 1.39508 5.29297 1.41212ZM11.2793 1.40528C11.311 1.43702 11.3351 1.47253 11.3525 1.51173C11.3446 1.49388 11.3361 1.47628 11.3252 1.45997C11.3122 1.44049 11.2975 1.42157 11.2803 1.4043L11.2793 1.40528ZM10.7568 1.4043V1.40528V1.4043ZM5.22266 1.35743C5.20782 1.3483 5.19271 1.33995 5.17676 1.33302C5.19271 1.33994 5.20782 1.3483 5.22266 1.35743ZM5.00977 1.29981C5.06302 1.29981 5.11238 1.30871 5.15723 1.3252C5.13624 1.31747 5.11459 1.31075 5.0918 1.30665C5.06598 1.302 5.03892 1.29984 5.01074 1.29981H5.00977ZM13.8213 13.8291C13.8297 13.7987 13.8368 13.7679 13.8428 13.7363C13.8368 13.7679 13.8296 13.7987 13.8213 13.8291Z" fill="#868789"/>
</svg>
