<svg fill="none" xmlns="http://www.w3.org/2000/svg">
<path d="M16.4951 9.30176C16.4461 8.31307 16.0314 7.37516 15.3281 6.67188C14.578 5.92173 13.5609 5.5 12.5 5.5C11.4391 5.5 10.422 5.92173 9.67188 6.67188C8.92173 7.42202 8.5 8.43913 8.5 9.5L8.50488 9.69824C8.5539 10.6869 8.96859 11.6248 9.67188 12.3281C10.422 13.0783 11.4391 13.5 12.5 13.5L12.6982 13.4951C13.6869 13.4461 14.6248 13.0314 15.3281 12.3281C16.0783 11.578 16.5 10.5609 16.5 9.5L16.4951 9.30176ZM18.4922 9.79785C18.4185 11.2807 17.797 12.6874 16.7422 13.7422C15.8556 14.6288 14.7202 15.2077 13.5 15.4141V17.5H17.5C18.0523 17.5 18.5 17.9477 18.5 18.5C18.5 19.0523 18.0523 19.5 17.5 19.5H13.5V21.5C13.5 22.0523 13.0523 22.5 12.5 22.5C11.9477 22.5 11.5 22.0523 11.5 21.5V19.5H7.5C6.94772 19.5 6.5 19.0523 6.5 18.5C6.5 17.9477 6.94772 17.5 7.5 17.5H11.5V15.4141C10.2798 15.2077 9.14442 14.6288 8.25781 13.7422C7.203 12.6874 6.58146 11.2807 6.50781 9.79785L6.5 9.5C6.5 7.9087 7.13259 6.38303 8.25781 5.25781C9.38303 4.13259 10.9087 3.5 12.5 3.5C14.0913 3.5 15.617 4.13259 16.7422 5.25781C17.8674 6.38303 18.5 7.9087 18.5 9.5L18.4922 9.79785Z" fill="currentColor"/>
</svg>
