<svg xmlns="http://www.w3.org/2000/svg" width="46" height="46" viewBox="0 0 46 46" fill="currentColor">
<path d="M7.53125 36.5172V18.4339C7.53125 17.9013 7.65462 17.3971 7.90136 16.9214C8.1481 16.4457 8.48808 16.0538 8.9213 15.7459L20.5087 7.26183C21.1155 6.81384 21.8083 6.58984 22.5873 6.58984C23.3662 6.58984 24.0634 6.81384 24.6788 7.26183L36.2662 15.7438C36.7009 16.0518 37.0408 16.4443 37.2861 16.9214C37.5329 17.3971 37.6562 17.9013 37.6562 18.4339V36.5172C37.6562 37.0748 37.4418 37.5609 37.0129 37.9756C36.5839 38.3903 36.0811 38.5977 35.5045 38.5977H28.2228C27.7293 38.5977 27.3162 38.4368 26.9834 38.115C26.6506 37.7918 26.4842 37.3924 26.4842 36.9166V26.995C26.4842 26.5192 26.3178 26.1205 25.985 25.7987C25.6507 25.4755 25.2376 25.3139 24.7455 25.3139H20.442C19.9499 25.3139 19.5375 25.4755 19.2047 25.7987C18.8704 26.1205 18.7033 26.5192 18.7033 26.995V36.9187C18.7033 37.3945 18.5369 37.7932 18.2041 38.115C17.8713 38.4368 17.4589 38.5977 16.9668 38.5977H9.68304C9.10636 38.5977 8.60356 38.3903 8.17463 37.9756C7.74571 37.5609 7.53125 37.0748 7.53125 36.5172Z" fill="currentColor" stroke="currentColor" stroke-width="3.76562"/>
</svg>