<svg xmlns="http://www.w3.org/2000/svg" width="31" height="31" viewBox="0 0 31 31" fill="currentColor">
<path d="M26.0852 3.39323C26.5142 3.23856 26.9947 3.34475 27.3171 3.66719C27.6396 3.98966 27.7457 4.47014 27.5911 4.89911L19.4329 27.4929C19.4218 27.5235 19.4097 27.5551 19.3961 27.5848C19.2472 27.9096 19.0072 28.1842 18.7066 28.3773C18.4057 28.5704 18.0547 28.6733 17.6971 28.6733C17.3399 28.6732 16.9902 28.5702 16.6895 28.3773C16.3888 28.1843 16.149 27.9096 16 27.5848V27.583L11.7986 19.1838L3.40137 14.9825C3.39524 14.9796 3.38909 14.9761 3.38299 14.9733L3.3646 14.9659L3.36644 14.9641C3.05683 14.8143 2.7931 14.5847 2.60706 14.2948C2.46211 14.0689 2.36727 13.8156 2.32942 13.552L2.31104 13.2872L2.32942 13.0206C2.36733 12.7571 2.46221 12.5035 2.60706 12.2778C2.79995 11.9774 3.07509 11.739 3.39954 11.5901L3.49147 11.5515L26.0852 3.39323ZM5.41106 13.3589L13.2034 17.2551L13.3652 17.3525C13.5187 17.4632 13.6438 17.6101 13.7293 17.7809L17.6236 25.5714L24.526 6.45648L5.41106 13.3589Z" fill="#868789"/>
</svg>