<svg width="92" height="25" viewBox="0 0 92 25" fill="none" xmlns="http://www.w3.org/2000/svg">
<g clip-path="url(#clip0_1052_1242)">
<path d="M16.5615 0.0205356C17.0617 -0.114361 17.4784 0.418081 17.2256 0.869168L15.79 3.42776C18.9388 5.24649 21.0644 8.64283 21.0644 12.5264C21.0642 17.6342 17.3915 21.8998 12.543 22.8389L4.54101 24.9785C4.0411 25.1117 3.62621 24.5806 3.8789 24.1299L5.28125 21.6279C2.12819 19.8104 0.000158034 16.413 0 12.5264C0 7.42107 3.6692 3.15627 8.51464 2.21389C8.53313 2.20679 8.54667 2.19394 8.56738 2.1885L16.5615 0.0205356ZM46.5283 2.46487C47.1696 2.46503 47.644 3.05973 47.5 3.68264L43.8037 19.6553L46.5498 18.961C49.1973 18.0951 51.0809 17.5424 53.5507 16.4375C53.9735 16.2373 55.7194 15.5374 55.8388 15.0332L55.9033 14.752C56.0072 14.3002 56.4102 13.9786 56.875 13.9785H61.1308L61.1318 13.9776C61.5473 13.9777 61.7084 14.5166 61.3613 14.7442C60.8532 14.9946 60.8043 15.7145 61.2812 16.0108C61.2861 16.0135 61.29 16.0139 61.2949 16.0166C61.2949 16.0166 61.3005 16.0204 61.3027 16.0215C62.8181 16.9468 64.3263 17.6987 65.9013 18.4385C66.4816 18.7108 66.6632 19.4483 66.2705 19.9541C65.5253 20.913 64.5042 22.2277 64.4902 22.2471V22.2451C62.2259 21.2722 60.3486 19.9127 58.249 18.8389C57.9991 18.7113 57.7062 18.7014 57.4443 18.8018C54.7642 19.8276 51.1881 20.8422 48.4599 21.8086C48.3517 21.8467 48.2383 21.8662 48.123 21.8662H43.0566C42.9691 21.8662 42.8871 21.8562 42.8105 21.8389C42.71 21.8727 42.6028 21.8926 42.4922 21.8926H40.4824C39.8409 21.8926 39.3664 21.297 39.5107 20.6738L43.5459 3.23538C43.6505 2.78429 44.0533 2.46487 44.5175 2.46487H46.5283ZM85.1874 13.3555C85.8288 13.3558 86.3035 13.9522 86.1591 14.5752L85.3925 17.8867C85.288 18.3379 84.8841 18.6572 84.4199 18.6572H72.374C72.2209 18.6573 72.0871 18.7632 72.0527 18.9121C72.0049 19.1182 72.162 19.3158 72.374 19.3164H91.0009C91.9183 19.3168 92.3487 20.4484 91.662 21.0557L91.0273 21.6162C90.8446 21.7772 90.6095 21.8672 90.3661 21.8672H68.2929C67.6516 21.867 67.1781 21.2714 67.3222 20.6485L68.1083 17.249C68.2128 16.7978 68.6162 16.4776 69.08 16.4776H81.1396C81.2878 16.4776 81.4172 16.3761 81.4511 16.2315C81.4973 16.0314 81.3451 15.8408 81.1396 15.8408H69.6913C69.05 15.8405 68.5757 15.2437 68.7206 14.6201L68.8359 14.127C68.9403 13.6762 69.3432 13.3565 69.8076 13.3565L85.1874 13.3555ZM41.6923 2.52151C42.3339 2.52151 42.8084 3.1171 42.664 3.74026L38.6855 20.9365C38.5809 21.3877 38.1781 21.707 37.7138 21.707H34.4902L34.4873 21.7061L36.3027 13.8604C36.3835 13.5103 36.1164 13.1761 35.7568 13.1758C35.7399 13.1758 35.722 13.1756 35.705 13.1778L35.7158 13.1416C34.7395 12.8808 34.1268 11.7966 34.4287 10.6709C34.7153 9.60476 35.694 8.98089 36.6259 9.13967C36.7134 9.19686 36.8184 9.23049 36.9326 9.23049C37.1933 9.23036 37.4199 9.05147 37.4785 8.79787L38.7519 3.29104C38.8565 2.84004 39.2585 2.52064 39.7226 2.52053L41.6923 2.52151ZM10.5312 4.20803C5.93426 4.2082 2.19336 7.93956 2.19336 12.5264C2.19359 17.113 5.9344 20.8436 10.5312 20.8438C15.1288 20.8438 18.8689 17.1131 18.8691 12.5264C18.8691 7.93946 15.1284 4.20803 10.5312 4.20803ZM36.5566 2.90335C37.1367 2.9707 37.546 3.53039 37.4111 4.11526L36.459 8.23342C35.149 8.16794 33.9349 9.09394 33.5722 10.4434C33.1916 11.8616 33.8599 13.3434 35.1474 13.8809L33.8642 19.4238C33.7598 19.8751 33.3569 20.1953 32.8926 20.1953H25.9638C25.3223 20.1953 24.8478 19.5997 24.9922 18.9766L28.3379 4.51956C28.3865 4.30849 28.3178 4.0867 28.1572 3.94045C27.7514 3.57103 28.0133 2.89651 28.5625 2.89651H36.4394L36.5566 2.90335ZM13.7207 7.68362C15.875 7.68362 17.6277 9.7704 17.6279 12.336C17.6279 14.9017 15.8751 16.9893 13.7207 16.9893C12.4382 16.9892 11.3015 16.2454 10.5889 15.1045C9.87784 16.2635 8.73111 17.0205 7.43652 17.0205C5.28208 17.0205 3.52929 14.9324 3.52929 12.3672C3.52942 9.80213 5.28216 7.71487 7.43652 7.71487C8.71907 7.71491 9.85569 8.45866 10.5684 9.59963C11.2794 8.44122 12.4261 7.68369 13.7207 7.68362ZM32.2314 6.59963C31.9962 6.59963 31.7923 6.76119 31.7392 6.98928L29.6836 15.8604C29.6103 16.1757 29.8509 16.4775 30.1758 16.4776C30.4109 16.4776 30.6149 16.315 30.6679 16.0869L32.7226 7.21682C32.7959 6.90147 32.5562 6.59972 32.2314 6.59963ZM7.43554 8.70998C6.53937 8.7101 5.73743 9.22337 5.20312 10.0274C5.51247 9.83444 5.86222 9.72275 6.23437 9.72268C7.25607 9.72268 8.12019 10.5467 8.40624 11.6768L6.99706 12.3252V12.3281L8.48632 12.8496C8.34181 14.2109 7.39108 15.2637 6.23437 15.2637C5.98893 15.2636 5.75264 15.2138 5.53125 15.126C6.04202 15.6841 6.70713 16.0253 7.43554 16.0254C8.59115 16.0253 9.58836 15.1718 10.0576 13.9414C9.90235 13.4401 9.81347 12.8879 9.81347 12.3369C9.81347 11.7858 9.89907 11.2583 10.0478 10.7666C9.57469 9.551 8.58242 8.70998 7.43554 8.70998ZM13.7207 8.67971C12.7964 8.67978 11.9727 9.22632 11.4394 10.0742C11.7665 9.85161 12.1435 9.72268 12.5449 9.72268C13.5666 9.72268 14.4307 10.5467 14.7168 11.6768L13.3066 12.3252V12.3281L14.7969 12.8496C14.6524 14.2109 13.7016 15.2637 12.5449 15.2637C12.3004 15.2637 12.0657 15.2153 11.8447 15.1279C12.3517 15.6676 13.0059 15.9951 13.7207 15.9951C15.3254 15.9951 16.6308 14.3537 16.6308 12.3369C16.6308 10.3201 15.3249 8.67971 13.7207 8.67971ZM54.6865 5.81936L54.4892 5.84377C53.5108 6.00453 52.6785 6.67395 52.4375 7.71975C52.1593 8.92752 52.8972 9.63171 54.0673 9.63186C55.2377 9.63186 56.3049 8.92773 56.5839 7.71975C56.8076 6.749 56.3716 6.10283 55.5878 5.88674L56.6103 2.19143C59.6495 2.39292 61.6535 4.48185 60.9042 7.71975C60.1149 11.1289 56.8617 13.2627 53.5517 13.2627H52.8974C49.5879 13.2627 47.3247 11.129 48.1132 7.71975C48.9019 4.3105 52.1553 2.17595 55.4599 2.17581H55.6953L54.6865 5.81936ZM66.829 2.45901C67.4774 2.45928 67.9532 3.06749 67.7958 3.69534L65.5839 12.5098C65.4729 12.9523 65.0734 13.2627 64.6162 13.2627H62.3466C61.6979 13.2627 61.2218 12.6545 61.3798 12.0264L63.5917 3.21194C63.7029 2.76953 64.1023 2.45901 64.5595 2.45901H66.829ZM78.3876 8.04885C79.6783 8.04302 80.6532 8.97607 80.6581 10.0449L81.5536 10.0352L86.9745 10.0342C87.6159 10.0343 88.0913 10.6304 87.9462 11.2539L87.7958 11.9024C87.6914 12.353 87.2879 12.6728 86.8241 12.6729H69.0927C69.0902 12.6728 69.0885 12.6705 69.0888 12.668L69.5224 10.8047C69.6274 10.354 70.0303 10.0352 70.4941 10.0352H75.2353V10.0371H76.1132C76.1083 8.96816 77.0974 8.05485 78.3876 8.04885ZM75.4306 2.42678C75.6066 2.46604 75.7295 2.63418 75.7079 2.81643L75.6933 2.89944C75.6698 3.10831 75.8333 3.29667 76.0497 3.2969H79.4228L78.9111 5.80666H75.3085C75.1339 5.80689 74.9824 5.92688 74.9423 6.0967C74.8877 6.33173 75.0665 6.55734 75.3085 6.55764H83.4501C83.6251 6.55764 83.7779 6.43781 83.8173 6.2676C83.872 6.03242 83.6924 5.80666 83.4501 5.80666H79.8144L80.3271 3.2969H84.0595C84.3083 3.2969 84.5264 3.13763 84.6025 2.9053L84.6288 2.8096C84.705 2.57803 84.9228 2.41811 85.1708 2.41799H87.7245C88.3653 2.41817 88.8394 3.01281 88.6952 3.63577L87.5878 8.42385C87.4834 8.87512 87.081 9.19533 86.6161 9.19533H81.499C81.4707 9.19537 81.4436 9.19827 81.4169 9.20315C81.016 7.99503 79.778 7.15558 78.3827 7.16213C76.9914 7.16873 75.7615 7.99653 75.3671 9.19533H71.2314C70.5898 9.19533 70.1154 8.59971 70.2597 7.97658L71.3662 3.1885C71.4707 2.7373 71.8745 2.41799 72.3388 2.41799H75.3515L75.4306 2.42678Z" fill="white"/>
</g>
<defs>
<clipPath id="clip0_1052_1242">
<rect width="92" height="25" fill="white"/>
</clipPath>
</defs>
</svg>
