<svg xmlns="http://www.w3.org/2000/svg" width="46" height="46" viewBox="0 0 46 46" fill="currentColor">
<path d="M22.5947 26.5947C24.7748 26.5934 26.9201 26.8495 29.0332 27.3633C31.1443 27.8766 33.2319 28.6442 35.2969 29.6729C36.0029 30.0406 36.5673 30.5665 37.0088 31.2852C37.442 31.9903 37.6573 32.7509 37.6562 33.6064V35.3027C37.6562 35.965 37.4422 36.4857 36.9629 36.9658C36.4855 37.4439 35.9669 37.6571 35.3047 37.6562H9.88477C9.22262 37.6562 8.70388 37.4422 8.22559 36.9639C7.80701 36.5453 7.59015 36.0947 7.54199 35.543L7.53125 35.3008V33.6084L7.54102 33.291C7.58823 32.5609 7.80101 31.9017 8.17969 31.2861C8.62285 30.5657 9.19029 30.0385 9.89941 29.6689C11.9611 28.6399 14.0451 27.874 16.1523 27.3643C18.2668 26.8528 20.4132 26.5961 22.5947 26.5947ZM22.5938 7.53125C24.4204 7.53125 25.9371 8.1598 27.2461 9.46875C28.555 10.7777 29.1836 12.2944 29.1836 14.1211C29.1836 15.9478 28.555 17.4645 27.2461 18.7734C25.9371 20.0824 24.4204 20.7109 22.5938 20.7109C20.7671 20.7109 19.2504 20.0824 17.9414 18.7734C16.6325 17.4645 16.0039 15.9478 16.0039 14.1211C16.0039 12.2944 16.6325 10.7777 17.9414 9.46875C19.2504 8.1598 20.7671 7.53125 22.5938 7.53125Z" stroke="black" stroke-width="3.76562"/>
</svg>