<svg width="24" height="24" viewBox="0 0 24 24" fill="none" xmlns="http://www.w3.org/2000/svg">
<path d="M6.29297 16.793C6.68349 16.4024 7.31651 16.4024 7.70703 16.793C8.09756 17.1835 8.09756 17.8165 7.70703 18.207L4.70703 21.207C4.31651 21.5976 3.68349 21.5976 3.29297 21.207L1.79297 19.707C1.40245 19.3165 1.40245 18.6835 1.79297 18.293C2.15909 17.9269 2.73809 17.9043 3.13086 18.2246L3.20703 18.293L4 19.0859L6.29297 16.793ZM21.5 18C22.0523 18 22.5 18.4477 22.5 19C22.5 19.5523 22.0523 20 21.5 20H10.5C9.94772 20 9.5 19.5523 9.5 19C9.5 18.4477 9.94772 18 10.5 18H21.5ZM6.29297 9.79297C6.68349 9.40245 7.31651 9.40245 7.70703 9.79297C8.09756 10.1835 8.09756 10.8165 7.70703 11.207L4.70703 14.207C4.31651 14.5976 3.68349 14.5976 3.29297 14.207L1.79297 12.707C1.40245 12.3165 1.40245 11.6835 1.79297 11.293C2.15909 10.9269 2.73809 10.9043 3.13086 11.2246L3.20703 11.293L4 12.0859L6.29297 9.79297ZM21.5 11C22.0523 11 22.5 11.4477 22.5 12C22.5 12.5523 22.0523 13 21.5 13H10.5C9.94772 13 9.5 12.5523 9.5 12C9.5 11.4477 9.94772 11 10.5 11H21.5ZM6.29297 2.79297C6.68349 2.40245 7.31651 2.40245 7.70703 2.79297C8.09756 3.18349 8.09756 3.81651 7.70703 4.20703L4.70703 7.20703C4.31651 7.59756 3.68349 7.59756 3.29297 7.20703L1.79297 5.70703C1.40245 5.31651 1.40245 4.68349 1.79297 4.29297C2.15909 3.92685 2.73809 3.90426 3.13086 4.22461L3.20703 4.29297L4 5.08594L6.29297 2.79297ZM21.5 4C22.0523 4 22.5 4.44772 22.5 5C22.5 5.55229 22.0523 6 21.5 6H10.5C9.94772 6 9.5 5.55229 9.5 5C9.5 4.44772 9.94772 4 10.5 4H21.5Z" fill="currentColor"/>
</svg>
