<svg xmlns="http://www.w3.org/2000/svg" width="16" height="17" viewBox="0 0 16 16" fill="none">
<path d="M8 14.5C7.81111 14.5 7.65289 14.436 7.52534 14.308C7.39778 14.18 7.33378 14.0218 7.33334 13.8333V9.16667H2.66667C2.47778 9.16667 2.31956 9.10267 2.192 8.97467C2.06445 8.84667 2.00045 8.68845 2 8.5C1.99956 8.31156 2.06356 8.15334 2.192 8.02534C2.32045 7.89734 2.47867 7.83334 2.66667 7.83334H7.33334V3.16667C7.33334 2.97778 7.39734 2.81956 7.52534 2.692C7.65334 2.56445 7.81156 2.50045 8 2.5C8.18845 2.49956 8.34689 2.56356 8.47534 2.692C8.60378 2.82045 8.66756 2.97867 8.66667 3.16667V7.83334H13.3333C13.5222 7.83334 13.6807 7.89734 13.8087 8.02534C13.9367 8.15334 14.0004 8.31156 14 8.5C13.9996 8.68845 13.9356 8.84689 13.808 8.97534C13.6804 9.10378 13.5222 9.16756 13.3333 9.16667H8.66667V13.8333C8.66667 14.0222 8.60267 14.1807 8.47467 14.3087C8.34667 14.4367 8.18845 14.5004 8 14.5Z" fill="currentColor"/>
</svg>
