<svg xmlns="http://www.w3.org/2000/svg" width="31" height="31" viewBox="0 0 31 31" fill="currentColor">
<path d="M15.4375 27.0938C15.0819 27.0938 14.784 26.9733 14.5438 26.7323C14.3036 26.4913 14.1831 26.1934 14.1823 25.8385V17.0521H5.39584C5.0402 17.0521 4.74229 16.9316 4.50213 16.6906C4.26197 16.4496 4.14147 16.1517 4.14063 15.7969C4.13979 15.4421 4.26029 15.1442 4.50213 14.9032C4.74397 14.6622 5.04187 14.5417 5.39584 14.5417H14.1823V5.75521C14.1823 5.39957 14.3028 5.10167 14.5438 4.8615C14.7848 4.62134 15.0827 4.50084 15.4375 4.5C15.7923 4.49917 16.0906 4.61967 16.3325 4.8615C16.5743 5.10334 16.6944 5.40124 16.6927 5.75521V14.5417H25.4792C25.8348 14.5417 26.1331 14.6622 26.3741 14.9032C26.6151 15.1442 26.7352 15.4421 26.7344 15.7969C26.7335 16.1517 26.613 16.45 26.3729 16.6918C26.1327 16.9337 25.8348 17.0538 25.4792 17.0521H16.6927V25.8385C16.6927 26.1942 16.5722 26.4925 16.3312 26.7335C16.0902 26.9745 15.7923 27.0946 15.4375 27.0938Z" fill="black"/>
</svg>