<svg xmlns="http://www.w3.org/2000/svg" viewBox="0 0 38 38" fill="currentColor">
<g clip-path="url(#clip0_1_7653)">
<mask id="mask0_1_7653" style="mask-type:alpha" maskUnits="userSpaceOnUse" x="0" y="0" width="38" height="38">
<path d="M0 0.1875H37.6562V37.8438H0V0.1875Z" fill="currentColor"/>
</mask>
<g mask="url(#mask0_1_7653)">
<path d="M17.2588 25.2914C17.2588 26.1579 17.9613 26.8604 18.8278 26.8604C19.6943 26.8604 20.3968 26.1579 20.3968 25.2914V19.0153C20.3968 18.1488 19.6943 17.4463 18.8278 17.4463C17.9613 17.4463 17.2588 18.1488 17.2588 19.0153V25.2914ZM18.8278 14.3083C19.2724 14.3083 19.645 14.1579 19.9457 13.8572C20.2464 13.5565 20.3968 13.1838 20.3968 12.7393C20.3968 12.2947 20.2464 11.9221 19.9457 11.6214C19.645 11.3206 19.2724 11.1703 18.8278 11.1703C18.3832 11.1703 18.0106 11.3206 17.7099 11.6214C17.4092 11.9221 17.2588 12.2947 17.2588 12.7393C17.2588 13.1838 17.4092 13.5565 17.7099 13.8572C18.0106 14.1579 18.3832 14.3083 18.8278 14.3083ZM18.8278 34.7054C16.6573 34.7054 14.6176 34.2936 12.7087 33.4698C10.7997 32.6461 9.13916 31.5282 7.72705 30.1161C6.31494 28.704 5.19702 27.0434 4.37329 25.1345C3.54956 23.2255 3.1377 21.1858 3.1377 19.0153C3.1377 16.8449 3.54956 14.8052 4.37329 12.8962C5.19702 10.9872 6.31494 9.32669 7.72705 7.91458C9.13916 6.50247 10.7997 5.38455 12.7087 4.56082C14.6176 3.73709 16.6573 3.32523 18.8278 3.32523C20.9983 3.32523 23.038 3.73709 24.9469 4.56082C26.8559 5.38455 28.5164 6.50247 29.9285 7.91458C31.3407 9.32669 32.4586 10.9872 33.2823 12.8962C34.106 14.8052 34.5179 16.8449 34.5179 19.0153C34.5179 21.1858 34.106 23.2255 33.2823 25.1345C32.4586 27.0434 31.3407 28.704 29.9285 30.1161C28.5164 31.5282 26.8559 32.6461 24.9469 33.4698C23.038 34.2936 20.9983 34.7054 18.8278 34.7054Z" fill="currentColor"/>
</g>
</g>
<defs>
<clipPath id="clip0_1_7653">
<rect width="37.6562" height="37.6562" fill="currentColor" transform="translate(0 0.1875)"/>
</clipPath>
</defs>
</svg>