<svg viewBox="0 0 24 25" fill="none" xmlns="http://www.w3.org/2000/svg">
<path d="M4.04889 6.30188L7.85389 9.64988L11.2439 5.47588C11.3388 5.35919 11.4588 5.26542 11.595 5.20155C11.7312 5.13768 11.8801 5.10536 12.0305 5.10699C12.1809 5.10863 12.329 5.14417 12.4638 5.21099C12.5986 5.2778 12.7165 5.37415 12.8089 5.49288L16.0439 9.64888L19.9719 6.25288C20.1261 6.11979 20.3174 6.03699 20.52 6.01556C20.7226 5.99413 20.9269 6.0351 21.1056 6.13298C21.2843 6.23085 21.4288 6.38097 21.5198 6.56324C21.6108 6.74551 21.644 6.95123 21.6149 7.15288L20.1149 17.4999H3.92189L2.39889 7.19988C2.36864 6.99711 2.40143 6.78995 2.49284 6.60645C2.58424 6.42294 2.72984 6.27197 2.90991 6.17397C3.08998 6.07597 3.29581 6.03568 3.49954 6.05856C3.70327 6.08144 3.89504 6.16638 4.04889 6.30188ZM3.99989 18.4999H19.9999V19.4999C19.9999 19.7651 19.8945 20.0194 19.707 20.207C19.5195 20.3945 19.2651 20.4999 18.9999 20.4999H4.99989C4.73467 20.4999 4.48032 20.3945 4.29278 20.207C4.10525 20.0194 3.99989 19.7651 3.99989 19.4999V18.4999Z" fill="currentColor"/>
</svg>
