<svg xmlns="http://www.w3.org/2000/svg" width="24" height="24" viewBox="0 0 24 24" fill="none">
<path d="M20.6821 2.11817C21.0238 1.99495 21.4066 2.07954 21.6635 2.33643C21.9204 2.59333 22.005 2.97612 21.8818 3.31787L15.3823 21.3179C15.3734 21.3423 15.3638 21.3675 15.353 21.3911C15.2343 21.6499 15.0432 21.8687 14.8036 22.0225C14.5639 22.1763 14.2843 22.2583 13.9994 22.2583C13.7148 22.2582 13.4363 22.1762 13.1967 22.0225C12.9571 21.8687 12.7661 21.6499 12.6474 21.3911V21.3896L9.30022 14.6982L2.61028 11.3511C2.6054 11.3488 2.60049 11.346 2.59563 11.3438L2.58099 11.3379L2.58245 11.3364C2.33579 11.2171 2.12569 11.0342 1.97747 10.8032C1.86199 10.6233 1.78643 10.4215 1.75628 10.2114L1.74163 10.0005L1.75628 9.78809C1.78648 9.57821 1.86207 9.37612 1.97747 9.19629C2.13114 8.95697 2.35034 8.76707 2.60882 8.64844L2.68206 8.61768L20.6821 2.11817ZM4.21136 10.0576L10.4194 13.1616L10.5483 13.2393C10.6706 13.3274 10.7702 13.4444 10.8383 13.5806L13.9408 19.7871L19.4399 4.5586L4.21136 10.0576Z" fill="currentColor"/>
</svg>