<svg width="32" height="24" viewBox="0 0 32 24" fill="none" xmlns="http://www.w3.org/2000/svg">
<path d="M10.293 16.793C10.6835 16.4024 11.3165 16.4024 11.707 16.793C12.0976 17.1835 12.0976 17.8165 11.707 18.207L8.70703 21.207C8.31651 21.5976 7.68349 21.5976 7.29297 21.207L5.79297 19.707C5.40245 19.3165 5.40245 18.6835 5.79297 18.293C6.15909 17.9269 6.73809 17.9043 7.13086 18.2246L7.20703 18.293L8 19.0859L10.293 16.793ZM25.5 18C26.0523 18 26.5 18.4477 26.5 19C26.5 19.5523 26.0523 20 25.5 20H14.5C13.9477 20 13.5 19.5523 13.5 19C13.5 18.4477 13.9477 18 14.5 18H25.5ZM10.293 9.79297C10.6835 9.40245 11.3165 9.40245 11.707 9.79297C12.0976 10.1835 12.0976 10.8165 11.707 11.207L8.70703 14.207C8.31651 14.5976 7.68349 14.5976 7.29297 14.207L5.79297 12.707C5.40245 12.3165 5.40245 11.6835 5.79297 11.293C6.15909 10.9269 6.73809 10.9043 7.13086 11.2246L7.20703 11.293L8 12.0859L10.293 9.79297ZM25.5 11C26.0523 11 26.5 11.4477 26.5 12C26.5 12.5523 26.0523 13 25.5 13H14.5C13.9477 13 13.5 12.5523 13.5 12C13.5 11.4477 13.9477 11 14.5 11H25.5ZM10.293 2.79297C10.6835 2.40245 11.3165 2.40245 11.707 2.79297C12.0976 3.18349 12.0976 3.81651 11.707 4.20703L8.70703 7.20703C8.31651 7.59756 7.68349 7.59756 7.29297 7.20703L5.79297 5.70703C5.40245 5.31651 5.40245 4.68349 5.79297 4.29297C6.15909 3.92685 6.73809 3.90426 7.13086 4.22461L7.20703 4.29297L8 5.08594L10.293 2.79297ZM25.5 4C26.0523 4 26.5 4.44772 26.5 5C26.5 5.55229 26.0523 6 25.5 6H14.5C13.9477 6 13.5 5.55229 13.5 5C13.5 4.44772 13.9477 4 14.5 4H25.5Z" fill="#868789"/>
<circle cx="30" cy="4" r="2" fill="#EF2626"/>
</svg>
