<svg width="32" height="24" viewBox="0 0 32 24" fill="none" xmlns="http://www.w3.org/2000/svg">
<path d="M10.293 16.793C10.6835 16.4024 11.3165 16.4024 11.707 16.793C12.0975 17.1835 12.0975 17.8165 11.707 18.207L8.70702 21.207C8.31649 21.5976 7.68348 21.5976 7.29295 21.207L5.79295 19.707C5.40243 19.3165 5.40243 18.6835 5.79295 18.293C6.15907 17.9269 6.73807 17.9043 7.13084 18.2246L7.20702 18.293L7.99999 19.0859L10.293 16.793ZM25.5 18C26.0523 18 26.5 18.4477 26.5 19C26.5 19.5523 26.0523 20 25.5 20H14.5C13.9477 20 13.5 19.5523 13.5 19C13.5 18.4477 13.9477 18 14.5 18H25.5ZM10.293 9.79297C10.6835 9.40245 11.3165 9.40245 11.707 9.79297C12.0975 10.1835 12.0975 10.8165 11.707 11.207L8.70702 14.207C8.31649 14.5976 7.68348 14.5976 7.29295 14.207L5.79295 12.707C5.40243 12.3165 5.40243 11.6835 5.79295 11.293C6.15907 10.9269 6.73807 10.9043 7.13084 11.2246L7.20702 11.293L7.99999 12.0859L10.293 9.79297ZM25.5 11C26.0523 11 26.5 11.4477 26.5 12C26.5 12.5523 26.0523 13 25.5 13H14.5C13.9477 13 13.5 12.5523 13.5 12C13.5 11.4477 13.9477 11 14.5 11H25.5ZM10.293 2.79297C10.6835 2.40245 11.3165 2.40245 11.707 2.79297C12.0975 3.18349 12.0975 3.81651 11.707 4.20703L8.70702 7.20703C8.31649 7.59756 7.68348 7.59756 7.29295 7.20703L5.79295 5.70703C5.40243 5.31651 5.40243 4.68349 5.79295 4.29297C6.15907 3.92685 6.73807 3.90426 7.13084 4.22461L7.20702 4.29297L7.99999 5.08594L10.293 2.79297ZM25.5 4C26.0523 4 26.5 4.44772 26.5 5C26.5 5.55229 26.0523 6 25.5 6H14.5C13.9477 6 13.5 5.55229 13.5 5C13.5 4.44772 13.9477 4 14.5 4H25.5Z" fill="black"/>
<circle cx="30" cy="4" r="2" fill="#EF2626"/>
</svg>
