<svg viewBox="0 0 104 104" fill="currentColor" xmlns="http://www.w3.org/2000/svg">
<circle cx="5.24166" cy="28.2417" r="4.2798" transform="rotate(-75 5.24166 28.2417)" fill="#FF72EE"/>
<circle cx="82.3793" cy="6.37372" r="3.0378" transform="rotate(-150 82.3793 6.37372)" fill="#FF72EE"/>
<path d="M76.1631 81.8103L78.917 79.0574L80.7607 80.9011L78.0078 83.6541H81.9014V86.2625H78.0078L80.7607 89.0154L78.916 90.8601L76.1631 88.1062V92.0007H73.5557V88.1062L70.8027 90.8601L68.958 89.0154L71.7109 86.2625H67.8174V83.6541H71.7109L68.958 80.9011L70.8018 79.0574L73.5557 81.8103V77.9167H76.1631V81.8103Z" fill="#FF72EE"/>
<path d="M33.667 89.0518C38.7938 89.0519 42.95 93.2082 42.9502 98.335C42.9502 99.2278 42.2259 99.9521 41.333 99.9521H8.66699C7.77413 99.9521 7.0498 99.2278 7.0498 98.335C7.04998 93.2082 11.2062 89.0519 16.333 89.0518H33.667Z" fill="#CFFF5E" stroke="black" stroke-width="1.9"/>
<path d="M24.5 2.0166C28.5415 2.0166 31.9502 5.05825 31.9502 8.9668C31.9502 12.8753 28.5415 15.917 24.5 15.917C20.4585 15.917 17.0498 12.8753 17.0498 8.9668C17.0498 5.05825 20.4585 2.0166 24.5 2.0166Z" fill="#CFFF5E" stroke="black" stroke-width="1.9"/>
<mask id="path-6-outside-1_1203_459" maskUnits="userSpaceOnUse" x="53.9683" y="27.0459" width="48" height="39" fill="black">
<rect fill="white" x="53.9683" y="27.0459" width="48" height="39"/>
<path d="M84.3198 46.6973L99.8989 63.6387H55.9683V29.0459H99.9448L84.3198 46.6973Z"/>
</mask>
<path d="M84.3198 46.6973L99.8989 63.6387H55.9683V29.0459H99.9448L84.3198 46.6973Z" fill="#1263FF"/>
<path d="M84.3198 46.6973L82.8971 45.4379C82.2516 46.1672 82.262 47.2665 82.9213 47.9834L84.3198 46.6973ZM99.8989 63.6387V65.5387C100.653 65.5387 101.336 65.0928 101.639 64.4024C101.942 63.7119 101.808 62.9076 101.297 62.3526L99.8989 63.6387ZM55.9683 63.6387H54.0683C54.0683 64.688 54.9189 65.5387 55.9683 65.5387V63.6387ZM55.9683 29.0459V27.1459C54.9189 27.1459 54.0683 27.9966 54.0683 29.0459H55.9683ZM99.9448 29.0459L101.368 30.3053C101.863 29.7455 101.984 28.9473 101.677 28.2658C101.37 27.5842 100.692 27.1459 99.9448 27.1459V29.0459ZM84.3198 46.6973L82.9213 47.9834L98.5004 64.9248L99.8989 63.6387L101.297 62.3526L85.7184 45.4112L84.3198 46.6973ZM99.8989 63.6387V61.7387H55.9683V63.6387V65.5387H99.8989V63.6387ZM55.9683 63.6387H57.8683V29.0459H55.9683H54.0683V63.6387H55.9683ZM55.9683 29.0459V30.9459H99.9448V29.0459V27.1459H55.9683V29.0459ZM99.9448 29.0459L98.5221 27.7865L82.8971 45.4379L84.3198 46.6973L85.7425 47.9566L101.368 30.3053L99.9448 29.0459Z" fill="black" mask="url(#path-6-outside-1_1203_459)"/>
<path opacity="0.3" d="M55 28H72V54.8809C72 56.5508 70.9627 58.045 69.3981 58.6286L55 64V28Z" fill="black"/>
<rect x="24.1042" y="15.0168" width="46.9" height="41.9" fill="#1263FF" stroke="black" stroke-width="1.9" stroke-linejoin="round"/>
<rect x="19.05" y="14.0168" width="10.9" height="74.9" fill="#1263FF" stroke="black" stroke-width="1.9" stroke-linejoin="round"/>
<path d="M41.126 32.6001C46.7184 32.6001 51.2519 27.0932 51.2519 20.3001C51.2519 13.5069 46.7184 8 41.126 8C35.5335 8 31 13.5069 31 20.3001C31 27.0932 35.5335 32.6001 41.126 32.6001Z" fill="white" stroke="black" stroke-width="1.7344" stroke-miterlimit="10"/>
<path d="M40.762 20.178L44.9508 18.2525C44.1017 14.9047 41.5356 12.4697 38.501 12.4697C34.7745 12.4697 31.7524 16.1426 31.7524 20.6687C31.7524 25.1949 34.7745 28.8677 38.501 28.8677C41.935 28.8677 44.7621 25.7513 45.1898 21.719L40.762 20.1748V20.178Z" fill="black"/>
<path d="M59.874 32.601C65.4664 32.601 70 27.094 70 20.3009C70 13.5078 65.4664 8.00085 59.874 8.00085C54.2816 8.00085 49.748 13.5078 49.748 20.3009C49.748 27.094 54.2816 32.601 59.874 32.601Z" fill="white" stroke="black" stroke-width="1.7344" stroke-miterlimit="10"/>
<path d="M59.5101 20.178L63.6988 18.2525C62.8498 14.9047 60.2837 12.4697 57.249 12.4697C53.5226 12.4697 50.5005 16.1426 50.5005 20.6687C50.5005 25.1949 53.5226 28.8677 57.249 28.8677C60.6831 28.8677 63.5102 25.7513 63.9378 21.719L59.5101 20.1748V20.178Z" fill="black"/>
<path d="M53.5124 18.9915C54.1465 18.9915 54.6605 18.4774 54.6605 17.8433C54.6605 17.2092 54.1465 16.6952 53.5124 16.6952C52.8783 16.6952 52.3643 17.2092 52.3643 17.8433C52.3643 18.4774 52.8783 18.9915 53.5124 18.9915Z" fill="white"/>
<path d="M34.3542 18.8955C34.9883 18.8955 35.5023 18.3815 35.5023 17.7474C35.5023 17.1133 34.9883 16.5992 34.3542 16.5992C33.7201 16.5992 33.2061 17.1133 33.2061 17.7474C33.2061 18.3815 33.7201 18.8955 34.3542 18.8955Z" fill="white"/>
</svg>
