<svg viewBox="0 0 24 24" fill="none" xmlns="http://www.w3.org/2000/svg">
<path d="M12 8H4C3.46957 8 2.96086 8.21071 2.58579 8.58579C2.21071 8.96086 2 9.46957 2 10V14C2 14.5304 2.21071 15.0391 2.58579 15.4142C2.96086 15.7893 3.46957 16 4 16H5V20C5 20.2652 5.10536 20.5196 5.29289 20.7071C5.48043 20.8946 5.73478 21 6 21H8C8.26522 21 8.51957 20.8946 8.70711 20.7071C8.89464 20.5196 9 20.2652 9 20V16H12L16.1877 19.3501C16.515 19.612 17 19.3789 17 18.9597V5.04031C17 4.62106 16.515 4.38797 16.1877 4.64988L12 8ZM21.5 12C21.5 13.4411 20.8182 14.7686 19.6819 15.5934C19.3839 15.8097 19 15.5733 19 15.205V8.80194C19 8.43197 19.3869 8.1959 19.6849 8.41523C20.8136 9.24607 21.5 10.57 21.5 12Z" fill="currentColor"/>
</svg>
