<svg viewBox="0 0 104 104" fill="currentColor" xmlns="http://www.w3.org/2000/svg">
<mask id="path-1-outside-1_1203_462" maskUnits="userSpaceOnUse" x="7.64404" y="21.8479" width="88" height="60" fill="black">
<rect fill="white" x="7.64404" y="21.8479" width="88" height="60"/>
<path d="M70.3579 26.8479C81.5352 26.8479 90.5962 37.9231 90.5962 51.5842C90.5961 65.2453 81.5351 76.3196 70.3579 76.3196C61.8903 76.3194 54.6385 69.9631 51.6196 60.9417C48.6006 69.963 41.35 76.3196 32.8823 76.3196C21.7051 76.3196 12.6441 65.2453 12.644 51.5842C12.644 37.9231 21.705 26.8479 32.8823 26.8479C41.3495 26.8479 48.6004 33.2042 51.6196 42.2249C54.6388 33.2041 61.8907 26.8481 70.3579 26.8479Z"/>
</mask>
<path d="M70.3579 26.8479C81.5352 26.8479 90.5962 37.9231 90.5962 51.5842C90.5961 65.2453 81.5351 76.3196 70.3579 76.3196C61.8903 76.3194 54.6385 69.9631 51.6196 60.9417C48.6006 69.963 41.35 76.3196 32.8823 76.3196C21.7051 76.3196 12.6441 65.2453 12.644 51.5842C12.644 37.9231 21.705 26.8479 32.8823 26.8479C41.3495 26.8479 48.6004 33.2042 51.6196 42.2249C54.6388 33.2041 61.8907 26.8481 70.3579 26.8479Z" fill="white"/>
<path d="M70.3579 26.8479V22.2932H70.3578L70.3579 26.8479ZM90.5962 51.5842L95.1509 51.5843V51.5842H90.5962ZM70.3579 76.3196L70.3578 80.8743H70.3579V76.3196ZM51.6196 60.9417L55.9389 59.4963L51.6197 46.589L47.3003 59.4962L51.6196 60.9417ZM32.8823 76.3196V80.8743H32.8823L32.8823 76.3196ZM12.644 51.5842H8.0893V51.5843L12.644 51.5842ZM32.8823 26.8479L32.8823 22.2932H32.8823V26.8479ZM51.6196 42.2249L47.3004 43.6705L51.6198 56.5754L55.9389 43.6705L51.6196 42.2249ZM70.3579 26.8479V31.4026C78.2076 31.4026 86.0414 39.5412 86.0414 51.5842H90.5962H95.1509C95.1509 36.3049 84.8628 22.2932 70.3579 22.2932V26.8479ZM90.5962 51.5842L86.0415 51.5842C86.0413 63.6269 78.2077 71.7648 70.3579 71.7648V76.3196V80.8743C84.8626 80.8743 95.1508 66.8636 95.1509 51.5843L90.5962 51.5842ZM70.3579 76.3196L70.358 71.7648C64.3637 71.7647 58.517 67.2004 55.9389 59.4963L51.6196 60.9417L47.3003 62.3871C50.76 72.7257 59.4169 80.8741 70.3578 80.8743L70.3579 76.3196ZM51.6196 60.9417L47.3003 59.4962C44.722 67.2007 38.8762 71.7648 32.8823 71.7648L32.8823 76.3196L32.8823 80.8743C43.8237 80.8743 52.4793 72.7253 55.9389 62.3871L51.6196 60.9417ZM32.8823 76.3196V71.7648C25.0325 71.7648 17.1989 63.6269 17.1988 51.5842L12.644 51.5842L8.0893 51.5843C8.08941 66.8636 18.3776 80.8743 32.8823 80.8743V76.3196ZM12.644 51.5842H17.1988C17.1988 39.5412 25.0326 31.4026 32.8823 31.4026V26.8479V22.2932C18.3774 22.2932 8.0893 36.3049 8.0893 51.5842H12.644ZM32.8823 26.8479L32.8823 31.4026C38.8759 31.4027 44.7219 35.9666 47.3004 43.6705L51.6196 42.2249L55.9389 40.7792C52.4789 30.4418 43.8231 22.2932 32.8823 22.2932L32.8823 26.8479ZM51.6196 42.2249L55.9389 43.6705C58.5171 35.967 64.3639 31.4028 70.358 31.4026L70.3579 26.8479L70.3578 22.2932C59.4175 22.2934 50.7604 30.4412 47.3004 40.7793L51.6196 42.2249Z" fill="#7BB6FF" mask="url(#path-1-outside-1_1203_462)"/>
<g clip-path="url(#clip0_1203_462)">
<path d="M32.8824 76.3198C44.0597 76.3198 53.1207 65.2453 53.1207 51.5841C53.1207 37.9229 44.0597 26.8484 32.8824 26.8484C21.705 26.8484 12.644 37.9229 12.644 51.5841C12.644 65.2453 21.705 76.3198 32.8824 76.3198Z" fill="white" stroke="black" stroke-width="1.89781" stroke-miterlimit="10"/>
<path d="M30.2714 51.344L38.6441 47.4752C36.9462 40.7421 31.8137 35.8429 25.7481 35.8429C18.2956 35.8429 12.2559 43.2241 12.2559 52.3355C12.2559 61.447 18.2956 68.8282 25.7481 68.8282C32.6108 68.8282 38.2682 62.5616 39.1171 54.4546L30.2649 51.344H30.2714Z" fill="black"/>
<path d="M70.3584 76.3198C81.5357 76.3198 90.5967 65.2453 90.5967 51.5841C90.5967 37.9229 81.5357 26.8484 70.3584 26.8484C59.1811 26.8484 50.1201 37.9229 50.1201 51.5841C50.1201 65.2453 59.1811 76.3198 70.3584 76.3198Z" fill="white" stroke="black" stroke-width="1.89781" stroke-miterlimit="10"/>
<path d="M67.747 51.344L76.1197 47.4752C74.4218 40.7421 69.2893 35.8429 63.2236 35.8429C55.7712 35.8429 49.7314 43.2241 49.7314 52.3355C49.7314 61.447 55.7712 68.8282 63.2236 68.8282C70.0864 68.8282 75.7438 62.5616 76.5927 54.4546L67.7405 51.344H67.747Z" fill="black"/>
<path d="M19.7854 47.2941C21.1741 47.2941 22.2998 46.1683 22.2998 44.7797C22.2998 43.391 21.1741 42.2653 19.7854 42.2653C18.3967 42.2653 17.271 43.391 17.271 44.7797C17.271 46.1683 18.3967 47.2941 19.7854 47.2941Z" fill="white"/>
<path d="M57.008 47.0802C58.3967 47.0802 59.5224 45.9545 59.5224 44.5658C59.5224 43.1771 58.3967 42.0514 57.008 42.0514C55.6194 42.0514 54.4937 43.1771 54.4937 44.5658C54.4937 45.9545 55.6194 47.0802 57.008 47.0802Z" fill="white"/>
<path d="M93.1006 18V23.1825H88.0586L92.0625 26.3212L88.9484 29.8248L93.6938 28.8029L94.6577 33.1825L97.2528 29.8248L101.257 31.2847L99.1065 27.0511L104 24.9343L99.1065 23.9124L99.9221 19.1679L96.2148 22.0876L93.1006 18Z" fill="#FF72EE"/>
<path d="M5.52219 68.8613V74.8212H0L4.38527 78.4307L0.974503 82.4599L6.17186 81.2847L7.22757 86.3212L10.0699 82.4599L14.4551 84.1387L12.1001 79.2701L17.4599 76.8358L12.1001 75.6606L12.9934 70.2044L8.93295 73.5621L5.52219 68.8613Z" fill="#94EE70"/>
</g>
<defs>
<clipPath id="clip0_1203_462">
<rect width="104" height="68.3212" fill="white" transform="translate(0 18)"/>
</clipPath>
</defs>
</svg>
